<?xml version="1.0" encoding="UTF-8" standalone="no"?>
<!-- Created with Inkscape (http://www.inkscape.org/) -->

<svg
   xmlns:dc="http://purl.org/dc/elements/1.1/"
   xmlns:cc="http://creativecommons.org/ns#"
   xmlns:rdf="http://www.w3.org/1999/02/22-rdf-syntax-ns#"
   xmlns:svg="http://www.w3.org/2000/svg"
   xmlns="http://www.w3.org/2000/svg"
   xmlns:sodipodi="http://sodipodi.sourceforge.net/DTD/sodipodi-0.dtd"
   xmlns:inkscape="http://www.inkscape.org/namespaces/inkscape"
   version="1.1"
   id="svg3815"
   width="487.24567"
   height="274.05276"
   viewBox="0 0 487.24567 274.05276"
   sodipodi:docname="Captura de pantalla de 2021-03-15 00-35-10.svg"
   inkscape:version="0.92.3 (2405546, 2018-03-11)">
  <metadata
     id="metadata3821">
    <rdf:RDF>
      <cc:Work
         rdf:about="">
        <dc:format>image/svg+xml</dc:format>
        <dc:type
           rdf:resource="http://purl.org/dc/dcmitype/StillImage" />
        <dc:title></dc:title>
      </cc:Work>
    </rdf:RDF>
  </metadata>
  <defs
     id="defs3819" />
  <sodipodi:namedview
     pagecolor="#ffffff"
     bordercolor="#666666"
     borderopacity="1"
     objecttolerance="10"
     gridtolerance="10"
     guidetolerance="10"
     inkscape:pageopacity="0"
     inkscape:pageshadow="2"
     inkscape:window-width="1920"
     inkscape:window-height="1019"
     id="namedview3817"
     showgrid="false"
     fit-margin-top="0"
     fit-margin-left="0"
     fit-margin-right="0"
     fit-margin-bottom="0"
     inkscape:zoom="1.3622951"
     inkscape:cx="186.24954"
     inkscape:cy="116.07383"
     inkscape:window-x="0"
     inkscape:window-y="0"
     inkscape:window-maximized="1"
     inkscape:current-layer="svg3815" />
  <g
     id="g15"
     transform="translate(-4.7543436,-14.098398)">
    <path
       style="fill:#a4d6d6"
       d="M 143,273.06585 V 258.1317 l 17.08436,-0.31585 17.08436,-0.31585 2.91564,-3.26578 c 3.82094,-4.27979 3.82096,-8.18862 4e-5,-12.46844 L 177.1688,238.5 165.21731,238.16929 153.26582,237.83857 148.4205,232.91929 143.57518,228 h 17.24453 c 19.26611,0 21.56127,0.53529 27.05862,6.31077 3.671,3.85673 6.25822,11.52407 5.40127,16.00692 L 192.76685,253 h 16.98171 c 15.66576,0 17.18591,-0.16061 19.61658,-2.07258 3.64388,-2.86628 3.64388,-7.98856 0,-10.85484 C 227.02782,238.23404 225.35795,238 214.57755,238 h -12.15273 l -4.92482,-5 -4.92482,-5 h 18.76207 c 20.78614,0 22.0893,0.30497 27.46498,6.42754 5.00758,5.70332 5.5374,14.91667 1.1955,20.7894 l -2.0576,2.78306 2.0576,2.78306 c 4.3419,5.87273 3.81208,15.08608 -1.1955,20.7894 C 233.6733,287.414 231.64452,288 216.54966,288 H 203 v -5 -5 h 11.86514 c 10.48945,0 12.17064,-0.2403 14.5,-2.07258 3.64388,-2.86628 3.64388,-7.98856 0,-10.85484 C 226.93609,263.16189 225.41295,263 209.86514,263 H 193 l -0.0677,-4.25 c -0.0641,-4.02606 -0.12998,-4.11865 -1.25,-1.75727 -1.42564,3.00572 -6.9038,8.05327 -10.54073,9.71217 -1.58054,0.72092 -7.56205,1.22301 -14.89159,1.25 L 154,268 v 10 10 h -5.5 -5.5 z m 142,10.03198 c 0,-4.54988 0.21601,-4.97748 3.00573,-5.94998 5.81371,-2.02667 6.05878,-10.43054 0.37963,-13.01813 C 287.02165,263.50837 281.40472,263 275.90329,263 c -10.84962,0 -13.52626,-0.83759 -18.08967,-5.66072 -8.17192,-8.63702 -5.55342,-22.21316 5.38672,-27.92856 1.48519,-0.77589 3.84769,-1.41072 5.25,-1.41072 2.38828,0 2.54966,0.31221 2.54966,4.93261 0,4.04948 -0.35702,5.04593 -1.99408,5.56551 -3.24739,1.03068 -5.00692,3.43637 -4.99061,6.82331 0.0304,6.31669 2.87403,7.67857 16.03279,7.67857 8.6893,0 10.76288,0.32783 14.1638,2.23925 8.243,4.63282 11.24409,15.6186 6.54885,23.97265 C 298.27097,283.64187 291.7752,288 287.66214,288 285.14132,288 285,287.73977 285,283.09783 Z m 18.05404,4.15217 c 0.0297,-0.4125 6.72314,-14.02128 14.87426,-30.24173 l 14.82021,-29.49173 10.13051,20.24173 L 353.00953,268 h -6.08923 -6.08924 l -3.63403,-8 c -1.99872,-4.4 -3.8832,-8 -4.18773,-8 -0.30454,0 -4.58372,8.1 -9.5093,18 l -8.95559,18 h -5.77221 c -3.17471,0 -5.74788,-0.3375 -5.71816,-0.75 z m 46.59833,-2 c -0.76945,-1.5125 -1.71133,-3.7625 -2.09307,-5 -0.66213,-2.14645 -0.43864,-2.25 4.85647,-2.25 h 5.55054 l 2.53369,5 2.53369,5 h -5.99116 c -5.53,0 -6.09886,-0.21168 -7.39016,-2.75 z M 205,176.33333 c 0,-24.56666 0.17172,-44.47916 0.38161,-44.25 0.20988,0.22917 9.15944,13.62215 19.8879,29.76218 l 19.5063,29.3455 10.46893,-15.3455 c 5.75791,-8.44003 14.80836,-21.8681 20.1121,-29.84016 L 285,131.51071 v 44.78845 44.78846 l -7.1001,-0.29381 -7.1001,-0.29381 0.11146,-20.25 C 270.97912,187.92054 270.64773,180 270.064,180 c -0.52729,0 -6.24417,7.88358 -12.70418,17.51906 -6.46001,9.63548 -12.10894,17.3979 -12.55317,17.24982 -0.44424,-0.14808 -6.43246,-8.55851 -13.30718,-18.68986 L 219,177.6584 V 199.3292 221 h -7 -7 z M 173,103.79604 V 23.592087 l 11.25,16.576982 c 6.1875,9.11734 22.275,33.055179 35.75,53.195197 13.475,20.140014 24.82052,36.509654 25.21228,36.376974 0.39175,-0.13268 16.70425,-24.06545 36.25,-53.183931 L 317,23.614617 V 103.80731 184 H 305.01134 293.02269 L 292.76134,143.93973 292.5,103.87946 269.06838,138.93973 c -12.8874,19.28315 -23.6874,35.05393 -24,35.04617 C 244.75577,173.97815 233.925,158.21632 221,138.95962 L 197.5,103.94744 197.23866,143.97372 196.97731,184 H 184.98866 173 Z M 71,180.50896 c -3.575,-0.71671 -9.577748,-2.53839 -13.33944,-4.04818 -7.30722,-2.93282 -19.926619,-10.7609 -23.065548,-14.30805 -1.047743,-1.184 -2.397743,-2.17836 -3,-2.20968 -1.082343,-0.0563 -5.944048,-5.84762 -12.441957,-14.82102 C 14.246968,138.34687 9.3208144,127.60665 6.9424943,118.5 4.0335515,107.36158 4.0236596,88.709696 6.9207504,77.5 14.368163,48.683772 38.571967,24.016793 67,16.271046 c 9.165711,-2.497369 33.85491,-2.494081 43,0.0057 12.4155,3.39377 29.07929,12.744043 36,20.200066 l 2.5,2.693375 -9.75307,9.414894 C 133.38274,53.763298 128.69931,58 128.3393,58 127.97929,58 125.39318,56.251326 122.59237,54.114057 112.0493,46.068732 101.9306,42.672998 88.5,42.672998 c -15.68853,0 -28.313147,5.220568 -39.191641,16.206639 C 30.298721,78.077261 27.814585,108.57106 43.472762,130.51403 54.190209,145.53319 69.831938,153.34419 89,153.24895 c 14.58164,-0.0725 26.29444,-4.54433 37.2483,-14.22119 l 4.7483,-4.19474 14.00379,4.66711 14.00378,4.66711 -3.25208,4.5356 c -6.04124,8.42556 -19.70291,19.7265 -30.25209,25.02454 -5.85146,2.93874 -15.15789,5.99827 -21.93366,7.21079 C 95.687538,182.34808 79.082006,182.12923 71,180.50896 Z M 327.6351,180.75 c 0.41423,-0.6875 14.64673,-18.95201 31.62778,-40.58781 16.98106,-21.6358 30.92837,-40.0858 30.99402,-41 C 390.32256,98.247985 376.42476,79.725 359.37291,58 342.32106,36.275 328.03484,17.9375 327.62575,17.25 327.04197,16.268907 330.72173,16 344.73086,16 h 17.8489 l 23.33171,30.078414 c 12.83244,16.543128 23.66555,29.705628 24.07358,29.25 C 410.39308,74.872786 420.95691,61.3375 433.46022,45.25 L 456.19352,16 h 18.02568 c 14.96629,0 17.83666,0.227772 16.91192,1.342009 -0.61257,0.738105 -0.78017,1.675605 -0.37244,2.083334 0.40772,0.407728 0.24567,0.591324 -0.36012,0.40799 C 489.28854,19.497407 428,97.255772 428,99 c 0,0.903906 59.35591,77.49876 62.46817,80.61103 0.84251,0.8425 1.53183,1.72468 1.53183,1.9604 C 492,181.80714 483.95969,182 474.13265,182 H 456.2653 l -22.78924,-29.25 c -12.53409,-16.0875 -23.11585,-29.62457 -23.51503,-30.08237 -0.39918,-0.45781 -11.21263,12.70469 -24.0299,29.25 L 362.627,182 h -17.87252 c -14.03302,0 -17.71072,-0.26853 -17.11938,-1.25 z M 425.59074,98.375864 C 424.80769,96.33528 411.76779,80 410.92191,80 410.49552,80 410.00115,79.262823 409.82332,78.361829 409.48371,76.641106 393,96.862648 393,99 c 0,0.622464 3.66212,5.82302 8.13805,11.55679 l 8.13805,10.42504 8.39846,-10.67458 c 4.61915,-5.87103 8.18143,-11.240149 7.91618,-11.931386 z M 88,98 V 84 h 35.7366 35.73661 L 145.5,98 131.52679,112 H 109.7634 88 Z"
       id="path29"
       inkscape:connector-curvature="0" />
    <path
       style="fill:#72c7c4"
       d="m 143,273 v -15 h 16.06574 c 16.62742,0 19.00392,-0.46829 22.16202,-4.36704 3.5367,-4.36612 1.55479,-11.72017 -3.91202,-14.51592 C 176.10352,238.4971 170.30156,238 164.27815,238 h -10.85333 l -4.92482,-5 -4.92482,-5 h 16.74453 c 17.84342,0 21.64985,0.76056 26.51396,5.29773 3.813,3.55671 6.16633,9.15251 6.16633,14.66243 V 253 h 17.27749 c 18.74923,0 20.88565,-0.52956 22.12946,-5.4853 0.73097,-2.9124 -1.51042,-7.95669 -3.95175,-8.89352 C 227.56487,238.27953 221.34381,238 214.63062,238 h -12.2058 l -4.96241,-5.05403 -4.96241,-5.05402 19.58107,0.30402 19.58107,0.30403 3.77777,2.88391 c 4.17762,3.18915 7.50432,9.45434 7.53813,14.19661 0.0121,1.69429 -1.04184,5.18179 -2.34203,7.75 L 238.27202,258 l 2.36399,4.66948 c 1.30019,2.56821 2.35411,6.05571 2.34203,7.75 -0.0338,4.7418 -3.36032,11.00726 -7.53739,14.19661 -3.69781,2.82341 -4.07772,2.8907 -18.10885,3.20768 L 203,288.14755 V 283.07377 278 h 12.27749 c 13.382,0 15.95993,-0.82552 17.12946,-5.4853 0.73097,-2.9124 -1.51042,-7.95669 -3.95175,-8.89352 C 227.56487,263.27953 219.22323,263 209.91821,263 H 193 l -0.0304,-4.75 c -0.0283,-4.4188 -1.15468,-4.57348 -2.1464,-0.29476 -0.48974,2.11299 -6.14575,6.86376 -10.17684,8.54806 -2.4779,1.03533 -7.13698,1.4967 -15.11423,1.4967 H 154 v 10 10 h -5.5 -5.5 z m 142,10 c 0,-3.84314 0.35758,-5 1.54545,-5 2.44712,0 6.45455,-4.65652 6.45455,-7.5 0,-1.425 -1.10455,-3.69545 -2.45455,-5.04545 C 288.25167,263.16076 287.40451,263 277.61055,263 c -11.15232,0 -14.68225,-0.82398 -18.49247,-4.31661 -3.06301,-2.80771 -6.07416,-9.34313 -6.07416,-13.18339 0,-7.56166 7.04831,-15.9916 14.36312,-17.17863 L 271,227.73832 v 4.9116 c 0,4.53551 -0.22898,4.99804 -2.99034,6.04033 -5.26449,1.98713 -6.25956,9.62045 -1.67289,12.83308 1.52823,1.07041 4.94461,1.47667 12.41785,1.47667 11.4263,0 15.18961,1.08974 19.43176,5.62684 8.33587,8.91545 5.32511,23.19159 -5.90426,27.99632 C 290.51228,287.38042 288.14978,288 287.03212,288 285.26024,288 285,287.35968 285,283 Z m 32.74433,-24.5 c 8.10694,-16.225 14.97381,-29.5 15.25969,-29.5 0.28589,0 4.90045,8.775 10.25458,19.5 l 9.73479,19.5 h -5.77384 -5.77384 l -4.34109,-8.75 -4.34109,-8.75 -9.38694,18.75 -9.38695,18.75 h -5.49261 -5.49261 z m 31.45494,24.97325 c -1.2096,-2.48971 -2.19927,-4.73971 -2.19927,-5 0,-0.26029 2.3625,-0.47279 5.25,-0.47223 l 5.25,0.001 2.80769,4.99899 2.80768,4.99898 h -5.85842 -5.85842 l -2.19926,-4.52675 z M 205.0318,176.75 c 0.0283,-39.39842 0.19486,-44.03072 1.51899,-42.25 0.81795,1.1 2.15364,2.79264 2.9682,3.76143 0.81455,0.96879 1.48101,2.00423 1.48101,2.30099 0,0.87251 33.41595,50.44035 33.98309,50.40909 0.2843,-0.0157 9.27385,-13.06566 19.97678,-29 C 275.6628,146.03718 284.5503,133 284.70987,133 284.86944,133 285,152.8 285,177 v 44 h -6.5 -6.5 v -22.05902 c 0,-12.13246 -0.36123,-21.83576 -0.80274,-21.5629 -0.4415,0.27287 -6.404,8.83018 -13.25,19.01626 -6.84599,10.18607 -12.67226,18.53332 -12.94726,18.54945 -0.275,0.0161 -6.35,-8.62713 -13.5,-19.20723 L 218.5,176.5 218.23087,198.75 217.96174,221 H 211.48087 205 Z M 173,104.28571 c 0,-67.231887 0.2128,-79.48499 1.35896,-78.249996 0.74743,0.805357 16.78878,24.526786 35.64744,52.714286 18.85866,28.1875 34.62889,51.25 35.04494,51.25 0.41606,0 16.38415,-23.2875 35.48464,-51.75 19.10049,-28.4625 35.11873,-52.1775 35.59609,-52.7 C 316.62333,25.012291 317,59.189026 317,104.3 V 184 h -11.98866 -11.98865 l -0.26135,-40.19556 -0.26134,-40.19556 -23.64577,35.22152 -23.64578,35.22152 -3.44423,-4.77596 c -1.89433,-2.62678 -12.62874,-18.47823 -23.85423,-35.22545 L 197.5,103.60101 197.23866,143.80051 196.97731,184 H 184.98866 173 Z m -98.169144,76.69114 c -13.248597,-2.2357 -27.065985,-8.45944 -37.566931,-16.9212 -3.346106,-2.69633 -6.349351,-4.71189 -6.673878,-4.47903 -0.324526,0.23286 -0.377269,0.1356 -0.117206,-0.21613 0.260062,-0.35173 -1.693023,-3.0093 -4.340188,-5.90572 C 11.968864,137.95732 5.0539004,119.86472 5.0173636,98.207842 4.988733,81.237267 9.0347055,66.665932 17.41159,53.570752 22.551952,45.535073 35.229204,32.666015 43.271717,27.319363 73.528698,7.2045614 116.15716,10.336744 143.80415,34.706116 L 148.1083,38.5 l -9.93774,9.865268 -9.93775,9.865268 -5.10788,-4.037548 C 102.01558,37.507004 71.657507,38.291809 51.746462,56.038235 37.057797,69.13003 30.539895,88.486173 33.970749,108.82658 37.530604,129.93179 55.108327,147.9779 76.5,152.48908 c 17.909622,3.77687 36.1628,-0.9306 48.9603,-12.62679 l 5.51243,-5.03805 13.26363,4.42121 c 7.295,2.43167 13.26364,4.9402 13.26364,5.57451 0,2.14629 -8.80169,12.19995 -15.41965,17.61297 -9.12636,7.46472 -24.04961,15.31912 -32.58035,17.14767 -11.403851,2.44441 -25.17194,2.9989 -34.669144,1.39625 z M 328.1933,180.17834 c 0.71868,-1.00191 15.01146,-19.26877 31.76172,-40.59302 16.75025,-21.32425 30.55703,-39.46647 30.68172,-40.316037 C 390.81418,98.060291 367.6448,67.846246 327.74095,17.25 c -0.78108,-0.990379 2.72621,-1.24352 16.88661,-1.2188 l 17.87244,0.0312 23,29.908117 c 12.65,16.449465 23.27307,29.935425 23.60681,29.968801 0.33375,0.03338 11.13375,-13.437791 24,-29.935926 L 456.5,16.006785 l 17.18785,-0.0034 c 16.3669,-0.0032 17.18091,0.08883 17.04242,1.92733 -0.08,1.061897 -0.43712,1.750456 -0.79361,1.530132 -0.35649,-0.220325 -14.488,17.36085 -31.40336,39.069278 C 441.61795,80.238559 427.4179,98 426.97763,98 c -0.44027,0 -4.06885,-4.1625 -8.06351,-9.25 -3.99466,-5.0875 -7.80073,-9.850144 -8.45794,-10.583653 -0.96338,-1.075234 -2.87984,0.813997 -9.89055,9.75 L 391.86999,99 l 8.63283,11.0036 c 6.83314,8.70967 8.88448,10.74226 9.83993,9.75 0.66391,-0.68948 4.64247,-5.62488 8.84125,-10.96756 l 7.63415,-9.713952 3.42476,4.213952 c 1.88362,2.31768 15.47288,19.73896 30.19837,38.71396 14.72548,18.975 27.62525,35.24713 28.66616,36.16029 3.94187,3.4581 2.41381,3.83981 -15.35744,3.83632 l -17.25,-0.003 -23.39319,-29.99661 c -12.86625,-16.49814 -23.66625,-29.9693 -24,-29.93593 -0.33374,0.0334 -10.95681,13.51934 -23.60681,29.9688 l -23,29.90812 -17.8067,0.0312 c -17.04016,0.0299 -17.75046,-0.0472 -16.5,-1.79046 z M 89,98 V 84 h 34.7366 34.73661 L 144.5,98 130.52679,112 H 109.7634 89 Z"
       id="path27"
       inkscape:connector-curvature="0" />
    <path
       style="fill:#919ca3"
       d="m 143,273 v -15 h 16.06574 c 16.62742,0 19.00392,-0.46829 22.16202,-4.36704 3.5367,-4.36612 1.55479,-11.72017 -3.91202,-14.51592 C 176.10352,238.4971 170.30156,238 164.27815,238 h -10.85333 l -4.92482,-5 -4.92482,-5 h 16.74453 c 17.84342,0 21.64985,0.76056 26.51396,5.29773 3.813,3.55671 6.16633,9.15251 6.16633,14.66243 V 253 h 17.27749 c 18.74923,0 20.88565,-0.52956 22.12946,-5.4853 0.73097,-2.9124 -1.51042,-7.95669 -3.95175,-8.89352 C 227.56487,238.27953 221.34381,238 214.63062,238 h -12.2058 l -4.96241,-5.05403 -4.96241,-5.05402 19.58107,0.30402 19.58107,0.30403 3.77777,2.88391 c 4.17762,3.18915 7.50432,9.45434 7.53813,14.19661 0.0121,1.69429 -1.04184,5.18179 -2.34203,7.75 L 238.27202,258 l 2.36399,4.66948 c 1.30019,2.56821 2.35411,6.05571 2.34203,7.75 -0.0338,4.7418 -3.36032,11.00726 -7.53739,14.19661 -3.69781,2.82341 -4.07772,2.8907 -18.10885,3.20768 L 203,288.14755 V 283.07377 278 h 12.27749 c 13.382,0 15.95993,-0.82552 17.12946,-5.4853 0.73097,-2.9124 -1.51042,-7.95669 -3.95175,-8.89352 C 227.56487,263.27953 219.22323,263 209.91821,263 H 193 l -0.0304,-4.75 c -0.0283,-4.4188 -1.15468,-4.57348 -2.1464,-0.29476 -0.48974,2.11299 -6.14575,6.86376 -10.17684,8.54806 -2.4779,1.03533 -7.13698,1.4967 -15.11423,1.4967 H 154 v 10 10 h -5.5 -5.5 z m 142,10 c 0,-3.84314 0.35758,-5 1.54545,-5 2.44712,0 6.45455,-4.65652 6.45455,-7.5 0,-1.425 -1.10455,-3.69545 -2.45455,-5.04545 C 288.25167,263.16076 287.40451,263 277.61055,263 c -11.15232,0 -14.68225,-0.82398 -18.49247,-4.31661 -3.06301,-2.80771 -6.07416,-9.34313 -6.07416,-13.18339 0,-7.56166 7.04831,-15.9916 14.36312,-17.17863 L 271,227.73832 v 4.9116 c 0,4.53551 -0.22898,4.99804 -2.99034,6.04033 -5.26449,1.98713 -6.25956,9.62045 -1.67289,12.83308 1.52823,1.07041 4.94461,1.47667 12.41785,1.47667 11.4263,0 15.18961,1.08974 19.43176,5.62684 8.33587,8.91545 5.32511,23.19159 -5.90426,27.99632 C 290.51228,287.38042 288.14978,288 287.03212,288 285.26024,288 285,287.35968 285,283 Z m 32.74433,-24.5 c 8.10694,-16.225 14.97381,-29.5 15.25969,-29.5 0.28589,0 4.90045,8.775 10.25458,19.5 l 9.73479,19.5 h -5.77384 -5.77384 l -4.34109,-8.75 -4.34109,-8.75 -9.38694,18.75 -9.38695,18.75 h -5.49261 -5.49261 z m 31.45494,24.97325 c -1.2096,-2.48971 -2.19927,-4.73971 -2.19927,-5 0,-0.26029 2.3625,-0.47279 5.25,-0.47223 l 5.25,0.001 2.80769,4.99899 2.80768,4.99898 h -5.85842 -5.85842 l -2.19926,-4.52675 z M 205.01685,176.75 l 0.0168,-44.25 2.08136,3.25 c 1.14474,1.7875 2.56216,3.25 3.14982,3.25 0.58765,0 0.80231,0.26615 0.47702,0.59145 -0.73382,0.73381 33.03271,50.90855 34.26037,50.90855 0.48886,0 9.51626,-12.825 20.0609,-28.5 10.54464,-15.675 19.34415,-28.6875 19.55446,-28.91667 0.21031,-0.22916 0.38238,19.45834 0.38238,43.75 L 285,221 h -6.5 -6.5 v -22.55902 c 0,-15.74455 -0.32267,-22.3596 -1.06817,-21.89885 -0.5875,0.3631 -0.81765,1.31303 -0.51146,2.11096 0.3062,0.79793 0.17125,1.21255 -0.29989,0.92137 -0.47113,-0.29117 -5.93173,7.10992 -12.13466,16.44689 -6.20293,9.33696 -11.77481,17.37745 -12.38194,17.86775 -0.74467,0.60137 -5.33417,-5.4239 -14.10388,-18.51613 l -13,-19.40758 -0.26877,22.5173 L 217.96245,221 H 211.48123 205 l 0.0169,-44.25 z M 173,104.28571 c 0,-67.231887 0.2128,-79.48499 1.35896,-78.249996 0.74743,0.805357 16.78878,24.526786 35.64744,52.714286 18.85866,28.1875 34.62889,51.25 35.04494,51.25 0.41606,0 16.38415,-23.2875 35.48464,-51.75 19.10049,-28.4625 35.11873,-52.1775 35.59609,-52.7 C 316.62333,25.012291 317,59.189026 317,104.3 V 184 h -11.98866 -11.98865 l -0.26135,-40.19556 -0.26134,-40.19556 -23.64577,35.22152 -23.64578,35.22152 -3.44423,-4.77596 c -1.89433,-2.62678 -12.62874,-18.47823 -23.85423,-35.22545 L 197.5,103.60101 197.23866,143.80051 196.97731,184 H 184.98866 173 Z m -97.471798,76.6006 c -13.300811,-1.93728 -28.909056,-8.99546 -39.498782,-17.86168 -2.610642,-2.18575 -5.035251,-3.76047 -5.388021,-3.49936 -0.352769,0.2611 -0.407246,0.16558 -0.121059,-0.21228 0.286188,-0.37785 -1.009723,-2.29035 -2.879801,-4.25 -9.186847,-9.62685 -16.135973,-21.79399 -19.8593568,-34.7715 -3.2249423,-11.24024 -3.2249423,-33.342738 0,-44.582977 C 15.854966,47.568083 39.229307,24.259662 66.856474,16.799823 77.018026,14.056018 98.214772,13.827296 108.5,16.35047 c 9.64883,2.367053 23.68713,9.391047 32.40985,16.216104 l 7.29973,5.711648 -10.01536,10.015361 -10.01536,10.015361 -4.13509,-3.539483 C 107.58406,40.680566 82.167327,37.981808 62.593068,48.244604 59.198883,50.024178 53.35034,54.553271 49.389246,58.469602 38.025122,69.705304 33,81.825757 33,98 c 0,16.26117 4.618378,27.55424 16,39.12393 8.520204,8.66099 16.482535,13.23425 26.878001,15.43772 18.458139,3.91246 37.143139,-0.84811 49.611309,-12.63999 l 5.16725,-4.88696 13.67172,4.57017 c 7.51945,2.5136 13.67172,5.02789 13.67172,5.58731 0,0.55942 -4.6125,5.58253 -10.25,11.16247 -10.50801,10.40073 -17.32399,15.14401 -27.47121,19.1174 -9.42197,3.6894 -9.71549,3.795 -11.27879,4.0578 -15.728938,2.64416 -22.693155,2.92639 -33.471798,1.35646 z m 256.646388,-5.6295 c 47.02293,-59.9547 58.28291,-74.57925 58.05505,-75.402349 -0.7282,-2.630474 3.42555,1.639239 10.721,11.020289 4.42715,5.69277 8.04936,10.44923 8.04936,10.56991 0,0.12068 -10.47974,13.6825 -23.2883,30.13738 L 362.4234,181.5 l -17.78711,0.27338 -17.78711,0.27338 z M 433.5,152.3617 c -12.65,-16.25645 -23.15204,-30.22218 -23.33787,-31.03495 -0.18582,-0.81277 0.30133,-2.00629 1.08257,-2.65226 0.78124,-0.64597 4.49342,-5.11199 8.24929,-9.92449 3.75587,-4.8125 7.11606,-8.75 7.46709,-8.75 0.35103,0 14.4896,17.775 31.41904,39.5 16.92945,21.725 31.1196,39.5 31.53368,39.5 0.41408,0 0.75287,0.675 0.75287,1.5 0,1.27638 -2.54679,1.49395 -17.08334,1.45944 L 456.5,181.91888 Z M 89,98 V 84 h 34.7366 34.73661 L 144.5,98 130.52679,112 H 109.7634 89 Z M 364.39334,63.803845 C 349.602,44.956851 335.10356,26.480331 332.17459,22.744911 l -5.32541,-6.791674 17.78711,0.273382 L 362.4234,16.5 385.7117,46.417961 C 398.52026,62.87284 409,76.43466 409,76.555339 c 0,0.619849 -16.21967,20.986589 -16.90732,21.230214 -0.4433,0.157054 -12.908,-15.134715 -27.69934,-33.981708 z M 419.00186,88.75 c -4.00133,-5.0875 -7.59625,-9.159966 -7.98873,-9.049924 -0.39247,0.110041 -0.66848,-0.847827 -0.61336,-2.128597 0.061,-1.416975 9.10494,-13.909847 23.10023,-31.909516 l 23,-29.580845 17.03571,-0.04056 c 16.16669,-0.03849 17.03572,0.05772 17.03572,1.886022 0,1.05962 -0.31517,1.731799 -0.70037,1.493732 -0.3852,-0.238067 -14.55392,17.344971 -31.48605,39.073419 C 441.45287,80.222179 427.30179,98 426.93816,98 c -0.36364,0 -3.93497,-4.1625 -7.9363,-9.25 z"
       id="path25"
       inkscape:connector-curvature="0" />
    <path
       style="fill:#5ba6ab"
       d="m 144,273 v -15 h 16.57692 16.57693 l 2.92307,-2.92308 c 4.1162,-4.11619 4.1162,-10.03765 0,-14.15384 C 177.17465,238.0208 177.06941,238 165.28933,238 h -11.86451 l -4.96241,-5.06929 -4.96241,-5.06928 18.16696,0.31928 18.16697,0.31929 4.25626,3 c 11.7118,8.25499 11.74981,24.87024 0.0755,32.98662 -4.21163,2.92807 -4.71416,3.02324 -17.75,3.36149 L 153,268.19623 V 278.09811 288 h -4.5 -4.5 z m 59,10 v -5 h 12.54545 c 11.98654,0 12.65481,-0.10935 15,-2.45455 1.35,-1.35 2.45455,-3.62045 2.45455,-5.04545 0,-1.425 -1.10455,-3.69545 -2.45455,-5.04545 -2.41953,-2.41954 -2.70482,-2.45455 -20,-2.45455 H 193 v -5 -5 h 17.54545 c 17.29518,0 17.58047,-0.035 20,-2.45455 1.35,-1.35 2.45455,-3.62045 2.45455,-5.04545 0,-1.425 -1.10455,-3.69545 -2.45455,-5.04545 C 228.20476,238.11385 227.51887,238 215.75786,238 h -12.33304 l -4.92482,-5 -4.92482,-5 17.46241,0.022 c 14.98882,0.0188 18.05506,0.29104 21.64627,1.9215 8.88731,4.03497 12.53188,16.11729 7.37744,24.45736 L 237.83688,258 l 2.22442,3.59918 c 3.2784,5.30457 3.07417,13.08662 -0.48458,18.46426 -4.2701,6.45255 -8.59256,7.88836 -23.82672,7.9146 L 203,288 Z m 83,0.10841 C 286,279.5328 286.39778,278 287.32569,278 289.55477,278 293,273.53134 293,270.64009 c 0,-1.56625 -1.04685,-3.77784 -2.45455,-5.18554 -2.28465,-2.28465 -3.16716,-2.45607 -12.75,-2.47651 -15.04391,-0.0321 -21.23085,-3.45386 -23.85314,-13.19227 -2.06968,-7.68621 2.11647,-16.54736 9.37383,-19.84231 C 270.1159,226.85627 271,227.20795 271,233 c 0,3.84314 -0.35758,5 -1.54545,5 -2.44712,0 -6.45455,4.65652 -6.45455,7.5 0,1.425 1.10455,3.69545 2.45455,5.04545 2.28465,2.28465 3.16716,2.45607 12.75,2.47651 11.56117,0.0247 16.84897,1.68804 20.62447,6.48781 8.11305,10.31406 2.8927,24.83152 -10.07902,28.02915 -2.72958,0.67286 -2.75,0.63997 -2.75,-4.43051 z M 317.60773,258.75 c 8.03791,-16.0875 14.76289,-29.41098 14.9444,-29.60774 C 332.87705,228.79005 352,266.49711 352,267.49 c 0,0.2805 -2.37471,0.51 -5.27714,0.51 h -5.27715 l -4.34109,-8.75 -4.34109,-8.75 -9.38694,18.75 -9.38695,18.75 h -5.49815 -5.49816 z m 31.59154,24.72325 c -1.2096,-2.48971 -2.19927,-4.73971 -2.19927,-5 0,-0.26029 2.38533,-0.47325 5.30073,-0.47325 5.29644,0 5.30252,0.004 7.5,4.52675 1.2096,2.48971 2.19927,4.73971 2.19927,5 0,0.26029 -2.38533,0.47325 -5.30073,0.47325 -5.29644,0 -5.30252,-0.004 -7.5,-4.52675 z M 205,176.83592 v -44.16408 l 10.1611,14.91408 c 5.58861,8.20274 14.43417,21.32658 19.65681,29.16408 5.22264,7.8375 9.81211,14.25 10.19882,14.25 0.38672,0 4.47865,-5.704 9.09319,-12.67555 4.61455,-6.97155 13.45258,-20.11333 19.64008,-29.20395 L 285,132.59209 V 176.79604 221 h -6.48123 -6.48122 L 271.76877,198.34548 271.5,175.69095 259.10041,194.34718 c -6.81978,10.26093 -12.89478,19.05609 -13.5,19.5448 -0.74003,0.59757 -5.35785,-5.46732 -14.10041,-18.51901 l -13,-19.40758 -0.26877,22.5173 L 217.96245,221 H 211.48123 205 Z M 173,104.3 c 0,-44.453843 0.3797,-79.279876 0.8586,-78.75 1.00575,1.112819 26.74987,39.427692 52.52824,78.17758 9.96224,14.97518 18.33816,27.2219 18.61316,27.21495 0.275,-0.007 12.425,-17.82703 27,-39.600176 14.575,-21.773143 30.6625,-45.700781 35.75,-53.17253 L 317,24.584827 V 104.29241 184 H 305 293 V 143.3283 102.65661 L 269.48303,137.5783 C 256.54869,156.78524 245.54025,172.5 245.01982,172.5 c -0.52043,0 -11.53779,-15.72065 -24.48303,-34.93478 L 197,102.63045 V 143.31522 184 H 185 173 Z M 75.528202,180.95578 C 44.189415,176.0267 16.713133,151.42298 7.7811822,120.29149 4.5562399,109.05125 4.5562399,86.948752 7.7811822,75.708513 15.854966,47.568083 39.229307,24.259662 66.856474,16.799823 77.018026,14.056018 98.214772,13.827296 108.5,16.35047 c 9.64883,2.367053 23.68713,9.391047 32.40985,16.216104 l 7.29973,5.711648 -10.01536,10.015361 -10.01536,10.015361 -4.13509,-3.539483 C 107.58406,40.680566 82.167327,37.981808 62.593068,48.244604 59.198883,50.024178 53.35034,54.553271 49.389246,58.469602 38.025122,69.705304 33,81.825757 33,98 c 0,16.26117 4.618378,27.55424 16,39.12393 8.520204,8.66099 16.482535,13.23425 26.878001,15.43772 18.458139,3.91246 37.143139,-0.84811 49.611309,-12.63999 l 5.16725,-4.88696 13.67172,4.57017 c 7.51945,2.5136 13.67172,4.94346 13.67172,5.39968 0,0.45622 -3.45215,4.49915 -7.67144,8.98428 -12.38435,13.16464 -23.1617,19.94305 -39.01116,24.53605 -9.98216,2.89271 -25.955102,3.97764 -35.789198,2.4309 z m 256.646388,-5.70069 c 47.52979,-60.61631 59.23929,-75.281133 59.91809,-75.04064 0.68765,0.24362 16.90732,20.61036 16.90732,21.23021 0,0.12068 -10.47974,13.6825 -23.2883,30.13738 L 362.4234,181.5 l -17.78711,0.27338 -17.78711,0.27338 z M 433.5,152.36145 C 420.85,136.10487 410.34942,122.39639 410.16539,121.89817 409.80532,120.92342 425.8277,100 426.9342,100 c 0.60055,0 61.46204,77.47339 63.36549,80.66086 0.65609,1.09867 -2.30686,1.33186 -16.5,1.29858 L 456.5,181.91888 Z M 89,98 V 84 h 34.7366 34.73661 L 144.5,98 130.52679,112 H 109.7634 89 Z M 364.39334,63.803845 C 349.602,44.956851 335.10356,26.480331 332.17459,22.744911 l -5.32541,-6.791674 17.78711,0.273382 L 362.4234,16.5 385.7117,46.417961 C 398.52026,62.87284 409,76.43466 409,76.555339 c 0,0.619849 -16.21967,20.986589 -16.90732,21.230214 -0.4433,0.157054 -12.908,-15.134715 -27.69934,-33.981708 z m 53.65659,23.699991 c -4.52054,-5.77289 -8.06858,-10.903795 -7.88454,-11.40201 C 410.34942,75.60361 420.85,61.895135 433.5,45.638548 l 23,-29.55743 17.29969,-0.04056 c 14.19314,-0.03328 17.15609,0.199914 16.5,1.298583 C 488.39624,20.526606 427.53475,98 426.9342,98 c -0.36582,0 -4.36374,-4.723274 -8.88427,-10.496164 z"
       id="path23"
       inkscape:connector-curvature="0" />
    <path
       style="fill:#4c7187"
       d="m 144,273 v -15 h 16.57692 16.57693 l 2.92307,-2.92308 c 4.1162,-4.11619 4.1162,-10.03765 0,-14.15384 C 177.17465,238.0208 177.06941,238 165.28933,238 h -11.86451 l -4.96241,-5.06929 -4.96241,-5.06928 18.16696,0.31928 18.16697,0.31929 4.25626,3 c 11.74195,8.27624 11.7413,24.72583 -0.001,33 -4.13757,2.91544 -4.6357,3.00981 -17.67323,3.34811 L 153,268.19623 V 278.09811 288 h -4.5 -4.5 z m 59,10.07558 V 278 h 12.54545 c 11.98654,0 12.65481,-0.10935 15,-2.45455 1.35,-1.35 2.45455,-3.62045 2.45455,-5.04545 0,-1.425 -1.10455,-3.69545 -2.45455,-5.04545 -2.41953,-2.41954 -2.70482,-2.45455 -20,-2.45455 H 193 v -5 -5 h 17.54545 c 17.29518,0 17.58047,-0.035 20,-2.45455 1.35,-1.35 2.45455,-3.62045 2.45455,-5.04545 0,-1.425 -1.10455,-3.69545 -2.45455,-5.04545 C 228.20476,238.11385 227.51887,238 215.75786,238 h -12.33304 l -4.96241,-5.05581 -4.96241,-5.0558 18.57712,0.3058 c 18.20205,0.29964 18.65822,0.35953 22.59371,2.96657 7.29905,4.8352 9.63602,14.80087 5.3839,22.95875 l -2.11194,4.05185 2.08555,3.3745 c 2.62318,4.24439 2.80843,11.88851 0.41057,16.94163 -0.96331,2.03004 -3.55862,4.88833 -5.76734,6.35175 -3.78291,2.50642 -4.81793,2.67965 -17.84371,2.98634 L 203,288.15117 Z m 83,0.0328 C 286,279.5328 286.39778,278 287.32569,278 289.4944,278 293,273.56444 293,270.82041 c 0,-1.40288 -0.93266,-3.73638 -2.07258,-5.18555 -2.00554,-2.54963 -2.41796,-2.63557 -12.75,-2.65682 -8.31962,-0.0171 -11.60131,-0.44142 -14.86128,-1.9215 -12.87228,-5.8442 -12.87228,-25.26888 0,-31.11308 C 269.54707,227.11452 270,227.32165 270,233 c 0,3.66478 -0.38118,5 -1.42742,5 -1.99383,0 -5.57258,4.81656 -5.57258,7.5 0,1.22666 0.93266,3.41597 2.07258,4.86514 2.00554,2.54963 2.41796,2.63557 12.75,2.65682 11.96907,0.0246 17.19115,1.63745 21.00644,6.48781 8.11305,10.31406 2.8927,24.83152 -10.07902,28.02915 -2.72958,0.67286 -2.75,0.63997 -2.75,-4.43051 z M 317.60773,258.75 c 8.03791,-16.0875 14.76289,-29.41098 14.9444,-29.60774 C 332.87705,228.79005 352,266.49711 352,267.49 c 0,0.2805 -2.41683,0.51 -5.37073,0.51 h -5.37072 l -3.78746,-8.5 c -2.0831,-4.675 -4.05942,-8.5 -4.39182,-8.5 -0.3324,0 -4.75965,8.325 -9.83834,18.5 l -9.23397,18.5 h -5.50681 -5.50682 z m 31.67677,24.25 -2.11244,-5 h 5.2147 c 5.1944,0 5.22327,0.0176 7.41397,4.52675 1.2096,2.48971 2.19927,4.73971 2.19927,5 0,0.26029 -2.38569,0.47325 -5.30153,0.47325 h -5.30153 z m -144.28387,-106.25 6.3e-4,-44.25 19.85156,29.78056 c 14.98502,22.47997 20.11104,29.46664 20.91001,28.5 0.58215,-0.70431 9.64866,-14.07855 20.14781,-29.72054 L 285,132.62004 V 176.81002 221 h -6.48123 -6.48122 L 271.76877,198.25 271.5,175.5 258.57053,194.75 c -7.11121,10.5875 -13.22028,19.25 -13.57572,19.25 -0.35543,0 -6.46217,-8.58364 -13.57052,-19.07477 L 218.5,175.85047 218.23123,198.42523 217.96245,221 H 211.48123 205 Z M 173,104.3 c 0,-45.708316 0.37386,-79.294829 0.87658,-78.75 0.48212,0.5225 8.65113,12.65 18.15336,26.95 9.50223,14.3 17.54527,26.225 17.87342,26.5 0.32815,0.275 1.04664,1.269944 1.59664,2.210987 2.82071,4.826202 33.07151,49.740073 33.5,49.738013 0.275,-0.001 9.725,-13.77037 21,-30.59787 11.275,-16.827507 27.3625,-40.755304 35.75,-53.172884 L 317,24.600827 V 104.30041 184 h -12 -12 v -40.69539 -40.6954 l -23.53837,34.9454 c -12.9461,19.21996 -23.87295,35.06267 -24.28188,35.20602 -0.40894,0.14335 -11.30418,-15.43448 -24.21164,-34.61739 L 197.5,103.26522 197.23878,143.63261 196.97757,184 H 184.98878 173 Z M 76.560838,180.91939 C 53.997873,177.8243 31.400279,163.03341 18.180124,142.70726 4.5795513,121.79621 1.348378,94.966763 9.5326002,70.904151 17.743841,46.762103 39.591687,25.310341 63.314568,18.097208 90.75243,9.7545047 122.50431,16.198589 142.274,34.122122 l 5.226,4.737984 -9.66565,9.729184 -9.66564,9.729184 -4.48621,-3.948915 C 114.71609,46.477006 101.98222,42 88.5,42 72.496975,42 59.344746,47.693783 48.167527,59.460487 37.19307,71.013736 33.032339,81.600054 33.011869,98.021642 c -0.02019,16.200658 4.731193,28.305338 15.368938,39.154038 10.7974,11.01152 21.420075,15.74757 37.125529,16.55217 15.862264,0.81264 27.062954,-2.86809 39.689404,-13.0426 l 6.1795,-4.9795 13.24736,4.33436 c 15.37236,5.02964 15.05973,4.01893 4.65481,15.0487 -6.88482,7.29827 -19.24324,16.13555 -27.71423,19.81794 -12.42461,5.40106 -31.186746,7.90781 -45.002342,6.01264 z M 328,181.43243 c 0,-0.81835 62.94964,-80.89061 63.7939,-81.14616 0.38835,-0.11755 4.38609,4.57779 8.88385,10.4341 6.84483,8.91229 7.98579,10.91408 7,12.2813 -0.64776,0.8984 -11.22427,14.54056 -23.50334,30.3159 L 361.84882,182 H 344.92441 C 335.61598,182 328,181.7446 328,181.43243 Z M 451.73409,175.25 C 441.12156,161.8631 411.33594,123.47246 410.63012,122.27116 409.91678,121.05705 425.32611,100.5 426.94954,100.5 c 0.43228,0 14.62842,17.775 31.54697,39.5 16.91855,21.725 31.20816,40.0625 31.75469,40.75 0.787,0.99 -2.55898,1.25 -16.08616,1.25 H 457.08519 Z M 89,98 V 84 h 34.7366 34.73661 L 144.5,98 130.52679,112 H 109.7634 89 Z M 359.74658,57.586592 C 342.28596,35.359217 328,16.909217 328,16.586592 328,16.263966 335.61598,16 344.92441,16 h 16.92441 l 22.32559,28.682435 c 12.27907,15.775339 22.85558,29.417493 23.50334,30.315899 0.98578,1.367204 -0.15524,3.369521 -7,12.283933 -4.49776,5.857759 -8.40429,10.665604 -8.68117,10.684101 -0.27689,0.0185 -14.78939,-18.152402 -32.25,-40.379776 z m 58.46357,29.882171 c -5.02835,-6.387619 -8.0054,-11.01037 -7.56684,-11.74977 2.01505,-3.397321 45.86684,-58.977525 46.82115,-59.343727 0.61177,-0.234761 8.38787,-0.302734 17.28022,-0.151052 L 490.91259,16.5 459.3462,57 c -17.36152,22.275 -31.85435,40.612397 -32.2063,40.74977 -0.35194,0.137374 -4.37033,-4.48908 -8.92975,-10.281007 z"
       id="path21"
       inkscape:connector-curvature="0" />
    <path
       style="fill:#019c96"
       d="m 144,273 v -15 h 16.48422 16.48423 l 3.24305,-2.89766 c 2.68376,-2.39795 3.24305,-3.62279 3.24305,-7.10234 0,-3.47955 -0.55929,-4.70439 -3.24305,-7.10234 C 177.02224,238.04806 176.77292,238 165.18039,238 h -11.78806 l -2.99833,-3.25 c -6.95403,-7.53773 -7.85512,-7.00617 11.14646,-6.57546 18.34946,0.41592 20.37753,0.92864 25.65649,6.48618 C 190.49482,238.13262 193,243.89121 193,248 c 0,4.10879 -2.50518,9.86738 -5.80305,13.33928 -4.91086,5.17002 -7.69832,6.01103 -21.44695,6.47082 L 153,268.23649 V 278.11824 288 h -4.5 -4.5 z m 59,10 v -5 h 12.82569 c 12.11357,0 12.94641,-0.1285 15,-2.31445 2.73659,-2.91298 2.77445,-6.65288 0.10173,-10.05069 L 228.85484,263 H 210.92742 193 v -5 -5 h 17.82569 c 17.34001,0 17.88492,-0.0631 20,-2.31445 2.88825,-3.0744 2.82625,-7.72446 -0.14014,-10.51124 C 228.56463,238.18181 227.32812,238 215.89796,238 h -12.47314 l -4.92482,-5 -4.92482,-5 15.96241,0.006 c 8.77933,0.003 17.63594,0.47036 19.68136,1.03843 4.42862,1.22995 9.29109,5.10784 11.31697,9.02545 2.34487,4.53447 1.88173,12.036 -1.00578,16.29099 L 237.06027,258 l 2.46987,3.63955 c 2.88751,4.25499 3.35065,11.75652 1.00578,16.29099 -2.02588,3.91761 -6.88835,7.7955 -11.31697,9.02545 -2.04542,0.56807 -8.78145,1.03537 -14.96895,1.03843 L 203,288 Z m 83,-0.10531 C 286,279.21052 286.37097,278 287.5,278 c 5.05576,0 7.34521,-8.95796 3.25,-12.71627 -1.93686,-1.77753 -3.87309,-2.12342 -13.91229,-2.48531 -10.30831,-0.3716 -12.07262,-0.70158 -15.19671,-2.84224 -6.85258,-4.69546 -9.788,-14.94581 -6.23028,-21.75584 2.22644,-4.26173 7.04352,-8.28787 10.97764,-9.17516 L 270,228.21062 v 4.89469 C 270,236.50343 269.59467,238 268.67431,238 266.34718,238 263,242.49838 263,245.62589 c 0,5.88024 2.41659,7.03436 15.89114,7.58931 10.81713,0.4455 12.47853,0.76366 15.93619,3.05184 12.32129,8.15384 8.84561,27.53644 -5.51877,30.77614 L 286,287.78938 Z m 18,4.60989 C 304,286.50551 332.50047,230 333.00439,230 333.50821,230 352,266.51216 352,267.50697 352,267.77814 349.75452,268 347.01004,268 h -4.98997 l -4.64199,-9.24276 -4.64199,-9.24276 -9.60602,19.24276 L 313.52405,288 h -4.76203 C 306.14291,288 304,287.77706 304,287.50458 Z M 349.5,283 l -2.53369,-5 h 4.92182 c 4.76407,0 5.005,0.14193 7.51685,4.42807 1.42726,2.43544 2.59502,4.68544 2.59502,5 0,0.31456 -2.24242,0.57193 -4.98315,0.57193 -4.9753,0 -4.98716,-0.008 -7.51685,-5 z m -144.49937,-106.25 6.3e-4,-44.25 19.85156,29.78056 c 14.98502,22.47997 20.11104,29.46664 20.91001,28.5 0.58215,-0.70431 9.64866,-14.07855 20.14781,-29.72054 L 285,132.62004 V 176.81002 221 h -6.48123 -6.48122 L 271.76877,198.25 271.5,175.5 258.57053,194.75 c -7.11121,10.5875 -13.22028,19.25 -13.57572,19.25 -0.35543,0 -6.46217,-8.58364 -13.57052,-19.07477 L 218.5,175.85047 218.23123,198.42523 217.96245,221 H 211.48123 205 Z M 174,105.3 c 0,-44.538448 0.3767,-78.287631 0.86782,-77.75 0.4773,0.5225 16.25167,23.9 35.05415,51.95 18.80247,28.05 34.60344,51 35.11326,51 0.50982,0 16.50273,-23.175 35.53982,-51.5 C 299.61213,50.675 315.59564,27.0725 316.09396,26.55 316.63572,25.98196 317,57.443426 317,104.8 V 184 H 305.01122 293.02243 L 292.76122,143.44137 292.5,102.88274 269,137.90971 c -12.925,19.26484 -23.725,35.02252 -24,35.01706 -0.275,-0.005 -11.075,-15.7775 -24,-35.049 l -23.5,-35.0391 -0.26122,40.58067 L 196.97757,184 H 185.48878 174 Z M 76.560838,180.91939 C 53.997873,177.8243 31.400279,163.03341 18.180124,142.70726 4.5795513,121.79621 1.348378,94.966763 9.5326002,70.904151 17.743841,46.762103 39.591687,25.310341 63.314568,18.097208 90.75243,9.7545047 122.50431,16.198589 142.274,34.122122 l 5.226,4.737984 -9.66565,9.729184 -9.66564,9.729184 -4.48621,-3.948915 C 114.71609,46.477006 101.98222,42 88.5,42 72.496975,42 59.344746,47.693783 48.167527,59.460487 37.19307,71.013736 33.032339,81.600054 33.011869,98.021642 c -0.02019,16.200658 4.731193,28.305338 15.368938,39.154038 10.7974,11.01152 21.420075,15.74757 37.125529,16.55217 15.862264,0.81264 27.062954,-2.86809 39.689404,-13.0426 l 6.1795,-4.9795 13.24736,4.33436 c 15.37236,5.02964 15.05973,4.01893 4.65481,15.0487 -6.88482,7.29827 -19.24324,16.13555 -27.71423,19.81794 -12.42461,5.40106 -31.186746,7.90781 -45.002342,6.01264 z M 328,181.43243 c 0,-0.81835 62.94964,-80.89061 63.7939,-81.14616 0.38835,-0.11755 4.38609,4.57779 8.88385,10.4341 6.84483,8.91229 7.98579,10.91408 7,12.2813 -0.64776,0.8984 -11.22427,14.54056 -23.50334,30.3159 L 361.84882,182 H 344.92441 C 335.61598,182 328,181.7446 328,181.43243 Z M 451.73409,175.25 C 441.12156,161.8631 411.33594,123.47246 410.63012,122.27116 409.91678,121.05705 425.32611,100.5 426.94954,100.5 c 0.43228,0 14.62842,17.775 31.54697,39.5 16.91855,21.725 31.20816,40.0625 31.75469,40.75 0.787,0.99 -2.55898,1.25 -16.08616,1.25 H 457.08519 Z M 89,98 V 84 h 34.7366 34.73661 L 144.5,98 130.52679,112 H 109.7634 89 Z M 359.74658,57.586592 C 342.28596,35.359217 328,16.909217 328,16.586592 328,16.263966 335.61598,16 344.92441,16 h 16.92441 l 22.32559,28.682435 c 12.27907,15.775339 22.85558,29.417493 23.50334,30.315899 0.98578,1.367204 -0.15524,3.369521 -7,12.283933 -4.49776,5.857759 -8.40429,10.665604 -8.68117,10.684101 -0.27689,0.0185 -14.78939,-18.152402 -32.25,-40.379776 z m 58.46357,29.882171 c -5.02835,-6.387619 -8.0054,-11.01037 -7.56684,-11.74977 2.01505,-3.397321 45.86684,-58.977525 46.82115,-59.343727 0.61177,-0.234761 8.38787,-0.302734 17.28022,-0.151052 L 490.91259,16.5 459.3462,57 c -17.36152,22.275 -31.85435,40.612397 -32.2063,40.74977 -0.35194,0.137374 -4.37033,-4.48908 -8.92975,-10.281007 z"
       id="path19"
       inkscape:connector-curvature="0" />
    <path
       style="fill:#1d4c68"
       d="m 144,273 v -15 h 16.48422 16.48423 l 3.24305,-2.89766 c 2.68376,-2.39795 3.24305,-3.62279 3.24305,-7.10234 0,-3.47955 -0.55929,-4.70439 -3.24305,-7.10234 C 177.02224,238.04806 176.77292,238 165.18039,238 h -11.78806 l -2.99833,-3.25 c -6.95403,-7.53773 -7.85512,-7.00617 11.14646,-6.57546 18.34946,0.41592 20.37753,0.92864 25.65649,6.48618 C 190.49482,238.13262 193,243.89121 193,248 c 0,4.10879 -2.50518,9.86738 -5.80305,13.33928 -4.91086,5.17002 -7.69832,6.01103 -21.44695,6.47082 L 153,268.23649 V 278.11824 288 h -4.5 -4.5 z m 59,10 v -5 h 12.82569 c 12.11357,0 12.94641,-0.1285 15,-2.31445 2.73659,-2.91298 2.77445,-6.65288 0.10173,-10.05069 L 228.85484,263 H 210.92742 193 v -5 -5 h 17.82569 c 17.34001,0 17.88492,-0.0631 20,-2.31445 2.88825,-3.0744 2.82625,-7.72446 -0.14014,-10.51124 C 228.56463,238.18181 227.32812,238 215.89796,238 h -12.47314 l -4.92482,-5 -4.92482,-5 15.96241,0.006 c 8.77933,0.003 17.63594,0.47036 19.68136,1.03843 4.42862,1.22995 9.29109,5.10784 11.31697,9.02545 2.34487,4.53447 1.88173,12.036 -1.00578,16.29099 L 237.06027,258 l 2.46987,3.63955 c 2.88751,4.25499 3.35065,11.75652 1.00578,16.29099 -2.02588,3.91761 -6.88835,7.7955 -11.31697,9.02545 -2.04542,0.56807 -8.78145,1.03537 -14.96895,1.03843 L 203,288 Z m 83,-0.10531 C 286,279.21052 286.37097,278 287.5,278 c 5.05576,0 7.34521,-8.95796 3.25,-12.71627 -1.93686,-1.77753 -3.87309,-2.12342 -13.91229,-2.48531 -10.30831,-0.3716 -12.07262,-0.70158 -15.19671,-2.84224 -6.85258,-4.69546 -9.788,-14.94581 -6.23028,-21.75584 2.22644,-4.26173 7.04352,-8.28787 10.97764,-9.17516 L 270,228.21062 v 4.89469 C 270,236.50343 269.59467,238 268.67431,238 266.34718,238 263,242.49838 263,245.62589 c 0,5.88024 2.41659,7.03436 15.89114,7.58931 10.81713,0.4455 12.47853,0.76366 15.93619,3.05184 12.32129,8.15384 8.84561,27.53644 -5.51877,30.77614 L 286,287.78938 Z m 18,4.60989 C 304,286.50551 332.50047,230 333.00439,230 333.50821,230 352,266.51216 352,267.50697 352,267.77814 349.75452,268 347.01004,268 h -4.98997 l -4.64199,-9.24276 -4.64199,-9.24276 -9.60602,19.24276 L 313.52405,288 h -4.76203 C 306.14291,288 304,287.77706 304,287.50458 Z M 349.5,283 l -2.53369,-5 h 4.92182 c 4.76407,0 5.005,0.14193 7.51685,4.42807 1.42726,2.43544 2.59502,4.68544 2.59502,5 0,0.31456 -2.24242,0.57193 -4.98315,0.57193 -4.9753,0 -4.98716,-0.008 -7.51685,-5 z M 174,105.3 c 0,-44.538448 0.3767,-78.287631 0.86782,-77.75 0.4773,0.5225 16.25167,23.9 35.05415,51.95 18.80247,28.05 34.60344,51 35.11326,51 0.50982,0 16.50273,-23.175 35.53982,-51.5 C 299.61213,50.675 315.59564,27.0725 316.09396,26.55 316.63572,25.98196 317,57.443426 317,104.8 V 184 H 305.01122 293.02243 L 292.76122,143.44137 292.5,102.88274 269,137.90971 c -12.925,19.26484 -23.725,35.02252 -24,35.01706 -0.275,-0.005 -11.075,-15.7775 -24,-35.049 l -23.5,-35.0391 -0.26122,40.58067 L 196.97757,184 H 185.48878 174 Z"
       id="path17"
       inkscape:connector-curvature="0" />
  </g>
</svg>
