<?xml version="1.0" encoding="UTF-8" standalone="no"?>
<svg
   xmlns:dc="http://purl.org/dc/elements/1.1/"
   xmlns:cc="http://creativecommons.org/ns#"
   xmlns:rdf="http://www.w3.org/1999/02/22-rdf-syntax-ns#"
   xmlns:svg="http://www.w3.org/2000/svg"
   xmlns="http://www.w3.org/2000/svg"
   xmlns:sodipodi="http://sodipodi.sourceforge.net/DTD/sodipodi-0.dtd"
   xmlns:inkscape="http://www.inkscape.org/namespaces/inkscape"
   viewBox="0 0 512 512"
   version="1.1"
   id="svg4"
   sodipodi:docname="bar_plot.svg"
   inkscape:version="0.92.5 (2060ec1f9f, 2020-04-08)">
  <metadata
     id="metadata10">
    <rdf:RDF>
      <cc:Work
         rdf:about="">
        <dc:format>image/svg+xml</dc:format>
        <dc:type
           rdf:resource="http://purl.org/dc/dcmitype/StillImage" />
      </cc:Work>
    </rdf:RDF>
  </metadata>
  <defs
     id="defs8" />
  <sodipodi:namedview
     pagecolor="#ffffff"
     bordercolor="#666666"
     borderopacity="1"
     objecttolerance="10"
     gridtolerance="10"
     guidetolerance="10"
     inkscape:pageopacity="0"
     inkscape:pageshadow="2"
     inkscape:window-width="1920"
     inkscape:window-height="1023"
     id="namedview6"
     showgrid="false"
     inkscape:zoom="0.921875"
     inkscape:cx="383.13873"
     inkscape:cy="257.85283"
     inkscape:window-x="0"
     inkscape:window-y="0"
     inkscape:window-maximized="1"
     inkscape:current-layer="svg4" />
  <!--! Font Awesome Pro 6.0.0 by @fontawesome - https://fontawesome.com License - https://fontawesome.com/license (Commercial License) Copyright 2022 Fonticons, Inc. -->
  <path
     inkscape:connector-curvature="0"
     d="m 468,350 c 0,17.7 -20.3,32 -38,32 -17.7,0 -38,-14.3 -38,-32 V 106 c 0,-17.67 20.3,-32 38,-32 17.7,0 38,14.33 38,32 z"
     id="path4534"
     style="display:inline;fill:#ffdd55"
     inkscape:label="bar4"
     sodipodi:nodetypes="sssssss" />
  <path
     inkscape:connector-curvature="0"
     d="m 328,198 c 17.7,0 38,14.3 38,32 v 120 c 0,17.7 -20.3,32 -38,32 -17.7,0 -38,-14.3 -38,-32 V 230 c 0,-17.7 20.3,-32 38,-32 z"
     id="path4528"
     style="display:inline;fill:#00ff66"
     inkscape:label="bar3"
     sodipodi:nodetypes="sssssss" />
  <path
     inkscape:connector-curvature="0"
     d="m 266,350 c 0,17.7 -20.3,32 -38,32 -17.7,0 -38,-14.3 -38,-32 V 170 c 0,-17.7 20.3,-32 38,-32 17.7,0 38,14.3 38,32 z"
     id="path4530"
     style="display:inline;fill:#ff2a2a"
     inkscape:label="bar2"
     sodipodi:nodetypes="sssssss" />
  <path
     inkscape:connector-curvature="0"
     d="m 128,242 c 17.7,0 38,14.3 38,32 v 76 c 0,17.7 -20.3,32 -38,32 -17.7,0 -38,-14.3 -38,-32 v -76 c 0,-17.7 20.3,-32 38,-32 z"
     id="path4532"
     style="display:inline;fill:#00ccff"
     inkscape:label="bar1"
     sodipodi:nodetypes="sssssss" />
  <path
     style="display:inline;fill:#000000"
     id="path4524"
     d="m 26,32 c 17.67,0 24,14.33 24,32 v 336 c 0,21.81695 10.312924,30.09844 30,30 l 400,-2 c 17.69978,-0.0885 32,8.3 32,26 0,17.7 -14.3,26 -32,26 H 80 C 17.379322,480 0,458.30169 0,400 V 64 C 0,46.33 8.33,32 26,32 Z"
     inkscape:connector-curvature="0"
     inkscape:label="axes"
     sodipodi:nodetypes="sssssssssss" />
  <path
     inkscape:connector-curvature="0"
     d="m 32,32 c 17.67,0 32,14.33 32,32 v 336 c 0,8.8 7.16,16 16,16 h 400 c 17.7,0 32,14.3 32,32 0,17.7 -14.3,32 -32,32 H 80 C 35.82,480 0,444.2 0,400 V 64 C 0,46.33 14.33,32 32,32 Z m 128,192 c 17.7,0 32,14.3 32,32 v 64 c 0,17.7 -14.3,32 -32,32 -17.7,0 -32,-14.3 -32,-32 v -64 c 0,-17.7 14.3,-32 32,-32 z m 128,96 c 0,17.7 -14.3,32 -32,32 -17.7,0 -32,-14.3 -32,-32 V 160 c 0,-17.7 14.3,-32 32,-32 17.7,0 32,14.3 32,32 z m 64,-128 c 17.7,0 32,14.3 32,32 v 96 c 0,17.7 -14.3,32 -32,32 -17.7,0 -32,-14.3 -32,-32 v -96 c 0,-17.7 14.3,-32 32,-32 z m 128,128 c 0,17.7 -14.3,32 -32,32 -17.7,0 -32,-14.3 -32,-32 V 96 c 0,-17.67 14.3,-32 32,-32 17.7,0 32,14.33 32,32 z"
     id="path4536"
     style="display:none;fill:#000000"
     inkscape:label="origin" />
</svg>
