<?xml version="1.0" encoding="UTF-8" standalone="no"?>
<!-- Created with Inkscape (http://www.inkscape.org/) -->

<svg
   xmlns:dc="http://purl.org/dc/elements/1.1/"
   xmlns:cc="http://creativecommons.org/ns#"
   xmlns:rdf="http://www.w3.org/1999/02/22-rdf-syntax-ns#"
   xmlns:svg="http://www.w3.org/2000/svg"
   xmlns="http://www.w3.org/2000/svg"
   xmlns:sodipodi="http://sodipodi.sourceforge.net/DTD/sodipodi-0.dtd"
   xmlns:inkscape="http://www.inkscape.org/namespaces/inkscape"
   version="1.1"
   id="svg3815"
   width="546.0816"
   height="313.08066"
   viewBox="0 0 546.0816 313.08065"
   sodipodi:docname="logo.svg"
   inkscape:version="0.92.5 (2060ec1f9f, 2020-04-08)">
  <metadata
     id="metadata3821">
    <rdf:RDF>
      <cc:Work
         rdf:about="">
        <dc:format>image/svg+xml</dc:format>
        <dc:type
           rdf:resource="http://purl.org/dc/dcmitype/StillImage" />
        <dc:title></dc:title>
      </cc:Work>
    </rdf:RDF>
  </metadata>
  <defs
     id="defs3819" />
  <sodipodi:namedview
     pagecolor="#ffffff"
     bordercolor="#666666"
     borderopacity="1"
     objecttolerance="10"
     gridtolerance="10"
     guidetolerance="10"
     inkscape:pageopacity="0"
     inkscape:pageshadow="2"
     inkscape:window-width="1920"
     inkscape:window-height="1023"
     id="namedview3817"
     showgrid="false"
     fit-margin-top="0"
     fit-margin-left="0"
     fit-margin-right="0"
     fit-margin-bottom="0"
     inkscape:zoom="1.3622951"
     inkscape:cx="343.09639"
     inkscape:cy="130.22332"
     inkscape:window-x="0"
     inkscape:window-y="0"
     inkscape:window-maximized="1"
     inkscape:current-layer="svg3815" />
  <path
     style="display:inline;opacity:1;fill:#ffffff;fill-opacity:1;stroke:#000000;stroke-width:0.40000001;stroke-miterlimit:1.5;stroke-dasharray:none;stroke-opacity:1"
     d="m 545.88161,153.23606 c 0,93.84673 -121.45165,159.6446 -272.13746,159.6446 C 123.05834,312.88066 0.2,247.08279 0.2,153.23606 0.2,59.389325 125.16838,0.199999 275.8542,0.2 c 150.68583,0 270.02741,59.189326 270.02741,153.03606 z"
     id="path835"
     inkscape:connector-curvature="0"
     sodipodi:nodetypes="sssss" />
  <g
     id="g15"
     transform="matrix(1.0376668,0,0,1,6.91723,7.9505648)"
     style="display:inline">
    <path
       style="display:inline;fill:#1d4c68"
       d="m 144,273 v -15 h 16.48422 16.48423 l 3.24305,-2.89766 c 2.68376,-2.39795 3.24305,-3.62279 3.24305,-7.10234 0,-3.47955 -0.55929,-4.70439 -3.24305,-7.10234 C 177.02224,238.04806 176.77292,238 165.18039,238 h -11.78806 l -2.99833,-3.25 c -6.95403,-7.53773 -7.85512,-7.00617 11.14646,-6.57546 18.34946,0.41592 20.37753,0.92864 25.65649,6.48618 C 190.49482,238.13262 193,243.89121 193,248 c 0,4.10879 -2.50518,9.86738 -5.80305,13.33928 -4.91086,5.17002 -7.69832,6.01103 -21.44695,6.47082 L 153,268.23649 V 278.11824 288 h -4.5 -4.5 z m 59,10 v -5 h 12.82569 c 12.11357,0 12.94641,-0.1285 15,-2.31445 2.73659,-2.91298 2.77445,-6.65288 0.10173,-10.05069 L 228.85484,263 H 210.92742 193 v -5 -5 h 17.82569 c 17.34001,0 17.88492,-0.0631 20,-2.31445 2.88825,-3.0744 2.82625,-7.72446 -0.14014,-10.51124 C 228.56463,238.18181 227.32812,238 215.89796,238 h -12.47314 l -4.92482,-5 -4.92482,-5 15.96241,0.006 c 8.77933,0.003 17.63594,0.47036 19.68136,1.03843 4.42862,1.22995 9.29109,5.10784 11.31697,9.02545 2.34487,4.53447 1.88173,12.036 -1.00578,16.29099 L 237.06027,258 l 2.46987,3.63955 c 2.88751,4.25499 3.35065,11.75652 1.00578,16.29099 -2.02588,3.91761 -6.88835,7.7955 -11.31697,9.02545 -2.04542,0.56807 -8.78145,1.03537 -14.96895,1.03843 L 203,288 Z m 83,-0.10531 C 286,279.21052 286.37097,278 287.5,278 c 5.05576,0 7.34521,-8.95796 3.25,-12.71627 -1.93686,-1.77753 -3.87309,-2.12342 -13.91229,-2.48531 -10.30831,-0.3716 -12.07262,-0.70158 -15.19671,-2.84224 -6.85258,-4.69546 -9.788,-14.94581 -6.23028,-21.75584 2.22644,-4.26173 7.04352,-8.28787 10.97764,-9.17516 L 270,228.21062 v 4.89469 C 270,236.50343 269.59467,238 268.67431,238 266.34718,238 263,242.49838 263,245.62589 c 0,5.88024 2.41659,7.03436 15.89114,7.58931 10.81713,0.4455 12.47853,0.76366 15.93619,3.05184 12.32129,8.15384 8.84561,27.53644 -5.51877,30.77614 L 286,287.78938 Z m 18,4.60989 C 304,286.50551 332.50047,230 333.00439,230 333.50821,230 352,266.51216 352,267.50697 352,267.77814 349.75452,268 347.01004,268 h -4.98997 l -4.64199,-9.24276 -4.64199,-9.24276 -9.60602,19.24276 L 313.52405,288 h -4.76203 C 306.14291,288 304,287.77706 304,287.50458 Z M 349.5,283 l -2.53369,-5 h 4.92182 c 4.76407,0 5.005,0.14193 7.51685,4.42807 1.42726,2.43544 2.59502,4.68544 2.59502,5 0,0.31456 -2.24242,0.57193 -4.98315,0.57193 -4.9753,0 -4.98716,-0.008 -7.51685,-5 z"
       id="path17"
       inkscape:connector-curvature="0"
       inkscape:label="pbsa"
       sodipodi:nodetypes="cccccscscsssscsccccccccscscccccscssccccsscccsscccsscsscscsssscscssssscccccssccscssc" />
    <path
       inkscape:connector-curvature="0"
       id="path824"
       d="m 203.26847,176.75 6.7e-4,-44.25 21.08034,29.78056 c 15.91257,22.47997 21.35588,29.46664 22.20431,28.5 0.61818,-0.70431 10.24589,-14.07855 21.39493,-29.72054 l 20.27096,-28.43998 V 176.81002 221 h -6.88241 -6.8824 l -0.28542,-22.75 -0.2854,-22.75 -13.72979,19.25 c -7.55138,10.5875 -14.03859,19.25 -14.41603,19.25 -0.37743,0 -6.86217,-8.58364 -14.41052,-19.07477 L 217.60343,175.85047 217.31802,198.42523 217.03261,221 h -6.8824 -6.88241 z"
       style="display:inline;fill:#019c96;stroke-width:1.03048456"
       sodipodi:nodetypes="ccscscccccccssccccccc"
       inkscape:label="m" />
    <path
       sodipodi:nodetypes="ssssscccssssssscssssccccccccc"
       inkscape:connector-curvature="0"
       id="path826"
       d="M 80.792002,227.05746 C 59.965384,224.0005 39.106803,209.39184 26.904014,189.31613 14.350082,168.66272 11.367565,142.16383 18.921966,118.39769 26.501306,94.553091 46.667837,73.365631 68.565107,66.241369 93.891469,58.001455 123.19988,64.366143 141.44818,82.068844 l 4.82383,4.679609 -8.92182,9.609313 -8.92182,9.609304 -4.14097,-3.90025 C 116.011,94.271507 104.25707,89.849661 91.812376,89.849661 c -14.771501,0 -26.911591,5.623631 -37.22866,17.245359 -10.12991,11.41091 -13.970449,21.86679 -13.989344,38.08605 -0.01864,16.00105 4.367101,27.9566 14.186211,38.67163 9.96648,10.87585 19.771679,15.55355 34.268509,16.34824 14.641578,0.80262 24.980318,-2.83276 36.635098,-12.88191 l 5.70395,-4.91815 12.22791,4.28096 c 14.18937,4.96767 13.90079,3.96941 4.29659,14.86329 -6.355,7.20835 -17.76237,15.93675 -25.58146,19.57377 -11.46848,5.33451 -28.786771,7.81038 -41.539178,5.93856 z M 92.273898,145.1597 v -13.82751 h 32.063442 32.06343 l -12.89789,13.82751 -12.89789,13.82751 H 111.43945 92.273898 Z"
       style="display:inline;fill:#019c96;stroke-width:0.95481503"
       inkscape:label="g" />
    <path
       style="display:inline;fill:#019c96;stroke-width:0.9294402"
       d="m 332.85363,227.11346 c 0,-0.81342 54.70919,-80.40332 55.44294,-80.65733 0.33751,-0.11684 3.81193,4.55021 7.7209,10.37125 5.94881,8.8586 6.94041,10.84833 6.08367,12.20731 -0.56296,0.89299 -9.75495,14.45297 -20.42663,30.13328 l -19.40305,28.50964 h -14.70891 c -8.08991,0 -14.70892,-0.25386 -14.70892,-0.56415 z m 107.53664,-6.14519 c -9.22329,-13.30625 -35.10982,-51.46562 -35.72325,-52.65969 -0.61995,-1.20679 12.77221,-21.64001 14.18313,-21.64001 0.37569,0 12.71348,17.66793 27.4173,39.26205 14.70382,21.59413 27.12285,39.82116 27.59783,40.50452 0.68398,0.98404 -2.22399,1.24247 -13.9804,1.24247 h -14.844 z M 360.44442,104.01368 C 345.26949,81.920208 332.85363,63.581353 332.85363,63.260671 c 0,-0.320682 6.61901,-0.583058 14.70892,-0.583058 h 14.70891 l 19.40305,28.509649 c 10.67168,15.680298 19.86367,29.240278 20.42663,30.133268 0.85673,1.35897 -0.13492,3.34923 -6.08367,12.20994 -3.90897,5.82247 -7.30412,10.60135 -7.54475,10.61974 -0.24065,0.0184 -12.85338,-18.04305 -28.0283,-40.13653 z m 50.81037,29.70216 c -4.37011,-6.34915 -6.95745,-10.94405 -6.5763,-11.67899 1.75127,-3.37686 39.86262,-58.622236 40.69201,-58.986232 0.53168,-0.233346 7.28986,-0.30091 15.01815,-0.150142 l 14.05144,0.274125 -27.43418,40.256019 c -15.0888,22.14082 -27.68445,40.36775 -27.99032,40.50429 -0.30587,0.13654 -3.79824,-4.46204 -7.7608,-10.21907 z"
       id="path828"
       inkscape:connector-curvature="0"
       sodipodi:nodetypes="ssccscssscsscscsssscscscssscscscs"
       inkscape:label="x" />
    <path
       inkscape:label="b_mpbsa"
       inkscape:connector-curvature="0"
       id="path832"
       d="m 166.74249,105.3 c 0,-44.538448 0.41441,-78.287631 0.95471,-77.75 0.52509,0.5225 17.87892,23.9 38.56405,51.95 20.68512,28.05 38.06822,51 38.62908,51 0.56087,0 18.15512,-23.175 39.09835,-51.5 20.94323,-28.325 38.52713,-51.9275 39.07535,-52.45 0.596,-0.56804 0.99675,30.893426 0.99675,78.25 V 184 h -13.18919 -13.1892 l -0.28737,-40.55863 -0.28737,-40.55863 -25.853,35.02697 c -14.21916,19.26484 -26.10054,35.02252 -26.40308,35.01706 -0.30254,-0.005 -12.18391,-15.7775 -26.40308,-35.049 L 192.5955,102.83867 192.30812,143.41934 192.02075,184 h -12.63913 -12.63913 z"
       style="display:inline;fill:#1d4c68;stroke-width:1.04886985"
       sodipodi:nodetypes="scssscscccccscscccccs" />
  </g>
</svg>
