<?xml version="1.0" encoding="UTF-8" standalone="no"?>
<!-- Generator: Adobe Illustrator 18.1.1, SVG Export Plug-In . SVG Version: 6.00 Build 0)  -->

<svg
   xmlns:dc="http://purl.org/dc/elements/1.1/"
   xmlns:cc="http://creativecommons.org/ns#"
   xmlns:rdf="http://www.w3.org/1999/02/22-rdf-syntax-ns#"
   xmlns:svg="http://www.w3.org/2000/svg"
   xmlns="http://www.w3.org/2000/svg"
   xmlns:sodipodi="http://sodipodi.sourceforge.net/DTD/sodipodi-0.dtd"
   xmlns:inkscape="http://www.inkscape.org/namespaces/inkscape"
   version="1.1"
   id="Capa_1"
   x="0px"
   y="0px"
   viewBox="0 0 21.394 21.394"
   style="enable-background:new 0 0 21.394 21.394;"
   xml:space="preserve"
   sodipodi:docname="molecule.svg"
   inkscape:version="0.92.5 (2060ec1f9f, 2020-04-08)"><metadata
   id="metadata43"><rdf:RDF><cc:Work
       rdf:about=""><dc:format>image/svg+xml</dc:format><dc:type
         rdf:resource="http://purl.org/dc/dcmitype/StillImage" /></cc:Work></rdf:RDF></metadata><defs
   id="defs41" /><sodipodi:namedview
   pagecolor="#ffffff"
   bordercolor="#666666"
   borderopacity="1"
   objecttolerance="10"
   gridtolerance="10"
   guidetolerance="10"
   inkscape:pageopacity="0"
   inkscape:pageshadow="2"
   inkscape:window-width="1485"
   inkscape:window-height="860"
   id="namedview39"
   showgrid="false"
   inkscape:zoom="11.031131"
   inkscape:cx="10.697"
   inkscape:cy="10.697"
   inkscape:window-x="0"
   inkscape:window-y="0"
   inkscape:window-maximized="0"
   inkscape:current-layer="g6" />
<g
   id="g6">
	<g
   id="g4"
   style="fill:#0044aa">
		<path
   style="fill:#0044aa"
   d="M17.829,10.83c-0.599,0-1.129,0.279-1.485,0.707l-2.279-1.135c0.029-0.148,0.047-0.301,0.047-0.458    c0-0.801-0.404-1.508-1.018-1.935l1.455-4.122c1.069-0.002,1.94-0.874,1.94-1.943c0-1.07-0.873-1.944-1.943-1.944    c-1.069,0-1.944,0.873-1.944,1.943c0,0.732,0.414,1.364,1.014,1.695l-1.41,3.993c-0.146-0.029-0.298-0.046-0.452-0.046    c-1.245,0-2.259,0.977-2.342,2.2L5.41,10.722C5.162,9.935,4.433,9.357,3.565,9.357c-1.071,0-1.943,0.873-1.943,1.944    s0.873,1.943,1.943,1.943c0.934,0,1.718-0.666,1.902-1.547l4.079-0.956c0.322,0.884,1.152,1.522,2.139,1.552l0.242,5.46    c-0.604,0.33-1.021,0.964-1.021,1.699c0,1.069,0.873,1.942,1.944,1.942c1.069,0,1.942-0.873,1.942-1.942    c0-1.047-0.837-1.899-1.875-1.937l-0.239-5.404c0.408-0.176,0.756-0.465,1.008-0.825l2.238,1.116    c-0.023,0.119-0.037,0.244-0.037,0.369c0,1.07,0.873,1.943,1.943,1.943s1.943-0.873,1.943-1.943    C19.773,11.702,18.898,10.83,17.829,10.83z"
   id="path2" />
	</g>
</g>
<g
   id="g8">
</g>
<g
   id="g10">
</g>
<g
   id="g12">
</g>
<g
   id="g14">
</g>
<g
   id="g16">
</g>
<g
   id="g18">
</g>
<g
   id="g20">
</g>
<g
   id="g22">
</g>
<g
   id="g24">
</g>
<g
   id="g26">
</g>
<g
   id="g28">
</g>
<g
   id="g30">
</g>
<g
   id="g32">
</g>
<g
   id="g34">
</g>
<g
   id="g36">
</g>
</svg>