<?xml version="1.0" encoding="UTF-8" standalone="no"?>
<svg
   xmlns:dc="http://purl.org/dc/elements/1.1/"
   xmlns:cc="http://creativecommons.org/ns#"
   xmlns:rdf="http://www.w3.org/1999/02/22-rdf-syntax-ns#"
   xmlns:svg="http://www.w3.org/2000/svg"
   xmlns="http://www.w3.org/2000/svg"
   xmlns:sodipodi="http://sodipodi.sourceforge.net/DTD/sodipodi-0.dtd"
   xmlns:inkscape="http://www.inkscape.org/namespaces/inkscape"
   viewBox="0 0 24 24"
   version="1.1"
   id="svg4"
   sodipodi:docname="result_table.svg"
   inkscape:version="0.92.5 (2060ec1f9f, 2020-04-08)">
  <metadata
     id="metadata10">
    <rdf:RDF>
      <cc:Work
         rdf:about="">
        <dc:format>image/svg+xml</dc:format>
        <dc:type
           rdf:resource="http://purl.org/dc/dcmitype/StillImage" />
      </cc:Work>
    </rdf:RDF>
  </metadata>
  <defs
     id="defs8" />
  <sodipodi:namedview
     pagecolor="#ffffff"
     bordercolor="#666666"
     borderopacity="1"
     objecttolerance="10"
     gridtolerance="10"
     guidetolerance="10"
     inkscape:pageopacity="0"
     inkscape:pageshadow="2"
     inkscape:window-width="1675"
     inkscape:window-height="990"
     id="namedview6"
     showgrid="false"
     inkscape:zoom="13.906433"
     inkscape:cx="-4.3790418"
     inkscape:cy="4.554324"
     inkscape:window-x="0"
     inkscape:window-y="0"
     inkscape:window-maximized="0"
     inkscape:current-layer="g863" />
  <g
     id="g863"
     transform="matrix(1.0895884,0,0,1.1984702,-1.6537531,-2.8679532)">
    <path
       sodipodi:nodetypes="csssccccccccccscscccccccccc"
       inkscape:connector-curvature="0"
       style="display:inline;fill-rule:evenodd"
       id="path2"
       d="M 4.0933333,4.0182472 C 2.9968835,4.0985294 2,4.2818427 2,5.3818427 V 17 c 0,1.1 0.9000021,1.998026 2,2 l 5.91,0.01061 c -0.16,-0.32 -0.405,-0.606967 -0.6066667,-0.946967 -0.16,-0.37182 -0.2766666,-0.308764 -0.1166666,-0.628764 L 3.58,17.403057 3.4866667,13 H 10.466667 L 10.49,15.036607 c 0.632496,-0.814999 0.413333,-0.581753 1.183333,-1.191753 V 13.042427 L 13.15,13 c 1.16,-0.64 2.47,-1 3.85,-1 1.06,0 2.07,0.21 3,0.59 V 5.6788315 c 0,-1.1 -0.62,-1.6181573 -1.72,-1.6181573 M 10.42,11.774292 3.51,11.742472 3.4633333,7.042427 10.443333,7.010607 M 18.49,11.763685 11.615,11.721258 11.638333,7.042427 18.466667,7 Z" />
    <path
       style="display:inline;fill:#000000;fill-opacity:1;fill-rule:evenodd"
       id="path819"
       d="m 16.673333,13.413303 c 2.73,0 5.06,1.66 6,4 -0.94,2.34 -3.27,4 -6,4 -2.73,0 -5.06,-1.66 -6,-4 0.94,-2.34 3.27,-4 6,-4 m 0,1.5 c -3.333332,0 -3.333332,5 0,5 3.333332,0 3.333332,-5 0,-5"
       inkscape:connector-curvature="0"
       sodipodi:nodetypes="ccscccsc" />
    <path
       sodipodi:nodetypes="csssc"
       inkscape:connector-curvature="0"
       d="m 16.486667,16.45573 c 0.56,0 1,0.44 1,1 0,0.56 -0.44,1 -1,1 -0.56,0 -1,-0.45 -1,-1 0,-0.55 0.44,-1 1,-1"
       id="path821"
       style="display:inline;fill:#00ccff;fill-opacity:1;fill-rule:evenodd" />
    <rect
       ry="1.0067283"
       y="8.4309521"
       x="4.4943233"
       height="2.0134566"
       width="4.7460041"
       id="rect823"
       style="display:inline;opacity:1;fill:#00ff66;fill-opacity:1;fill-rule:evenodd;stroke:#86739e;stroke-width:0;stroke-miterlimit:1.5;stroke-dasharray:none;stroke-opacity:1" />
    <rect
       ry="1.0067283"
       y="14.076535"
       x="4.5662322"
       height="2.0134566"
       width="4.7460041"
       id="rect823-3"
       style="display:inline;opacity:1;fill:#ffdd55;fill-opacity:1;fill-rule:evenodd;stroke:#86739e;stroke-width:0;stroke-miterlimit:1.5;stroke-dasharray:none;stroke-opacity:1" />
    <rect
       ry="1.0067283"
       y="8.3949976"
       x="12.656013"
       height="2.0134566"
       width="4.7460041"
       id="rect823-6"
       style="display:inline;opacity:1;fill:#ff2a2a;fill-opacity:1;fill-rule:evenodd;stroke:#86739e;stroke-width:0;stroke-miterlimit:1.5;stroke-dasharray:none;stroke-opacity:1" />
  </g>
</svg>
