<?xml version="1.0" encoding="UTF-8" standalone="no"?>
<svg
   xmlns:dc="http://purl.org/dc/elements/1.1/"
   xmlns:cc="http://creativecommons.org/ns#"
   xmlns:rdf="http://www.w3.org/1999/02/22-rdf-syntax-ns#"
   xmlns:svg="http://www.w3.org/2000/svg"
   xmlns="http://www.w3.org/2000/svg"
   xmlns:sodipodi="http://sodipodi.sourceforge.net/DTD/sodipodi-0.dtd"
   xmlns:inkscape="http://www.inkscape.org/namespaces/inkscape"
   viewBox="0 0 24 24"
   version="1.1"
   id="svg4"
   sodipodi:docname="account-cog.svg"
   inkscape:version="0.92.5 (2060ec1f9f, 2020-04-08)">
  <metadata
     id="metadata10">
    <rdf:RDF>
      <cc:Work
         rdf:about="">
        <dc:format>image/svg+xml</dc:format>
        <dc:type
           rdf:resource="http://purl.org/dc/dcmitype/StillImage" />
      </cc:Work>
    </rdf:RDF>
  </metadata>
  <defs
     id="defs8" />
  <sodipodi:namedview
     pagecolor="#ffffff"
     bordercolor="#666666"
     borderopacity="1"
     objecttolerance="10"
     gridtolerance="10"
     guidetolerance="10"
     inkscape:pageopacity="0"
     inkscape:pageshadow="2"
     inkscape:window-width="1705"
     inkscape:window-height="1024"
     id="namedview6"
     showgrid="false"
     inkscape:zoom="9.8333333"
     inkscape:cx="-5.7966102"
     inkscape:cy="12"
     inkscape:window-x="0"
     inkscape:window-y="0"
     inkscape:window-maximized="0"
     inkscape:current-layer="svg4" />
  <path
     d="m 9.0733926,0.13559322 c -2.5429911,0 -4.6044928,2.28663608 -4.6044928,5.10734468 3e-7,2.8207084 2.0615019,5.1073441 4.6044928,5.1073441 2.5429904,0 4.6044924,-2.2866359 4.6044924,-5.1073441 0,-2.8207084 -2.061501,-5.10734443 -4.6044924,-5.10734468 m -5.2e-6,12.76836178 c -5.0879646,0 -9.20898562,2.285536 -9.20898562,5.107344 v 2.553673 H 11.007279 c -0.513749,-1.196664 -0.781125,-2.505089 -0.782763,-3.830508 0.0023,-1.282823 0.253599,-2.550058 0.736718,-3.715594 C 10.35114,12.94225 9.7180218,12.903955 9.0733926,12.903955"
     id="path2"
     inkscape:connector-curvature="0"
     style="display:inline;fill:#00008f;fill-opacity:1;stroke-width:1.21235144"
     sodipodi:nodetypes="csssccsccccc" />
  <path
     style="display:inline;stroke-width:1.21235144"
     inkscape:connector-curvature="0"
     id="path812"
     d="m 17.131255,10.350282 c -0.1452,-0.003 -0.271389,0.110052 -0.299291,0.268136 l -0.218715,1.685423 c -0.345337,0.16599 -0.679162,0.370283 -0.978455,0.600114 l -1.427392,-0.638419 c -0.126624,0 -0.27627,0 -0.356849,0.16599 l -1.151122,2.208926 c -0.06906,0.140452 -0.04605,0.306441 0.06906,0.408588 l 1.220191,1.047005 c -0.04592,0.424088 -0.04592,0.852748 0,1.276836 l -1.220191,1.047005 c -0.106563,0.101375 -0.135281,0.271282 -0.06906,0.408588 l 1.151122,2.208928 c 0.06906,0.165988 0.218714,0.165988 0.356849,0.165988 l 1.427392,-0.638418 c 0.299293,0.229831 0.621607,0.446893 0.978455,0.600113 l 0.218715,1.685423 c 0.02302,0.153221 0.138134,0.268136 0.299291,0.268136 h 2.302246 c 0.126625,0 0.253248,-0.114915 0.27627,-0.268136 l 0.218713,-1.685423 c 0.345337,-0.16599 0.656141,-0.370282 0.966944,-0.600113 l 1.415882,0.638418 c 0.149646,0 0.299292,0 0.37987,-0.165988 l 1.151124,-2.208928 c 0.06622,-0.137306 0.0375,-0.307213 -0.06906,-0.408588 l -1.231706,-1.047005 c 0.02303,-0.217062 0.04604,-0.421355 0.04604,-0.638417 0,-0.217062 -0.01151,-0.421357 -0.04604,-0.638419 l 1.22019,-1.047005 c 0.106563,-0.101375 0.135281,-0.271282 0.06906,-0.408588 l -1.151123,-2.208926 c -0.06906,-0.16599 -0.218714,-0.16599 -0.368359,-0.16599 l -1.415882,0.638419 C 20.58462,12.674124 20.273816,12.457061 19.916968,12.303841 l -0.218713,-1.685423 c -0.01501,-0.150454 -0.128316,-0.265206 -0.264759,-0.268136 H 17.13125 m 1.151128,4.468927 c 0.955433,0 1.726686,0.855481 1.726686,1.915255 0,1.059773 -0.771253,1.915254 -1.726686,1.915254 -0.966943,0 -1.726684,-0.855481 -1.726684,-1.915254 0,-1.059774 0.771253,-1.915255 1.726684,-1.915255 z"
     sodipodi:nodetypes="cccccccccccccccccssccccccccsccccccccccsssss" />
</svg>
