<svg xmlns="http://www.w3.org/2000/svg" xmlns:xlink="http://www.w3.org/1999/xlink" xmlns:lucid="lucid" width="1139.28" height="1320"><g transform="translate(-123.40434555061364 3.552713678800501e-15)" lucid:page-tab-id="0_0"><path d="M0 0h1870.87v1322.83H0z" fill="#fff"/><path d="M485.5 374.25c0-3.3 2.68-6 6-6h188c3.3 0 6 2.7 6 6v81.34c0 3.3-2.7 6-6 6h-188c-3.32 0-6-2.7-6-6z" stroke="#5e5e5e" stroke-width="3" fill="#fff"/><use xlink:href="#a" transform="matrix(1,0,0,1,497.4950186514962,380.25390938821664) translate(5.148148148148167 21.33333333333333)"/><use xlink:href="#b" transform="matrix(1,0,0,1,497.4950186514962,380.25390938821664) translate(123.59259259259258 21.33333333333333)"/><use xlink:href="#c" transform="matrix(1,0,0,1,497.4950186514962,380.25390938821664) translate(59.14814814814815 53.33333333333332)"/><path d="M239.44 374.25c0-3.3 2.68-6 6-6h188c3.3 0 6 2.7 6 6v81.34c0 3.3-2.7 6-6 6h-188c-3.32 0-6-2.7-6-6z" stroke="#5e5e5e" stroke-width="3" fill="#fff"/><use xlink:href="#d" transform="matrix(1,0,0,1,251.43809301791126,380.25390938821664) translate(14.07407407407409 21.33333333333333)"/><use xlink:href="#b" transform="matrix(1,0,0,1,251.43809301791126,380.25390938821664) translate(114.66666666666666 21.33333333333333)"/><use xlink:href="#e" transform="matrix(1,0,0,1,251.43809301791126,380.25390938821664) translate(42.8888888888889 53.33333333333332)"/><path d="M363.4 144.5c0-3.3 2.7-6 6-6h169.9c3.3 0 6 2.7 6 6v123.07C514.9 246 496 246 484.53 246c-18.2 0-42.38 21.57-60.57 21.57-11.28 0-30.37 0-60.57-21.56z" stroke="#5e5e5e" stroke-width="3" fill="#fff"/><path d="M373.5 155.9c0-3.33 2.7-6 6-6h169.9c3.3 0 6 2.67 6 6v123.05C525 257.4 506.1 257.4 494.63 257.4c-18.2 0-42.38 21.55-60.56 21.55-11.28 0-30.38 0-60.57-21.55z" stroke="#5e5e5e" stroke-width="3" fill="#fff"/><path d="M383.6 167.28c0-3.32 2.7-6 6-6h169.9c3.3 0 6 2.68 6 6v123.06c-30.38-21.55-49.3-21.55-60.75-21.55-18.2 0-42.38 21.54-60.57 21.54-11.28 0-30.37 0-60.57-21.55z" stroke="#5e5e5e" stroke-width="3" fill="#fff"/><use xlink:href="#f" transform="matrix(1,0,0,1,388.6134128607019,166.27638814347762) translate(32.000000000000014 22.333333333333343)"/><use xlink:href="#g" transform="matrix(1,0,0,1,388.6134128607019,166.27638814347762) translate(48.25925925925927 54.333333333333336)"/><use xlink:href="#h" transform="matrix(1,0,0,1,388.6134128607019,166.27638814347762) translate(35.66666666666668 86.33333333333333)"/><path d="M464.45 286.67v33.54c0 3.33-2.7 6-6 6h-113c-3.33 0-6 2.7-6 6v16.05" stroke="#5e5e5e" stroke-width="2" fill="none"/><path d="M465.45 286.7h-2v-.56l2-.93z" fill="#5e5e5e"/><path d="M339.44 363.52l-4.64-14.27h9.27z" stroke="#5e5e5e" stroke-width="2" fill="#5e5e5e"/><path d="M464.45 286.67v33.54c0 3.33 2.7 6 6 6H579.5c3.3 0 6 2.7 6 6v16.05" stroke="#5e5e5e" stroke-width="2" fill="none"/><path d="M465.45 286.7h-2v-.56l2-.93z" fill="#5e5e5e"/><path d="M585.5 363.52l-4.64-14.27h9.27z" stroke="#5e5e5e" stroke-width="2" fill="#5e5e5e"/><path d="M143.4 268.33c0-3.3 2.7-6 6-6h170.1c3.3 0 6 2.7 6 6v102c0 3.32-2.7 6-6 6H149.4c-3.3 0-6-2.68-6-6z" stroke="#000" stroke-opacity="0" stroke-width="3" fill="#fff" fill-opacity="0"/><use xlink:href="#i" transform="matrix(1,0,0,1,148.40434555061364,267.3333333333333) translate(20.648148148148167 40.83333333333333)"/><use xlink:href="#j" transform="matrix(1,0,0,1,148.40434555061364,267.3333333333333) translate(128.72222222222223 40.83333333333333)"/><use xlink:href="#k" transform="matrix(1,0,0,1,148.40434555061364,267.3333333333333) translate(27.61111111111113 72.83333333333331)"/><use xlink:href="#l" transform="matrix(1,0,0,1,148.40434555061364,267.3333333333333) translate(131.09259259259258 72.83333333333331)"/><path d="M339.44 464.1v18.27c0 3.32 2.68 6 6 6h113c3.32 0 6 2.7 6 6v.8" stroke="#5e5e5e" stroke-width="2" fill="none"/><path d="M340.44 464.1h-2v-1h2z" fill="#5e5e5e"/><path d="M464.45 510.43l-4.64-14.27h9.28z" stroke="#5e5e5e" stroke-width="2" fill="#5e5e5e"/><path d="M585.5 464.1v18.27c0 3.32-2.7 6-6 6H470.45c-3.3 0-6 2.7-6 6v.8" stroke="#5e5e5e" stroke-width="2" fill="none"/><path d="M586.5 464.1h-2v-1h2z" fill="#5e5e5e"/><path d="M464.45 510.43l-4.64-14.27h9.28z" stroke="#5e5e5e" stroke-width="2" fill="#5e5e5e"/><path d="M249.8 26.23c.86-3.2 4.24-5.8 7.55-5.8h135.07c3.3 0 5.3 2.6 4.45 5.8l-8.8 33.07c-.87 3.2-4.25 5.8-7.56 5.8H245.45c-3.32 0-5.3-2.6-4.46-5.8z" stroke="#5e5e5e" stroke-width="3" fill="#fff"/><use xlink:href="#m" transform="matrix(1,0,0,1,244.4380930179113,25.4298325669568) translate(21.52351851851853 23.52083333333333)"/><path d="M555.86 25.8c.85-3.2 4.23-5.8 7.55-5.8H698.5c3.3 0 5.3 2.6 4.45 5.8l-8.82 33.07c-.84 3.2-4.22 5.8-7.53 5.8H551.5c-3.32 0-5.3-2.6-4.46-5.8z" stroke="#5e5e5e" stroke-width="3" fill="#fff"/><use xlink:href="#n" transform="matrix(1,0,0,1,550.4950186514961,24.999999999999996) translate(20.00500000000001 23.52083333333333)"/><path d="M861.92 26.23c.85-3.2 4.23-5.8 7.54-5.8h135.07c3.32 0 5.3 2.6 4.46 5.8l-8.83 33.07c-.85 3.2-4.23 5.8-7.55 5.8H857.55c-3.3 0-5.3-2.6-4.45-5.8z" stroke="#5e5e5e" stroke-width="3" fill="#fff"/><use xlink:href="#o" transform="matrix(1,0,0,1,856.5519442850809,25.4298325669568) translate(34.04203703703704 23.52083333333333)"/><path d="M725.5 144.5c0-3.3 2.68-6 6-6h151.88c3.3 0 6 2.7 6 6v79c-27.37-14.2-44.42-14.2-54.74-14.2-16.4 0-38.18 14.2-54.57 14.2-10.16 0-27.37 0-54.57-14.2z" stroke="#5e5e5e" stroke-width="3" fill="#fff"/><path d="M734.6 152c0-3.3 2.7-6 6-6h151.88c3.3 0 6 2.7 6 6v79c-27.37-14.2-44.4-14.2-54.74-14.2-16.38 0-38.18 14.2-54.57 14.2-10.16 0-27.37 0-54.57-14.2z" stroke="#5e5e5e" stroke-width="3" fill="#fff"/><path d="M743.7 159.5c0-3.3 2.7-6 6-6h151.9c3.3 0 6 2.7 6 6v79c-27.38-14.2-44.43-14.2-54.75-14.2-16.4 0-38.2 14.2-54.57 14.2-10.16 0-27.37 0-54.58-14.2z" stroke="#5e5e5e" stroke-width="3" fill="#fff"/><use xlink:href="#p" transform="matrix(1,0,0,1,748.7040859615845,158.4999996666666) translate(11.870370370370388 36.58333333333333)"/><path d="M321 67.6v28.2c0 3.3 2.7 6 6 6h483.54c3.3 0 6 2.68 6 6v10.7" stroke="#5e5e5e" stroke-width="2" fill="none"/><path d="M322 67.62h-2V66.6h2z" fill="#5e5e5e"/><path d="M816.54 133.76l-4.63-14.26h9.28z" stroke="#5e5e5e" stroke-width="2" fill="#5e5e5e"/><path d="M627.05 67.17v28.4c0 3.33 2.7 6 6 6h177.5c3.3 0 6 2.7 6 6v10.93" stroke="#5e5e5e" stroke-width="2" fill="none"/><path d="M628.05 67.2h-2v-1.03h2z" fill="#5e5e5e"/><path d="M816.54 133.76l-4.63-14.26h9.28z" stroke="#5e5e5e" stroke-width="2" fill="#5e5e5e"/><path d="M931.04 67.6v28.2c0 3.3-2.68 6-6 6h-102.5c-3.3 0-6 2.68-6 6v10.7" stroke="#5e5e5e" stroke-width="2" fill="none"/><path d="M932.04 67.62h-2V66.6h2z" fill="#5e5e5e"/><path d="M816.54 133.76l-4.63-14.26h9.28z" stroke="#5e5e5e" stroke-width="2" fill="#5e5e5e"/><path d="M321 67.6v28.2c0 3.3 2.7 6 6 6h131.45c3.3 0 6 2.68 6 6v10.7" stroke="#5e5e5e" stroke-width="2" fill="none"/><path d="M322 67.62h-2V66.6h2z" fill="#5e5e5e"/><path d="M464.45 133.76l-4.64-14.26h9.28z" stroke="#5e5e5e" stroke-width="2" fill="#5e5e5e"/><path d="M627.05 67.17v28.4c0 3.33-2.68 6-6 6h-150.6c-3.3 0-6 2.7-6 6v10.93" stroke="#5e5e5e" stroke-width="2" fill="none"/><path d="M628.05 67.2h-2v-1.03h2z" fill="#5e5e5e"/><path d="M464.45 133.76l-4.64-14.26h9.28z" stroke="#5e5e5e" stroke-width="2" fill="#5e5e5e"/><path d="M933.13 67.6v28.2c0 3.3-2.7 6-6 6H470.45c-3.3 0-6 2.68-6 6v10.7" stroke="#5e5e5e" stroke-width="2" fill="none"/><path d="M934.13 67.62h-2V66.6h2z" fill="#5e5e5e"/><path d="M464.45 133.76l-4.64-14.26h9.28z" stroke="#5e5e5e" stroke-width="2" fill="#5e5e5e"/><path d="M345.5 684c0-3.3 2.68-6 6-6h588c3.3 0 6 2.7 6 6v441.8c0 3.3-2.7 6-6 6h-588c-3.32 0-6-2.7-6-6z" stroke="#5e5e5e" stroke-width="3" fill="#fff"/><path d="M385.5 737.8c0-3.33 2.68-6 6-6h508c3.3 0 6 2.67 6 6v55.32c0 3.32-2.7 6-6 6h-508c-3.32 0-6-2.68-6-6z" stroke="#5e5e5e" stroke-width="3" fill="#fff"/><use xlink:href="#q" transform="matrix(1,0,0,1,397.49501865149614,743.7885011967977) translate(62.259259259259295 26.83333333333333)"/><use xlink:href="#r" transform="matrix(1,0,0,1,397.49501865149614,743.7885011967977) translate(145.14814814814815 26.83333333333333)"/><use xlink:href="#s" transform="matrix(1,0,0,1,397.49501865149614,743.7885011967977) translate(253.22222222222223 26.83333333333333)"/><use xlink:href="#t" transform="matrix(1,0,0,1,397.49501865149614,743.7885011967977) translate(294.55555555555554 26.83333333333333)"/><path d="M385.5 840.14c0-3.3 2.68-6 6-6h508c3.3 0 6 2.7 6 6v55.33c0 3.32-2.7 6-6 6h-508c-3.32 0-6-2.68-6-6z" stroke="#5e5e5e" stroke-width="3" fill="#fff"/><use xlink:href="#u" transform="matrix(1,0,0,1,397.49501865149614,846.1389098186381) translate(18.037037037037123 26.83333333333333)"/><use xlink:href="#v" transform="matrix(1,0,0,1,397.49501865149614,846.1389098186381) translate(105.29629629629636 26.83333333333333)"/><use xlink:href="#w" transform="matrix(1,0,0,1,397.49501865149614,846.1389098186381) translate(170.40740740740745 26.83333333333333)"/><use xlink:href="#x" transform="matrix(1,0,0,1,397.49501865149614,846.1389098186381) translate(225.0740740740741 26.83333333333333)"/><use xlink:href="#y" transform="matrix(1,0,0,1,397.49501865149614,846.1389098186381) translate(263.51851851851853 26.83333333333333)"/><use xlink:href="#z" transform="matrix(1,0,0,1,397.49501865149614,846.1389098186381) translate(365.59259259259255 26.83333333333333)"/><path d="M385.5 940.14c0-3.3 2.68-6 6-6h508c3.3 0 6 2.7 6 6v75.82c0 3.32-2.7 6-6 6h-508c-3.32 0-6-2.68-6-6z" stroke="#5e5e5e" stroke-width="3" fill="#fff"/><use xlink:href="#A" transform="matrix(1,0,0,1,397.49501865149614,946.1389098186382) translate(43.18518518518525 21.33333333333333)"/><use xlink:href="#y" transform="matrix(1,0,0,1,397.49501865149614,946.1389098186382) translate(96.29629629629633 21.33333333333333)"/><use xlink:href="#B" transform="matrix(1,0,0,1,397.49501865149614,946.1389098186382) translate(198.37037037037038 21.33333333333333)"/><use xlink:href="#C" transform="matrix(1,0,0,1,397.49501865149614,946.1389098186382) translate(318.14814814814815 21.33333333333333)"/><use xlink:href="#D" transform="matrix(1,0,0,1,397.49501865149614,946.1389098186382) translate(347.7777777777777 21.33333333333333)"/><use xlink:href="#E" transform="matrix(1,0,0,1,397.49501865149614,946.1389098186382) translate(117.74074074074076 53.33333333333332)"/><use xlink:href="#F" transform="matrix(1,0,0,1,397.49501865149614,946.1389098186382) translate(206.55555555555554 53.33333333333332)"/><use xlink:href="#G" transform="matrix(1,0,0,1,397.49501865149614,946.1389098186382) translate(289.44444444444446 53.33333333333332)"/><path d="M385.5 1060.14c0-3.3 2.68-6 6-6h508c3.3 0 6 2.7 6 6v55.33c0 3.32-2.7 6-6 6h-508c-3.32 0-6-2.68-6-6z" stroke="#5e5e5e" stroke-width="3" fill="#fff"/><use xlink:href="#H" transform="matrix(1,0,0,1,397.49501865149614,1066.138909818638) translate(66.77777777777783 26.83333333333333)"/><use xlink:href="#I" transform="matrix(1,0,0,1,397.49501865149614,1066.138909818638) translate(185.07407407407408 26.83333333333333)"/><use xlink:href="#E" transform="matrix(1,0,0,1,397.49501865149614,1066.138909818638) translate(238.33333333333334 26.83333333333333)"/><use xlink:href="#J" transform="matrix(1,0,0,1,397.49501865149614,1066.138909818638) translate(327.14814814814815 26.83333333333333)"/><path d="M645.5 801.62v12.52" stroke="#5e5e5e" stroke-width="2" fill="none"/><path d="M646.5 801.65h-2v-1.03h2z" fill="#5e5e5e"/><path d="M645.5 829.4l-4.64-14.26h9.27z" stroke="#5e5e5e" stroke-width="2" fill="#5e5e5e"/><path d="M645.5 903.97v10.17" stroke="#5e5e5e" stroke-width="2" fill="none"/><path d="M646.5 904h-2v-1.03h2z" fill="#5e5e5e"/><path d="M645.5 929.4l-4.64-14.26h9.27z" stroke="#5e5e5e" stroke-width="2" fill="#5e5e5e"/><path d="M645.5 1024.46v9.68" stroke="#5e5e5e" stroke-width="2" fill="none"/><path d="M646.5 1024.5h-2v-1.04h2z" fill="#5e5e5e"/><path d="M645.5 1049.4l-4.64-14.26h9.27z" stroke="#5e5e5e" stroke-width="2" fill="#5e5e5e"/><path d="M340 684c0-3.3 2.7-6 6-6h228c3.3 0 6 2.7 6 6v48c0 3.3-2.7 6-6 6H346c-3.3 0-6-2.7-6-6z" stroke="#000" stroke-opacity="0" stroke-width="3" fill="#fff" fill-opacity="0"/><use xlink:href="#K" transform="matrix(1,0,0,1,345,683.00125769868) translate(27.43827160493828 30.27777777777778)"/><use xlink:href="#L" transform="matrix(1,0,0,1,345,683.00125769868) translate(159.41358024691357 30.27777777777778)"/><path d="M810.76 306.02c2.6-2.04 6.86-2.04 9.47 0l80.53 62.63c2.6 2.03 2.6 5.33 0 7.37l-80.53 62.63c-2.6 2.03-6.86 2.03-9.47 0l-80.53-62.63c-2.6-2.04-2.6-5.34 0-7.37z" stroke="#5e5e5e" stroke-width="3" fill="#fff"/><use xlink:href="#M" transform="matrix(1,0,0,1,730.4950186514961,307.33333333333326) translate(66.06055555555557 29.565555555555555)"/><use xlink:href="#N" transform="matrix(1,0,0,1,730.4950186514961,307.33333333333326) translate(18.597592592592587 65.56555555555556)"/><path d="M725.5 521.16c0-3.3 2.68-6 6-6h151.88c3.3 0 6 2.7 6 6v79c-27.37-14.2-44.42-14.2-54.74-14.2-16.4 0-38.18 14.2-54.57 14.2-10.16 0-27.37 0-54.57-14.2z" stroke="#5e5e5e" stroke-width="3" fill="#fff"/><path d="M734.6 528.66c0-3.3 2.7-6 6-6h151.88c3.3 0 6 2.7 6 6v79c-27.37-14.2-44.4-14.2-54.74-14.2-16.38 0-38.18 14.2-54.57 14.2-10.16 0-27.37 0-54.57-14.2z" stroke="#5e5e5e" stroke-width="3" fill="#fff"/><path d="M743.7 536.16c0-3.3 2.7-6 6-6h151.9c3.3 0 6 2.7 6 6v79c-27.38-14.2-44.43-14.2-54.75-14.2-16.4 0-38.2 14.2-54.57 14.2-10.16 0-27.37 0-54.58-14.2z" stroke="#5e5e5e" stroke-width="3" fill="#fff"/><use xlink:href="#O" transform="matrix(1,0,0,1,748.7040859615845,535.1613115241818) translate(56.33333333333334 21.33333333333333)"/><use xlink:href="#p" transform="matrix(1,0,0,1,748.7040859615845,535.1613115241818) translate(18.370370370370388 53.33333333333332)"/><path d="M816.54 613.32v25.1c0 3.3-2.7 6-6 6H651.5c-3.32 0-6 2.68-6 6V658" stroke="#5e5e5e" stroke-width="2" fill="none"/><path d="M817.54 613.35h-2v-.7l2-.65z" fill="#5e5e5e"/><path d="M645.5 673.27L640.86 659h9.27z" stroke="#5e5e5e" stroke-width="2" fill="#5e5e5e"/><path d="M464.45 613.32v25.1c0 3.3 2.7 6 6 6H639.5c3.3 0 6 2.68 6 6V658" stroke="#5e5e5e" stroke-width="2" fill="none"/><path d="M465.45 613.35h-2v-.7l2-.65z" fill="#5e5e5e"/><path d="M645.5 673.27L640.86 659h9.27z" stroke="#5e5e5e" stroke-width="2" fill="#5e5e5e"/><path d="M816.54 236.66v32.17c0 .3-.23.53-.52.53-.3 0-.52.23-.52.52v14.67" stroke="#5e5e5e" stroke-width="2" fill="none"/><path d="M817.54 236.7h-2v-.7l2-.67z" fill="#5e5e5e"/><path d="M815.5 299.82l-4.64-14.27h9.27z" stroke="#5e5e5e" stroke-width="2" fill="#5e5e5e"/><path d="M1019.27 372.26l2.52 2.53.92 3.4v36.96h-2v-36.7l-.72-2.64-1.77-1.77-2.64-.72h-30.77v-2h31.02zm-114.1 1.07v-2h45.22v2z" fill="#5e5e5e"/><path d="M905.2 373.33h-1.14l.2-.52-.28-1.47h1.2zM1021.72 430.43l-4.64-14.27h9.27z" fill="#5e5e5e"/><path d="M1021.72 433.66l-6-18.5h12zm-3.26-16.5l3.26 10.03 3.26-10.04z" fill="#5e5e5e"/><use xlink:href="#P" transform="matrix(1,0,0,1,950.3884807835575,360.33333333333326) translate(0.004999999999999005 16)"/><path d="M965.5 441.16c0-3.3 2.68-6 6-6h100.44c3.32 0 6 2.7 6 6v48c0 3.32-2.68 6-6 6H971.5c-3.32 0-6-2.68-6-6z" stroke="#5e5e5e" stroke-width="3" fill="#fff"/><use xlink:href="#Q" transform="matrix(1,0,0,1,977.4950186514961,447.1613115241817) translate(0.11728395061729202 22.27777777777778)"/><use xlink:href="#R" transform="matrix(1,0,0,1,977.4950186514961,447.1613115241817) translate(64.19135802469135 22.27777777777778)"/><path d="M1021.72 497.66v61.5c0 3.32-2.7 6-6 6H927.6" stroke="#5e5e5e" stroke-width="2" fill="none"/><path d="M1022.72 497.7h-2v-1.04h2z" fill="#5e5e5e"/><path d="M912.32 565.16l14.27-4.63v9.27z" stroke="#5e5e5e" stroke-width="2" fill="#5e5e5e"/><path d="M817.54 495.16h-2v-5.52h2zm-1.04-29.52h-2V442.6h2z" fill="#5e5e5e"/><path d="M816.44 441.64l.06 1h-2v-1.06zM816.54 510.43l-4.63-14.27h9.28z" fill="#5e5e5e"/><path d="M816.54 513.66l-6-18.5h12zm-3.26-16.5l3.26 10.03 3.26-10.04z" fill="#5e5e5e"/><g><use xlink:href="#S" transform="matrix(1,0,0,1,803.8510202600502,465.6371470275419) translate(0.005000000000000782 16)"/></g><path d="M373.4 521.16c0-3.3 2.7-6 6-6h151.9c3.3 0 6 2.7 6 6v79c-27.38-14.2-44.43-14.2-54.75-14.2-16.4 0-38.18 14.2-54.57 14.2-10.16 0-27.37 0-54.58-14.2z" stroke="#5e5e5e" stroke-width="3" fill="#fff"/><path d="M382.5 528.66c0-3.3 2.7-6 6-6h151.9c3.3 0 6 2.7 6 6v79c-27.38-14.2-44.42-14.2-54.75-14.2-16.38 0-38.18 14.2-54.57 14.2-10.16 0-27.37 0-54.57-14.2z" stroke="#5e5e5e" stroke-width="3" fill="#fff"/><path d="M391.6 536.16c0-3.3 2.7-6 6-6h151.9c3.3 0 6 2.7 6 6v79c-27.37-14.2-44.42-14.2-54.74-14.2-16.4 0-38.2 14.2-54.57 14.2-10.17 0-27.38 0-54.6-14.2z" stroke="#5e5e5e" stroke-width="3" fill="#fff"/><g><use xlink:href="#T" transform="matrix(1,0,0,1,396.6134128607018,535.1613115241818) translate(29.66666666666668 21.33333333333333)"/><use xlink:href="#U" transform="matrix(1,0,0,1,396.6134128607018,535.1613115241818) translate(23.740740740740755 53.33333333333332)"/></g><path d="M645.5 1134.3v27.3" stroke="#5e5e5e" stroke-width="2" fill="none"/><path d="M646.5 1134.3h-2v-1h2z" fill="#5e5e5e"/><path d="M645.5 1176.86l-4.64-14.27h9.27z" stroke="#5e5e5e" stroke-width="2" fill="#5e5e5e"/><path d="M640.05 1182.5c3-1.37 7.88-1.37 10.9 0l119.1 55c3 1.37 3 3.63 0 5l-119.1 55c-3.02 1.37-7.9 1.37-10.9 0l-119.1-55c-3.02-1.37-3.02-3.63 0-5z" stroke="#5e5e5e" stroke-width="3" fill="#fff"/><g><use xlink:href="#V" transform="matrix(1,0,0,1,520.4950186514961,1185) translate(74.21487654320987 43.61805555555556)"/><use xlink:href="#W" transform="matrix(1,0,0,1,520.4950186514961,1185) translate(131.1161111111111 43.61805555555556)"/><use xlink:href="#X" transform="matrix(1,0,0,1,520.4950186514961,1185) translate(89.08524691358025 72.95138888888889)"/></g><path d="M808.83 1241H774.6v-2h34.23zm51.17 0h-16.73v-2H860z" fill="#5e5e5e"/><path d="M774.63 1241h-1.35l.65-2h.7zM875.26 1240l-14.26 4.64v-9.28z" fill="#5e5e5e"/><path d="M878.5 1240l-18.5 6v-12zm-16.5 3.26l10.03-3.26-10.03-3.26z" fill="#5e5e5e"/><g><use xlink:href="#P" transform="matrix(1,0,0,1,808.8304689403163,1228) translate(0.004999999999999005 16)"/></g><path d="M1088 1200c28.72 0 52 17.9 52 40s-23.28 40-52 40H932c-28.72 0-52-17.9-52-40s23.28-40 52-40z" stroke="#5e5e5e" stroke-width="3" fill="#fff"/><g><use xlink:href="#Y" transform="matrix(1,0,0,1,885,1205) translate(15.101851851851833 39.24305555555556)"/></g><path d="M1100 646c0-3.3 2.7-6 6-6h125.6c3.32 0 6 2.7 6 6v479.8c0 3.3-2.68 6-6 6H1106c-3.3 0-6-2.7-6-6z" fill="none"/><path d="M1100 1131.8c5.52 0 10-4.5 10-10V895.9c0-5.53 4.48-10 10-10-5.52 0-10-4.48-10-10V650c0-5.52-4.48-10-10-10" stroke="#5e5e5e" stroke-width="3" fill="none"/><g><use xlink:href="#Z" transform="matrix(1,0,0,1,1135,645) translate(-5.814814814814817 245.44444444444443)"/></g><path d="M1100 26c0-3.3 2.7-6 6-6h125.6c3.32 0 6 2.7 6 6v608c0 3.3-2.68 6-6 6H1106c-3.3 0-6-2.7-6-6z" fill="none"/><path d="M1100 640c5.52 0 10-4.48 10-10V340c0-5.52 4.48-10 10-10-5.52 0-10-4.48-10-10V30c0-5.52-4.48-10-10-10" stroke="#5e5e5e" stroke-width="3" fill="none"/><g><use xlink:href="#aa" transform="matrix(1,0,0,1,1135,24.999999999999996) translate(-8.314814814814817 309.44444444444446)"/></g><defs><path fill="#333" d="M143 4C61 4 22-44 18-125c-5-107 100-154 193-111 17 8 29 25 37 43l-32 9c-13-25-37-40-76-40-61 0-88 39-88 99 0 61 29 100 91 101 35 0 62-11 79-27v-45h-74v-28h105v86C228-13 192 4 143 4" id="ab"/><path fill="#333" d="M100-194c63 0 86 42 84 106H49c0 40 14 67 53 68 26 1 43-12 49-29l28 8c-11 28-37 45-77 45C44 4 14-33 15-96c1-61 26-98 85-98zm52 81c6-60-76-77-97-28-3 7-6 17-6 28h103" id="ac"/><path fill="#333" d="M117-194c89-4 53 116 60 194h-32v-121c0-31-8-49-39-48C34-167 62-67 57 0H25l-1-190h30c1 10-1 24 2 32 11-22 29-35 61-36" id="ad"/><path fill="#333" d="M114-163C36-179 61-72 57 0H25l-1-190h30c1 12-1 29 2 39 6-27 23-49 58-41v29" id="ae"/><path fill="#333" d="M141-36C126-15 110 5 73 4 37 3 15-17 15-53c-1-64 63-63 125-63 3-35-9-54-41-54-24 1-41 7-42 31l-33-3c5-37 33-52 76-52 45 0 72 20 72 64v82c-1 20 7 32 28 27v20c-31 9-61-2-59-35zM48-53c0 20 12 33 32 33 41-3 63-29 60-74-43 2-92-5-92 41" id="af"/><path fill="#333" d="M59-47c-2 24 18 29 38 22v24C64 9 27 4 27-40v-127H5v-23h24l9-43h21v43h35v23H59v120" id="ag"/><g id="a"><use transform="matrix(0.07407407407407406,0,0,0.07407407407407406,0,0)" xlink:href="#ab"/><use transform="matrix(0.07407407407407406,0,0,0.07407407407407406,20.740740740740737,0)" xlink:href="#ac"/><use transform="matrix(0.07407407407407406,0,0,0.07407407407407406,35.55555555555555,0)" xlink:href="#ad"/><use transform="matrix(0.07407407407407406,0,0,0.07407407407407406,50.37037037037036,0)" xlink:href="#ac"/><use transform="matrix(0.07407407407407406,0,0,0.07407407407407406,65.18518518518518,0)" xlink:href="#ae"/><use transform="matrix(0.07407407407407406,0,0,0.07407407407407406,73.99999999999999,0)" xlink:href="#af"/><use transform="matrix(0.07407407407407406,0,0,0.07407407407407406,88.8148148148148,0)" xlink:href="#ag"/><use transform="matrix(0.07407407407407406,0,0,0.07407407407407406,96.2222222222222,0)" xlink:href="#ac"/></g><path fill="#333" d="M206 0h-36l-40-164L89 0H53L-1-190h32L70-26l43-164h34l41 164 42-164h31" id="ah"/><path fill="#333" d="M24-231v-30h32v30H24zM24 0v-190h32V0H24" id="ai"/><path fill="#333" d="M106-169C34-169 62-67 57 0H25v-261h32l-1 103c12-21 28-36 61-36 89 0 53 116 60 194h-32v-121c2-32-8-49-39-48" id="aj"/><g id="b"><use transform="matrix(0.07407407407407406,0,0,0.07407407407407406,0,0)" xlink:href="#ah"/><use transform="matrix(0.07407407407407406,0,0,0.07407407407407406,19.18518518518518,0)" xlink:href="#ai"/><use transform="matrix(0.07407407407407406,0,0,0.07407407407407406,25.03703703703703,0)" xlink:href="#ag"/><use transform="matrix(0.07407407407407406,0,0,0.07407407407407406,32.444444444444436,0)" xlink:href="#aj"/></g><path fill="#333" d="M24 0v-261h32V0H24" id="ak"/><path fill="#333" d="M115-194c55 1 70 41 70 98S169 2 115 4C84 4 66-9 55-30l1 105H24l-1-265h31l2 30c10-21 28-34 59-34zm-8 174c40 0 45-34 45-75s-6-73-45-74c-42 0-51 32-51 76 0 43 10 73 51 73" id="al"/><g id="c"><use transform="matrix(0.07407407407407406,0,0,0.07407407407407406,0,0)" xlink:href="#ag"/><use transform="matrix(0.07407407407407406,0,0,0.07407407407407406,7.407407407407406,0)" xlink:href="#ak"/><use transform="matrix(0.07407407407407406,0,0,0.07407407407407406,13.259259259259256,0)" xlink:href="#ac"/><use transform="matrix(0.07407407407407406,0,0,0.07407407407407406,28.074074074074066,0)" xlink:href="#af"/><use transform="matrix(0.07407407407407406,0,0,0.07407407407407406,42.88888888888888,0)" xlink:href="#al"/></g><path fill="#333" d="M212-179c-10-28-35-45-73-45-59 0-87 40-87 99 0 60 29 101 89 101 43 0 62-24 78-52l27 14C228-24 195 4 139 4 59 4 22-46 18-125c-6-104 99-153 187-111 19 9 31 26 39 46" id="am"/><path fill="#333" d="M100-194c62-1 85 37 85 99 1 63-27 99-86 99S16-35 15-95c0-66 28-99 85-99zM99-20c44 1 53-31 53-75 0-43-8-75-51-75s-53 32-53 75 10 74 51 75" id="an"/><path fill="#333" d="M108 0H70L1-190h34L89-25l56-165h34" id="ao"/><g id="d"><use transform="matrix(0.07407407407407406,0,0,0.07407407407407406,0,0)" xlink:href="#am"/><use transform="matrix(0.07407407407407406,0,0,0.07407407407407406,19.18518518518518,0)" xlink:href="#an"/><use transform="matrix(0.07407407407407406,0,0,0.07407407407407406,33.99999999999999,0)" xlink:href="#ad"/><use transform="matrix(0.07407407407407406,0,0,0.07407407407407406,48.8148148148148,0)" xlink:href="#ao"/><use transform="matrix(0.07407407407407406,0,0,0.07407407407407406,62.14814814814813,0)" xlink:href="#ac"/><use transform="matrix(0.07407407407407406,0,0,0.07407407407407406,76.96296296296295,0)" xlink:href="#ae"/><use transform="matrix(0.07407407407407406,0,0,0.07407407407407406,85.77777777777776,0)" xlink:href="#ag"/></g><path fill="#333" d="M210-169c-67 3-38 105-44 169h-31v-121c0-29-5-50-35-48C34-165 62-65 56 0H25l-1-190h30c1 10-1 24 2 32 10-44 99-50 107 0 11-21 27-35 58-36 85-2 47 119 55 194h-31v-121c0-29-5-49-35-48" id="ap"/><path fill="#333" d="M85-194c31 0 48 13 60 33l-1-100h32l1 261h-30c-2-10 0-23-3-31C134-8 116 4 85 4 32 4 16-35 15-94c0-66 23-100 70-100zm9 24c-40 0-46 34-46 75 0 40 6 74 45 74 42 0 51-32 51-76 0-42-9-74-50-73" id="aq"/><g id="e"><use transform="matrix(0.07407407407407406,0,0,0.07407407407407406,0,0)" xlink:href="#al"/><use transform="matrix(0.07407407407407406,0,0,0.07407407407407406,14.814814814814811,0)" xlink:href="#af"/><use transform="matrix(0.07407407407407406,0,0,0.07407407407407406,29.629629629629623,0)" xlink:href="#ae"/><use transform="matrix(0.07407407407407406,0,0,0.07407407407407406,38.444444444444436,0)" xlink:href="#ap"/><use transform="matrix(0.07407407407407406,0,0,0.07407407407407406,60.59259259259258,0)" xlink:href="#ac"/><use transform="matrix(0.07407407407407406,0,0,0.07407407407407406,75.40740740740739,0)" xlink:href="#aq"/></g><path fill="#333" d="M185-189c-5-48-123-54-124 2 14 75 158 14 163 119 3 78-121 87-175 55-17-10-28-26-33-46l33-7c5 56 141 63 141-1 0-78-155-14-162-118-5-82 145-84 179-34 5 7 8 16 11 25" id="ar"/><path fill="#333" d="M84 4C-5 8 30-112 23-190h32v120c0 31 7 50 39 49 72-2 45-101 50-169h31l1 190h-30c-1-10 1-25-2-33-11 22-28 36-60 37" id="as"/><path fill="#333" d="M96-169c-40 0-48 33-48 73s9 75 48 75c24 0 41-14 43-38l32 2c-6 37-31 61-74 61-59 0-76-41-82-99-10-93 101-131 147-64 4 7 5 14 7 22l-32 3c-4-21-16-35-41-35" id="at"/><g id="f"><use transform="matrix(0.07407407407407406,0,0,0.07407407407407406,0,0)" xlink:href="#ar"/><use transform="matrix(0.07407407407407406,0,0,0.07407407407407406,17.777777777777775,0)" xlink:href="#ag"/><use transform="matrix(0.07407407407407406,0,0,0.07407407407407406,25.18518518518518,0)" xlink:href="#ae"/><use transform="matrix(0.07407407407407406,0,0,0.07407407407407406,33.99999999999999,0)" xlink:href="#as"/><use transform="matrix(0.07407407407407406,0,0,0.07407407407407406,48.8148148148148,0)" xlink:href="#at"/><use transform="matrix(0.07407407407407406,0,0,0.07407407407407406,62.14814814814813,0)" xlink:href="#ag"/><use transform="matrix(0.07407407407407406,0,0,0.07407407407407406,69.55555555555554,0)" xlink:href="#as"/><use transform="matrix(0.07407407407407406,0,0,0.07407407407407406,84.37037037037035,0)" xlink:href="#ae"/><use transform="matrix(0.07407407407407406,0,0,0.07407407407407406,93.18518518518516,0)" xlink:href="#ac"/></g><path fill="#333" d="M0 4l72-265h28L28 4H0" id="au"/><g id="g"><use transform="matrix(0.07407407407407406,0,0,0.07407407407407406,0,0)" xlink:href="#af"/><use transform="matrix(0.07407407407407406,0,0,0.07407407407407406,14.814814814814811,0)" xlink:href="#ad"/><use transform="matrix(0.07407407407407406,0,0,0.07407407407407406,29.629629629629623,0)" xlink:href="#aq"/><use transform="matrix(0.07407407407407406,0,0,0.07407407407407406,44.444444444444436,0)" xlink:href="#au"/><use transform="matrix(0.07407407407407406,0,0,0.07407407407407406,51.85185185185184,0)" xlink:href="#an"/><use transform="matrix(0.07407407407407406,0,0,0.07407407407407406,66.66666666666666,0)" xlink:href="#ae"/></g><path fill="#333" d="M177-190C167-65 218 103 67 71c-23-6-38-20-44-43l32-5c15 47 100 32 89-28v-30C133-14 115 1 83 1 29 1 15-40 15-95c0-56 16-97 71-98 29-1 48 16 59 35 1-10 0-23 2-32h30zM94-22c36 0 50-32 50-73 0-42-14-75-50-75-39 0-46 34-46 75s6 73 46 73" id="av"/><path fill="#333" d="M179-190L93 31C79 59 56 82 12 73V49c39 6 53-20 64-50L1-190h34L92-34l54-156h33" id="aw"/><g id="h"><use transform="matrix(0.07407407407407406,0,0,0.07407407407407406,0,0)" xlink:href="#ag"/><use transform="matrix(0.07407407407407406,0,0,0.07407407407407406,7.407407407407406,0)" xlink:href="#an"/><use transform="matrix(0.07407407407407406,0,0,0.07407407407407406,22.222222222222218,0)" xlink:href="#al"/><use transform="matrix(0.07407407407407406,0,0,0.07407407407407406,37.03703703703703,0)" xlink:href="#an"/><use transform="matrix(0.07407407407407406,0,0,0.07407407407407406,51.85185185185184,0)" xlink:href="#ak"/><use transform="matrix(0.07407407407407406,0,0,0.07407407407407406,57.70370370370369,0)" xlink:href="#an"/><use transform="matrix(0.07407407407407406,0,0,0.07407407407407406,72.5185185185185,0)" xlink:href="#av"/><use transform="matrix(0.07407407407407406,0,0,0.07407407407407406,87.33333333333331,0)" xlink:href="#aw"/></g><g id="i"><use transform="matrix(0.07407407407407406,0,0,0.07407407407407406,0,0)" xlink:href="#ag"/><use transform="matrix(0.07407407407407406,0,0,0.07407407407407406,7.407407407407406,0)" xlink:href="#an"/><use transform="matrix(0.07407407407407406,0,0,0.07407407407407406,22.222222222222218,0)" xlink:href="#al"/><use transform="matrix(0.07407407407407406,0,0,0.07407407407407406,37.03703703703703,0)" xlink:href="#an"/><use transform="matrix(0.07407407407407406,0,0,0.07407407407407406,51.85185185185184,0)" xlink:href="#ak"/><use transform="matrix(0.07407407407407406,0,0,0.07407407407407406,57.70370370370369,0)" xlink:href="#an"/><use transform="matrix(0.07407407407407406,0,0,0.07407407407407406,72.5185185185185,0)" xlink:href="#av"/><use transform="matrix(0.07407407407407406,0,0,0.07407407407407406,87.33333333333331,0)" xlink:href="#aw"/></g><g id="j"><use transform="matrix(0.07407407407407406,0,0,0.07407407407407406,0,0)" xlink:href="#an"/><use transform="matrix(0.07407407407407406,0,0,0.07407407407407406,14.814814814814811,0)" xlink:href="#ae"/></g><g id="k"><use transform="matrix(0.07407407407407406,0,0,0.07407407407407406,0,0)" xlink:href="#at"/><use transform="matrix(0.07407407407407406,0,0,0.07407407407407406,13.33333333333333,0)" xlink:href="#aj"/><use transform="matrix(0.07407407407407406,0,0,0.07407407407407406,28.14814814814814,0)" xlink:href="#af"/><use transform="matrix(0.07407407407407406,0,0,0.07407407407407406,42.962962962962955,0)" xlink:href="#ae"/><use transform="matrix(0.07407407407407406,0,0,0.07407407407407406,51.77777777777777,0)" xlink:href="#ap"/><use transform="matrix(0.07407407407407406,0,0,0.07407407407407406,73.92592592592591,0)" xlink:href="#ap"/></g><path fill="#333" d="M101-234c-31-9-42 10-38 44h38v23H63V0H32v-167H5v-23h27c-7-52 17-82 69-68v24" id="ax"/><g id="l"><use transform="matrix(0.07407407407407406,0,0,0.07407407407407406,0,0)" xlink:href="#ax"/><use transform="matrix(0.07407407407407406,0,0,0.07407407407407406,6.8888888888888875,0)" xlink:href="#ax"/></g><path fill="#333" d="M141 0L90-78 38 0H4l68-98-65-92h35l48 74 47-74h35l-64 92 68 98h-35" id="ay"/><g id="m"><use transform="matrix(0.07407407407407406,0,0,0.07407407407407406,0,0)" xlink:href="#am"/><use transform="matrix(0.07407407407407406,0,0,0.07407407407407406,19.18518518518518,0)" xlink:href="#an"/><use transform="matrix(0.07407407407407406,0,0,0.07407407407407406,33.99999999999999,0)" xlink:href="#ap"/><use transform="matrix(0.07407407407407406,0,0,0.07407407407407406,56.14814814814813,0)" xlink:href="#al"/><use transform="matrix(0.07407407407407406,0,0,0.07407407407407406,70.96296296296295,0)" xlink:href="#ak"/><use transform="matrix(0.07407407407407406,0,0,0.07407407407407406,76.8148148148148,0)" xlink:href="#ac"/><use transform="matrix(0.07407407407407406,0,0,0.07407407407407406,91.6296296296296,0)" xlink:href="#ay"/></g><path fill="#333" d="M233-177c-1 41-23 64-60 70L243 0h-38l-65-103H63V0H30v-248c88 3 205-21 203 71zM63-129c60-2 137 13 137-47 0-61-80-42-137-45v92" id="az"/><g id="n"><use transform="matrix(0.07407407407407406,0,0,0.07407407407407406,0,0)" xlink:href="#az"/><use transform="matrix(0.07407407407407406,0,0,0.07407407407407406,19.18518518518518,0)" xlink:href="#ac"/><use transform="matrix(0.07407407407407406,0,0,0.07407407407407406,33.99999999999999,0)" xlink:href="#at"/><use transform="matrix(0.07407407407407406,0,0,0.07407407407407406,47.33333333333332,0)" xlink:href="#ac"/><use transform="matrix(0.07407407407407406,0,0,0.07407407407407406,62.14814814814813,0)" xlink:href="#al"/><use transform="matrix(0.07407407407407406,0,0,0.07407407407407406,76.96296296296295,0)" xlink:href="#ag"/><use transform="matrix(0.07407407407407406,0,0,0.07407407407407406,84.37037037037035,0)" xlink:href="#an"/><use transform="matrix(0.07407407407407406,0,0,0.07407407407407406,99.18518518518516,0)" xlink:href="#ae"/></g><path fill="#333" d="M30 0v-248h33v221h125V0H30" id="aA"/><g id="o"><use transform="matrix(0.07407407407407406,0,0,0.07407407407407406,0,0)" xlink:href="#aA"/><use transform="matrix(0.07407407407407406,0,0,0.07407407407407406,14.814814814814811,0)" xlink:href="#ai"/><use transform="matrix(0.07407407407407406,0,0,0.07407407407407406,20.66666666666666,0)" xlink:href="#av"/><use transform="matrix(0.07407407407407406,0,0,0.07407407407407406,35.481481481481474,0)" xlink:href="#af"/><use transform="matrix(0.07407407407407406,0,0,0.07407407407407406,50.29629629629628,0)" xlink:href="#ad"/><use transform="matrix(0.07407407407407406,0,0,0.07407407407407406,65.1111111111111,0)" xlink:href="#aq"/></g><path fill="#333" d="M127-220V0H93v-220H8v-28h204v28h-85" id="aB"/><path fill="#333" d="M24-231v-30h32v30H24zM-9 49c24 4 33-6 33-30v-209h32V24c2 40-23 58-65 49V49" id="aC"/><g id="p"><use transform="matrix(0.07407407407407406,0,0,0.07407407407407406,0,0)" xlink:href="#aB"/><use transform="matrix(0.07407407407407406,0,0,0.07407407407407406,15.259259259259256,0)" xlink:href="#ae"/><use transform="matrix(0.07407407407407406,0,0,0.07407407407407406,24.07407407407407,0)" xlink:href="#af"/><use transform="matrix(0.07407407407407406,0,0,0.07407407407407406,38.88888888888888,0)" xlink:href="#aC"/><use transform="matrix(0.07407407407407406,0,0,0.07407407407407406,44.74074074074073,0)" xlink:href="#ac"/><use transform="matrix(0.07407407407407406,0,0,0.07407407407407406,59.555555555555536,0)" xlink:href="#at"/><use transform="matrix(0.07407407407407406,0,0,0.07407407407407406,72.88888888888887,0)" xlink:href="#ag"/><use transform="matrix(0.07407407407407406,0,0,0.07407407407407406,80.29629629629628,0)" xlink:href="#an"/><use transform="matrix(0.07407407407407406,0,0,0.07407407407407406,95.11111111111109,0)" xlink:href="#ae"/><use transform="matrix(0.07407407407407406,0,0,0.07407407407407406,103.9259259259259,0)" xlink:href="#aw"/></g><path fill="#333" d="M143 0L79-87 56-68V0H24v-261h32v163l83-92h37l-77 82L181 0h-38" id="aD"/><g id="q"><use transform="matrix(0.07407407407407406,0,0,0.07407407407407406,0,0)" xlink:href="#am"/><use transform="matrix(0.07407407407407406,0,0,0.07407407407407406,19.18518518518518,0)" xlink:href="#aj"/><use transform="matrix(0.07407407407407406,0,0,0.07407407407407406,33.99999999999999,0)" xlink:href="#ac"/><use transform="matrix(0.07407407407407406,0,0,0.07407407407407406,48.8148148148148,0)" xlink:href="#at"/><use transform="matrix(0.07407407407407406,0,0,0.07407407407407406,62.14814814814813,0)" xlink:href="#aD"/></g><g id="r"><use transform="matrix(0.07407407407407406,0,0,0.07407407407407406,0,0)" xlink:href="#ag"/><use transform="matrix(0.07407407407407406,0,0,0.07407407407407406,7.407407407407406,0)" xlink:href="#an"/><use transform="matrix(0.07407407407407406,0,0,0.07407407407407406,22.222222222222218,0)" xlink:href="#al"/><use transform="matrix(0.07407407407407406,0,0,0.07407407407407406,37.03703703703703,0)" xlink:href="#an"/><use transform="matrix(0.07407407407407406,0,0,0.07407407407407406,51.85185185185184,0)" xlink:href="#ak"/><use transform="matrix(0.07407407407407406,0,0,0.07407407407407406,57.70370370370369,0)" xlink:href="#an"/><use transform="matrix(0.07407407407407406,0,0,0.07407407407407406,72.5185185185185,0)" xlink:href="#av"/><use transform="matrix(0.07407407407407406,0,0,0.07407407407407406,87.33333333333331,0)" xlink:href="#aw"/></g><g id="s"><use transform="matrix(0.07407407407407406,0,0,0.07407407407407406,0,0)" xlink:href="#ax"/><use transform="matrix(0.07407407407407406,0,0,0.07407407407407406,7.407407407407406,0)" xlink:href="#ai"/><use transform="matrix(0.07407407407407406,0,0,0.07407407407407406,13.259259259259256,0)" xlink:href="#ak"/><use transform="matrix(0.07407407407407406,0,0,0.07407407407407406,19.111111111111107,0)" xlink:href="#ac"/></g><path fill="#333" d="M135-143c-3-34-86-38-87 0 15 53 115 12 119 90S17 21 10-45l28-5c4 36 97 45 98 0-10-56-113-15-118-90-4-57 82-63 122-42 12 7 21 19 24 35" id="aE"/><g id="t"><use transform="matrix(0.07407407407407406,0,0,0.07407407407407406,0,0)" xlink:href="#at"/><use transform="matrix(0.07407407407407406,0,0,0.07407407407407406,13.33333333333333,0)" xlink:href="#an"/><use transform="matrix(0.07407407407407406,0,0,0.07407407407407406,28.14814814814814,0)" xlink:href="#ad"/><use transform="matrix(0.07407407407407406,0,0,0.07407407407407406,42.962962962962955,0)" xlink:href="#aE"/><use transform="matrix(0.07407407407407406,0,0,0.07407407407407406,56.29629629629628,0)" xlink:href="#ai"/><use transform="matrix(0.07407407407407406,0,0,0.07407407407407406,62.14814814814813,0)" xlink:href="#aE"/><use transform="matrix(0.07407407407407406,0,0,0.07407407407407406,75.48148148148147,0)" xlink:href="#ag"/><use transform="matrix(0.07407407407407406,0,0,0.07407407407407406,82.88888888888887,0)" xlink:href="#ac"/><use transform="matrix(0.07407407407407406,0,0,0.07407407407407406,97.70370370370368,0)" xlink:href="#ad"/><use transform="matrix(0.07407407407407406,0,0,0.07407407407407406,112.51851851851849,0)" xlink:href="#at"/><use transform="matrix(0.07407407407407406,0,0,0.07407407407407406,125.85185185185182,0)" xlink:href="#aw"/></g><g id="u"><use transform="matrix(0.07407407407407406,0,0,0.07407407407407406,0,0)" xlink:href="#am"/><use transform="matrix(0.07407407407407406,0,0,0.07407407407407406,19.18518518518518,0)" xlink:href="#ae"/><use transform="matrix(0.07407407407407406,0,0,0.07407407407407406,27.999999999999993,0)" xlink:href="#ac"/><use transform="matrix(0.07407407407407406,0,0,0.07407407407407406,42.8148148148148,0)" xlink:href="#af"/><use transform="matrix(0.07407407407407406,0,0,0.07407407407407406,57.62962962962962,0)" xlink:href="#ag"/><use transform="matrix(0.07407407407407406,0,0,0.07407407407407406,65.03703703703702,0)" xlink:href="#ac"/></g><g id="v"><use transform="matrix(0.07407407407407406,0,0,0.07407407407407406,0,0)" xlink:href="#ai"/><use transform="matrix(0.07407407407407406,0,0,0.07407407407407406,5.85185185185185,0)" xlink:href="#ad"/><use transform="matrix(0.07407407407407406,0,0,0.07407407407407406,20.66666666666666,0)" xlink:href="#al"/><use transform="matrix(0.07407407407407406,0,0,0.07407407407407406,35.481481481481474,0)" xlink:href="#as"/><use transform="matrix(0.07407407407407406,0,0,0.07407407407407406,50.29629629629628,0)" xlink:href="#ag"/></g><g id="w"><use transform="matrix(0.07407407407407406,0,0,0.07407407407407406,0,0)" xlink:href="#ax"/><use transform="matrix(0.07407407407407406,0,0,0.07407407407407406,7.407407407407406,0)" xlink:href="#ai"/><use transform="matrix(0.07407407407407406,0,0,0.07407407407407406,13.259259259259256,0)" xlink:href="#ak"/><use transform="matrix(0.07407407407407406,0,0,0.07407407407407406,19.111111111111107,0)" xlink:href="#ac"/><use transform="matrix(0.07407407407407406,0,0,0.07407407407407406,33.92592592592592,0)" xlink:href="#aE"/></g><g id="x"><use transform="matrix(0.07407407407407406,0,0,0.07407407407407406,0,0)" xlink:href="#ax"/><use transform="matrix(0.07407407407407406,0,0,0.07407407407407406,7.407407407407406,0)" xlink:href="#an"/><use transform="matrix(0.07407407407407406,0,0,0.07407407407407406,22.222222222222218,0)" xlink:href="#ae"/></g><g id="y"><use transform="matrix(0.07407407407407406,0,0,0.07407407407407406,0,0)" xlink:href="#ac"/><use transform="matrix(0.07407407407407406,0,0,0.07407407407407406,14.814814814814811,0)" xlink:href="#ay"/><use transform="matrix(0.07407407407407406,0,0,0.07407407407407406,28.14814814814814,0)" xlink:href="#ag"/><use transform="matrix(0.07407407407407406,0,0,0.07407407407407406,35.55555555555555,0)" xlink:href="#ac"/><use transform="matrix(0.07407407407407406,0,0,0.07407407407407406,50.37037037037036,0)" xlink:href="#ae"/><use transform="matrix(0.07407407407407406,0,0,0.07407407407407406,59.185185185185176,0)" xlink:href="#ad"/><use transform="matrix(0.07407407407407406,0,0,0.07407407407407406,73.99999999999999,0)" xlink:href="#af"/><use transform="matrix(0.07407407407407406,0,0,0.07407407407407406,88.8148148148148,0)" xlink:href="#ak"/></g><g id="z"><use transform="matrix(0.07407407407407406,0,0,0.07407407407407406,0,0)" xlink:href="#al"/><use transform="matrix(0.07407407407407406,0,0,0.07407407407407406,14.814814814814811,0)" xlink:href="#ae"/><use transform="matrix(0.07407407407407406,0,0,0.07407407407407406,23.62962962962963,0)" xlink:href="#an"/><use transform="matrix(0.07407407407407406,0,0,0.07407407407407406,38.444444444444436,0)" xlink:href="#av"/><use transform="matrix(0.07407407407407406,0,0,0.07407407407407406,53.259259259259245,0)" xlink:href="#ae"/><use transform="matrix(0.07407407407407406,0,0,0.07407407407407406,62.07407407407406,0)" xlink:href="#af"/><use transform="matrix(0.07407407407407406,0,0,0.07407407407407406,76.88888888888887,0)" xlink:href="#ap"/><use transform="matrix(0.07407407407407406,0,0,0.07407407407407406,99.03703703703701,0)" xlink:href="#aE"/></g><g id="A"><use transform="matrix(0.07407407407407406,0,0,0.07407407407407406,0,0)" xlink:href="#am"/><use transform="matrix(0.07407407407407406,0,0,0.07407407407407406,19.18518518518518,0)" xlink:href="#af"/><use transform="matrix(0.07407407407407406,0,0,0.07407407407407406,33.99999999999999,0)" xlink:href="#ak"/><use transform="matrix(0.07407407407407406,0,0,0.07407407407407406,39.85185185185184,0)" xlink:href="#ak"/></g><g id="B"><use transform="matrix(0.07407407407407406,0,0,0.07407407407407406,0,0)" xlink:href="#al"/><use transform="matrix(0.07407407407407406,0,0,0.07407407407407406,14.814814814814811,0)" xlink:href="#ae"/><use transform="matrix(0.07407407407407406,0,0,0.07407407407407406,23.62962962962963,0)" xlink:href="#an"/><use transform="matrix(0.07407407407407406,0,0,0.07407407407407406,38.444444444444436,0)" xlink:href="#av"/><use transform="matrix(0.07407407407407406,0,0,0.07407407407407406,53.259259259259245,0)" xlink:href="#ae"/><use transform="matrix(0.07407407407407406,0,0,0.07407407407407406,62.07407407407406,0)" xlink:href="#af"/><use transform="matrix(0.07407407407407406,0,0,0.07407407407407406,76.88888888888887,0)" xlink:href="#ap"/><use transform="matrix(0.07407407407407406,0,0,0.07407407407407406,99.03703703703701,0)" xlink:href="#aE"/></g><g id="C"><use transform="matrix(0.07407407407407406,0,0,0.07407407407407406,0,0)" xlink:href="#ag"/><use transform="matrix(0.07407407407407406,0,0,0.07407407407407406,7.407407407407406,0)" xlink:href="#an"/></g><g id="D"><use transform="matrix(0.07407407407407406,0,0,0.07407407407407406,0,0)" xlink:href="#at"/><use transform="matrix(0.07407407407407406,0,0,0.07407407407407406,13.33333333333333,0)" xlink:href="#af"/><use transform="matrix(0.07407407407407406,0,0,0.07407407407407406,28.14814814814814,0)" xlink:href="#ak"/><use transform="matrix(0.07407407407407406,0,0,0.07407407407407406,33.99999999999999,0)" xlink:href="#at"/><use transform="matrix(0.07407407407407406,0,0,0.07407407407407406,47.33333333333332,0)" xlink:href="#as"/><use transform="matrix(0.07407407407407406,0,0,0.07407407407407406,62.14814814814813,0)" xlink:href="#ak"/><use transform="matrix(0.07407407407407406,0,0,0.07407407407407406,67.99999999999999,0)" xlink:href="#af"/><use transform="matrix(0.07407407407407406,0,0,0.07407407407407406,82.8148148148148,0)" xlink:href="#ag"/><use transform="matrix(0.07407407407407406,0,0,0.07407407407407406,90.2222222222222,0)" xlink:href="#ac"/></g><g id="E"><use transform="matrix(0.07407407407407406,0,0,0.07407407407407406,0,0)" xlink:href="#ac"/><use transform="matrix(0.07407407407407406,0,0,0.07407407407407406,14.814814814814811,0)" xlink:href="#ad"/><use transform="matrix(0.07407407407407406,0,0,0.07407407407407406,29.629629629629623,0)" xlink:href="#ac"/><use transform="matrix(0.07407407407407406,0,0,0.07407407407407406,44.444444444444436,0)" xlink:href="#ae"/><use transform="matrix(0.07407407407407406,0,0,0.07407407407407406,53.25925925925925,0)" xlink:href="#av"/><use transform="matrix(0.07407407407407406,0,0,0.07407407407407406,68.07407407407406,0)" xlink:href="#aw"/></g><g id="F"><use transform="matrix(0.07407407407407406,0,0,0.07407407407407406,0,0)" xlink:href="#af"/><use transform="matrix(0.07407407407407406,0,0,0.07407407407407406,14.814814814814811,0)" xlink:href="#ad"/><use transform="matrix(0.07407407407407406,0,0,0.07407407407407406,29.629629629629623,0)" xlink:href="#aq"/><use transform="matrix(0.07407407407407406,0,0,0.07407407407407406,44.444444444444436,0)" xlink:href="#au"/><use transform="matrix(0.07407407407407406,0,0,0.07407407407407406,51.85185185185184,0)" xlink:href="#an"/><use transform="matrix(0.07407407407407406,0,0,0.07407407407407406,66.66666666666666,0)" xlink:href="#ae"/></g><g id="G"><use transform="matrix(0.07407407407407406,0,0,0.07407407407407406,0,0)" xlink:href="#ac"/><use transform="matrix(0.07407407407407406,0,0,0.07407407407407406,14.814814814814811,0)" xlink:href="#ad"/><use transform="matrix(0.07407407407407406,0,0,0.07407407407407406,29.629629629629623,0)" xlink:href="#ag"/><use transform="matrix(0.07407407407407406,0,0,0.07407407407407406,37.03703703703703,0)" xlink:href="#ae"/><use transform="matrix(0.07407407407407406,0,0,0.07407407407407406,45.85185185185185,0)" xlink:href="#an"/><use transform="matrix(0.07407407407407406,0,0,0.07407407407407406,60.66666666666666,0)" xlink:href="#al"/><use transform="matrix(0.07407407407407406,0,0,0.07407407407407406,75.48148148148147,0)" xlink:href="#aw"/></g><g id="H"><use transform="matrix(0.07407407407407406,0,0,0.07407407407407406,0,0)" xlink:href="#am"/><use transform="matrix(0.07407407407407406,0,0,0.07407407407407406,19.18518518518518,0)" xlink:href="#af"/><use transform="matrix(0.07407407407407406,0,0,0.07407407407407406,33.99999999999999,0)" xlink:href="#ak"/><use transform="matrix(0.07407407407407406,0,0,0.07407407407407406,39.85185185185184,0)" xlink:href="#at"/><use transform="matrix(0.07407407407407406,0,0,0.07407407407407406,53.18518518518517,0)" xlink:href="#as"/><use transform="matrix(0.07407407407407406,0,0,0.07407407407407406,67.99999999999999,0)" xlink:href="#ak"/><use transform="matrix(0.07407407407407406,0,0,0.07407407407407406,73.85185185185183,0)" xlink:href="#af"/><use transform="matrix(0.07407407407407406,0,0,0.07407407407407406,88.66666666666664,0)" xlink:href="#ag"/><use transform="matrix(0.07407407407407406,0,0,0.07407407407407406,96.07407407407405,0)" xlink:href="#ac"/></g><g id="I"><use transform="matrix(0.07407407407407406,0,0,0.07407407407407406,0,0)" xlink:href="#ax"/><use transform="matrix(0.07407407407407406,0,0,0.07407407407407406,7.407407407407406,0)" xlink:href="#ae"/><use transform="matrix(0.07407407407407406,0,0,0.07407407407407406,16.222222222222218,0)" xlink:href="#ac"/><use transform="matrix(0.07407407407407406,0,0,0.07407407407407406,31.03703703703703,0)" xlink:href="#ac"/></g><g id="J"><use transform="matrix(0.07407407407407406,0,0,0.07407407407407406,0,0)" xlink:href="#aE"/><use transform="matrix(0.07407407407407406,0,0,0.07407407407407406,13.33333333333333,0)" xlink:href="#ag"/><use transform="matrix(0.07407407407407406,0,0,0.07407407407407406,20.740740740740737,0)" xlink:href="#af"/><use transform="matrix(0.07407407407407406,0,0,0.07407407407407406,35.55555555555555,0)" xlink:href="#ag"/><use transform="matrix(0.07407407407407406,0,0,0.07407407407407406,42.962962962962955,0)" xlink:href="#ai"/><use transform="matrix(0.07407407407407406,0,0,0.07407407407407406,48.8148148148148,0)" xlink:href="#aE"/><use transform="matrix(0.07407407407407406,0,0,0.07407407407407406,62.14814814814813,0)" xlink:href="#ag"/><use transform="matrix(0.07407407407407406,0,0,0.07407407407407406,69.55555555555554,0)" xlink:href="#ai"/><use transform="matrix(0.07407407407407406,0,0,0.07407407407407406,75.40740740740739,0)" xlink:href="#at"/><use transform="matrix(0.07407407407407406,0,0,0.07407407407407406,88.74074074074072,0)" xlink:href="#aE"/></g><path fill="#333" d="M240 0l2-218c-23 76-54 145-80 218h-23L58-218 59 0H30v-248h44l77 211c21-75 51-140 76-211h43V0h-30" id="aF"/><path fill="#333" d="M30-248c87 1 191-15 191 75 0 78-77 80-158 76V0H30v-248zm33 125c57 0 124 11 124-50 0-59-68-47-124-48v98" id="aG"/><path fill="#333" d="M160-131c35 5 61 23 61 61C221 17 115-2 30 0v-248c76 3 177-17 177 60 0 33-19 50-47 57zm-97-11c50-1 110 9 110-42 0-47-63-36-110-37v79zm0 115c55-2 124 14 124-45 0-56-70-42-124-44v89" id="aH"/><path fill="#333" d="M205 0l-28-72H64L36 0H1l101-248h38L239 0h-34zm-38-99l-47-123c-12 45-31 82-46 123h93" id="aI"/><path fill="#333" d="M33 0v-38h34V0H33" id="aJ"/><g id="K"><use transform="matrix(0.06172839506172839,0,0,0.06172839506172839,0,0)" xlink:href="#aF"/><use transform="matrix(0.06172839506172839,0,0,0.06172839506172839,18.456790123456788,0)" xlink:href="#aF"/><use transform="matrix(0.06172839506172839,0,0,0.06172839506172839,36.913580246913575,0)" xlink:href="#aG"/><use transform="matrix(0.06172839506172839,0,0,0.06172839506172839,51.72839506172839,0)" xlink:href="#aH"/><use transform="matrix(0.06172839506172839,0,0,0.06172839506172839,66.5432098765432,0)" xlink:href="#ar"/><use transform="matrix(0.06172839506172839,0,0,0.06172839506172839,81.35802469135801,0)" xlink:href="#aI"/><use transform="matrix(0.06172839506172839,0,0,0.06172839506172839,96.17283950617282,0)" xlink:href="#aJ"/><use transform="matrix(0.06172839506172839,0,0,0.06172839506172839,102.34567901234566,0)" xlink:href="#al"/><use transform="matrix(0.06172839506172839,0,0,0.06172839506172839,114.69135802469134,0)" xlink:href="#aw"/></g><g id="L"><use transform="matrix(0.06172839506172839,0,0,0.06172839506172839,0,0)" xlink:href="#at"/><use transform="matrix(0.06172839506172839,0,0,0.06172839506172839,11.11111111111111,0)" xlink:href="#an"/><use transform="matrix(0.06172839506172839,0,0,0.06172839506172839,23.45679012345679,0)" xlink:href="#ae"/><use transform="matrix(0.06172839506172839,0,0,0.06172839506172839,30.80246913580247,0)" xlink:href="#ac"/></g><path fill="#333" d="M30-248c118-7 216 8 213 122C240-48 200 0 122 0H30v-248zM63-27c89 8 146-16 146-99s-60-101-146-95v194" id="aK"/><g id="M"><use transform="matrix(0.06790123456790123,0,0,0.06790123456790123,0,0)" xlink:href="#aK"/><use transform="matrix(0.06790123456790123,0,0,0.06790123456790123,17.586419753086417,0)" xlink:href="#ae"/><use transform="matrix(0.06790123456790123,0,0,0.06790123456790123,25.666666666666664,0)" xlink:href="#aw"/></g><path fill="#333" d="M103-251c84 0 111 97 45 133-19 10-37 24-39 52H78c0-63 77-55 77-114 0-30-21-42-52-43-32 0-53 17-56 46l-32-2c7-45 34-72 88-72zM77 0v-35h34V0H77" id="aL"/><g id="N"><use transform="matrix(0.06790123456790123,0,0,0.06790123456790123,0,0)" xlink:href="#ag"/><use transform="matrix(0.06790123456790123,0,0,0.06790123456790123,6.790123456790123,0)" xlink:href="#ae"/><use transform="matrix(0.06790123456790123,0,0,0.06790123456790123,14.87037037037037,0)" xlink:href="#af"/><use transform="matrix(0.06790123456790123,0,0,0.06790123456790123,28.450617283950617,0)" xlink:href="#aC"/><use transform="matrix(0.06790123456790123,0,0,0.06790123456790123,33.81481481481482,0)" xlink:href="#ac"/><use transform="matrix(0.06790123456790123,0,0,0.06790123456790123,47.39506172839506,0)" xlink:href="#at"/><use transform="matrix(0.06790123456790123,0,0,0.06790123456790123,59.617283950617285,0)" xlink:href="#ag"/><use transform="matrix(0.06790123456790123,0,0,0.06790123456790123,66.4074074074074,0)" xlink:href="#an"/><use transform="matrix(0.06790123456790123,0,0,0.06790123456790123,79.98765432098764,0)" xlink:href="#ae"/><use transform="matrix(0.06790123456790123,0,0,0.06790123456790123,88.0679012345679,0)" xlink:href="#ai"/><use transform="matrix(0.06790123456790123,0,0,0.06790123456790123,93.43209876543212,0)" xlink:href="#ac"/><use transform="matrix(0.06790123456790123,0,0,0.06790123456790123,107.01234567901236,0)" xlink:href="#aE"/><use transform="matrix(0.06790123456790123,0,0,0.06790123456790123,119.23456790123457,0)" xlink:href="#aL"/></g><g id="O"><use transform="matrix(0.07407407407407406,0,0,0.07407407407407406,0,0)" xlink:href="#aK"/><use transform="matrix(0.07407407407407406,0,0,0.07407407407407406,19.18518518518518,0)" xlink:href="#ae"/><use transform="matrix(0.07407407407407406,0,0,0.07407407407407406,27.999999999999993,0)" xlink:href="#aw"/></g><path fill="#333" d="M146-102V0H94v-102L6-248h54l60 105 60-105h54" id="aM"/><path fill="#333" d="M185-48c-13 30-37 53-82 52C43 2 14-33 14-96s30-98 90-98c62 0 83 45 84 108H66c0 31 8 55 39 56 18 0 30-7 34-22zm-45-69c5-46-57-63-70-21-2 6-4 13-4 21h74" id="aN"/><path fill="#333" d="M137-138c1-29-70-34-71-4 15 46 118 7 119 86 1 83-164 76-172 9l43-7c4 19 20 25 44 25 33 8 57-30 24-41C81-84 22-81 20-136c-2-80 154-74 161-7" id="aO"/><g id="P"><use transform="matrix(0.05555555555555555,0,0,0.05555555555555555,0,0)" xlink:href="#aM"/><use transform="matrix(0.05555555555555555,0,0,0.05555555555555555,12.222222222222221,0)" xlink:href="#aN"/><use transform="matrix(0.05555555555555555,0,0,0.05555555555555555,23.333333333333332,0)" xlink:href="#aO"/></g><g id="Q"><use transform="matrix(0.06172839506172839,0,0,0.06172839506172839,0,0)" xlink:href="#am"/><use transform="matrix(0.06172839506172839,0,0,0.06172839506172839,15.987654320987653,0)" xlink:href="#ak"/><use transform="matrix(0.06172839506172839,0,0,0.06172839506172839,20.864197530864196,0)" xlink:href="#ac"/><use transform="matrix(0.06172839506172839,0,0,0.06172839506172839,33.20987654320987,0)" xlink:href="#af"/><use transform="matrix(0.06172839506172839,0,0,0.06172839506172839,45.55555555555555,0)" xlink:href="#ad"/></g><g id="R"><use transform="matrix(0.06172839506172839,0,0,0.06172839506172839,0,0)" xlink:href="#as"/><use transform="matrix(0.06172839506172839,0,0,0.06172839506172839,12.345679012345679,0)" xlink:href="#al"/></g><path fill="#333" d="M135-194c87-1 58 113 63 194h-50c-7-57 23-157-34-157-59 0-34 97-39 157H25l-1-190h47c2 12-1 28 3 38 12-26 28-41 61-42" id="aP"/><path fill="#333" d="M110-194c64 0 96 36 96 99 0 64-35 99-97 99-61 0-95-36-95-99 0-62 34-99 96-99zm-1 164c35 0 45-28 45-65 0-40-10-65-43-65-34 0-45 26-45 65 0 36 10 65 43 65" id="aQ"/><g id="S"><use transform="matrix(0.05555555555555555,0,0,0.05555555555555555,0,0)" xlink:href="#aP"/><use transform="matrix(0.05555555555555555,0,0,0.05555555555555555,12.166666666666666,0)" xlink:href="#aQ"/></g><path fill="#333" d="M30 0v-248h187v28H63v79h144v27H63v87h162V0H30" id="aR"/><g id="T"><use transform="matrix(0.07407407407407406,0,0,0.07407407407407406,0,0)" xlink:href="#aI"/><use transform="matrix(0.07407407407407406,0,0,0.07407407407407406,17.777777777777775,0)" xlink:href="#aF"/><use transform="matrix(0.07407407407407406,0,0,0.07407407407407406,39.92592592592592,0)" xlink:href="#aH"/><use transform="matrix(0.07407407407407406,0,0,0.07407407407407406,57.703703703703695,0)" xlink:href="#aR"/><use transform="matrix(0.07407407407407406,0,0,0.07407407407407406,75.48148148148147,0)" xlink:href="#az"/></g><g id="U"><use transform="matrix(0.07407407407407406,0,0,0.07407407407407406,0,0)" xlink:href="#aB"/><use transform="matrix(0.07407407407407406,0,0,0.07407407407407406,13.259259259259256,0)" xlink:href="#an"/><use transform="matrix(0.07407407407407406,0,0,0.07407407407407406,28.074074074074066,0)" xlink:href="#al"/><use transform="matrix(0.07407407407407406,0,0,0.07407407407407406,42.88888888888888,0)" xlink:href="#an"/><use transform="matrix(0.07407407407407406,0,0,0.07407407407407406,57.70370370370369,0)" xlink:href="#ak"/><use transform="matrix(0.07407407407407406,0,0,0.07407407407407406,63.55555555555553,0)" xlink:href="#an"/><use transform="matrix(0.07407407407407406,0,0,0.07407407407407406,78.37037037037035,0)" xlink:href="#av"/><use transform="matrix(0.07407407407407406,0,0,0.07407407407407406,93.18518518518516,0)" xlink:href="#aw"/></g><g id="V"><use transform="matrix(0.06790123456790123,0,0,0.06790123456790123,0,0)" xlink:href="#aG"/><use transform="matrix(0.06790123456790123,0,0,0.06790123456790123,16.296296296296294,0)" xlink:href="#ae"/><use transform="matrix(0.06790123456790123,0,0,0.06790123456790123,24.37654320987654,0)" xlink:href="#ai"/><use transform="matrix(0.06790123456790123,0,0,0.06790123456790123,29.740740740740737,0)" xlink:href="#ad"/><use transform="matrix(0.06790123456790123,0,0,0.06790123456790123,43.32098765432099,0)" xlink:href="#ag"/></g><g id="W"><use transform="matrix(0.06790123456790123,0,0,0.06790123456790123,0,0)" xlink:href="#ax"/><use transform="matrix(0.06790123456790123,0,0,0.06790123456790123,6.790123456790123,0)" xlink:href="#ai"/><use transform="matrix(0.06790123456790123,0,0,0.06790123456790123,12.15432098765432,0)" xlink:href="#ad"/><use transform="matrix(0.06790123456790123,0,0,0.06790123456790123,25.734567901234566,0)" xlink:href="#af"/><use transform="matrix(0.06790123456790123,0,0,0.06790123456790123,39.31481481481481,0)" xlink:href="#ak"/></g><g id="X"><use transform="matrix(0.06790123456790123,0,0,0.06790123456790123,0,0)" xlink:href="#ae"/><use transform="matrix(0.06790123456790123,0,0,0.06790123456790123,8.080246913580247,0)" xlink:href="#ac"/><use transform="matrix(0.06790123456790123,0,0,0.06790123456790123,21.660493827160494,0)" xlink:href="#aE"/><use transform="matrix(0.06790123456790123,0,0,0.06790123456790123,33.882716049382715,0)" xlink:href="#as"/><use transform="matrix(0.06790123456790123,0,0,0.06790123456790123,47.46296296296296,0)" xlink:href="#ak"/><use transform="matrix(0.06790123456790123,0,0,0.06790123456790123,52.82716049382716,0)" xlink:href="#ag"/><use transform="matrix(0.06790123456790123,0,0,0.06790123456790123,59.61728395061728,0)" xlink:href="#aE"/></g><path fill="#333" d="M-5 72V49h209v23H-5" id="aS"/><g id="Y"><use transform="matrix(0.06790123456790123,0,0,0.06790123456790123,0,0)" xlink:href="#av"/><use transform="matrix(0.06790123456790123,0,0,0.06790123456790123,13.580246913580247,0)" xlink:href="#ap"/><use transform="matrix(0.06790123456790123,0,0,0.06790123456790123,33.882716049382715,0)" xlink:href="#ay"/><use transform="matrix(0.06790123456790123,0,0,0.06790123456790123,46.10493827160494,0)" xlink:href="#aS"/><use transform="matrix(0.06790123456790123,0,0,0.06790123456790123,59.68518518518518,0)" xlink:href="#aF"/><use transform="matrix(0.06790123456790123,0,0,0.06790123456790123,79.98765432098764,0)" xlink:href="#aF"/><use transform="matrix(0.06790123456790123,0,0,0.06790123456790123,100.29012345679011,0)" xlink:href="#aG"/><use transform="matrix(0.06790123456790123,0,0,0.06790123456790123,116.5864197530864,0)" xlink:href="#aH"/><use transform="matrix(0.06790123456790123,0,0,0.06790123456790123,132.8827160493827,0)" xlink:href="#ar"/><use transform="matrix(0.06790123456790123,0,0,0.06790123456790123,149.179012345679,0)" xlink:href="#aI"/><use transform="matrix(0.06790123456790123,0,0,0.06790123456790123,165.47530864197532,0)" xlink:href="#aS"/><use transform="matrix(0.06790123456790123,0,0,0.06790123456790123,179.05555555555557,0)" xlink:href="#af"/><use transform="matrix(0.06790123456790123,0,0,0.06790123456790123,192.63580246913583,0)" xlink:href="#ad"/><use transform="matrix(0.06790123456790123,0,0,0.06790123456790123,206.21604938271608,0)" xlink:href="#af"/></g><g id="Z"><use transform="matrix(0.06172839506172839,0,0,0.06172839506172839,0,0)" xlink:href="#am"/><use transform="matrix(0.06172839506172839,0,0,0.06172839506172839,15.987654320987653,0)" xlink:href="#af"/><use transform="matrix(0.06172839506172839,0,0,0.06172839506172839,28.333333333333332,0)" xlink:href="#ak"/><use transform="matrix(0.06172839506172839,0,0,0.06172839506172839,33.20987654320987,0)" xlink:href="#at"/><use transform="matrix(0.06172839506172839,0,0,0.06172839506172839,44.32098765432099,0)" xlink:href="#as"/><use transform="matrix(0.06172839506172839,0,0,0.06172839506172839,56.666666666666664,0)" xlink:href="#ak"/><use transform="matrix(0.06172839506172839,0,0,0.06172839506172839,61.54320987654321,0)" xlink:href="#af"/><use transform="matrix(0.06172839506172839,0,0,0.06172839506172839,73.88888888888889,0)" xlink:href="#ag"/><use transform="matrix(0.06172839506172839,0,0,0.06172839506172839,80.06172839506172,0)" xlink:href="#ai"/><use transform="matrix(0.06172839506172839,0,0,0.06172839506172839,84.93827160493827,0)" xlink:href="#an"/><use transform="matrix(0.06172839506172839,0,0,0.06172839506172839,97.28395061728395,0)" xlink:href="#ad"/></g><g id="aa"><use transform="matrix(0.06172839506172839,0,0,0.06172839506172839,0,0)" xlink:href="#aG"/><use transform="matrix(0.06172839506172839,0,0,0.06172839506172839,14.814814814814813,0)" xlink:href="#ae"/><use transform="matrix(0.06172839506172839,0,0,0.06172839506172839,22.160493827160494,0)" xlink:href="#ac"/><use transform="matrix(0.06172839506172839,0,0,0.06172839506172839,34.50617283950617,0)" xlink:href="#al"/><use transform="matrix(0.06172839506172839,0,0,0.06172839506172839,46.85185185185185,0)" xlink:href="#af"/><use transform="matrix(0.06172839506172839,0,0,0.06172839506172839,59.197530864197525,0)" xlink:href="#ae"/><use transform="matrix(0.06172839506172839,0,0,0.06172839506172839,66.5432098765432,0)" xlink:href="#af"/><use transform="matrix(0.06172839506172839,0,0,0.06172839506172839,78.88888888888889,0)" xlink:href="#ag"/><use transform="matrix(0.06172839506172839,0,0,0.06172839506172839,85.06172839506172,0)" xlink:href="#ai"/><use transform="matrix(0.06172839506172839,0,0,0.06172839506172839,89.93827160493827,0)" xlink:href="#an"/><use transform="matrix(0.06172839506172839,0,0,0.06172839506172839,102.28395061728395,0)" xlink:href="#ad"/></g></defs></g></svg>