<svg xmlns="http://www.w3.org/2000/svg" xmlns:xlink="http://www.w3.org/1999/xlink" xmlns:lucid="lucid" width="1237.4" height="961.2"><g transform="translate(-337.79527559055117 -101.3162729658793)" lucid:page-tab-id="0_0"><path d="M357.8 170.7c0-3.3 2.68-6 6-6h148c3.3 0 6 2.7 6 6v48c0 3.3-2.7 6-6 6h-148c-3.32 0-6-2.7-6-6z" stroke="#5e5e5e" stroke-width="3" fill="#fff"/><use xlink:href="#a" transform="matrix(1,0,0,1,362.79527559055117,169.69963910760168) translate(24.037037037037038 30.708333333333332)"/><path d="M1200 164.33c0-3.3 2.7-6 6-6h148c3.3 0 6 2.7 6 6v48c0 3.32-2.7 6-6 6h-148c-3.3 0-6-2.68-6-6z" stroke="#5e5e5e" stroke-width="3" fill="#fff"/><use xlink:href="#b" transform="matrix(1,0,0,1,1205,163.33333333333334) translate(35.814814814814824 30.708333333333332)"/><path d="M927 962.52c24.36 0 44.12 17.9 44.12 40s-19.76 40-44.13 40H794.6c-24.4 0-44.15-17.9-44.15-40s19.76-40 44.14-40z" stroke="#5e5e5e" stroke-width="3" fill="#fff"/><use xlink:href="#c" transform="matrix(1,0,0,1,755.4540682414698,967.5196850393701) translate(1.9444444444444713 41.02083333333333)"/><use xlink:href="#d" transform="matrix(1,0,0,1,755.4540682414698,967.5196850393701) translate(87.72222222222223 41.02083333333333)"/><path d="M675.28 343.64c0-3.32 2.68-6 6-6h163.1c3.33 0 6 2.68 6 6v79.67C821.16 409 802.95 409 791.9 409c-17.5 0-40.8 14.3-58.3 14.3-10.87 0-29.25 0-58.32-14.3z" stroke="#5e5e5e" stroke-width="3" fill="#fff"/><use xlink:href="#e" transform="matrix(1,0,0,1,680.275590551181,342.6377952755905) translate(14.222222222222229 21.333333333333332)"/><use xlink:href="#f" transform="matrix(1,0,0,1,680.275590551181,342.6377952755905) translate(32.66666666666668 53.33333333333333)"/><path d="M1305.2 375.44c0-3.3 2.68-6 6-6h238c3.3 0 6 2.7 6 6v82.8c-41.75-14.83-67.75-14.83-83.5-14.83-25 0-58.25 14.84-83.25 14.84-15.5 0-41.75 0-83.25-14.83z" stroke="#0c7cba" stroke-width="3" fill="#fff"/><use xlink:href="#g" transform="matrix(1,0,0,1,1310.1968503937007,374.44399606298225) translate(29.851851851851876 21.333333333333332)"/><use xlink:href="#h" transform="matrix(1,0,0,1,1310.1968503937007,374.44399606298225) translate(103.70370370370371 21.333333333333332)"/><use xlink:href="#i" transform="matrix(1,0,0,1,1310.1968503937007,374.44399606298225) translate(82.2962962962963 53.33333333333333)"/><path d="M1123.35 331.1c2.68-1.96 7.03-1.96 9.7 0l56.13 40.8c2.68 1.95 2.68 5.1 0 7.06l-56.12 40.82c-2.68 1.95-7.03 1.95-9.7 0l-56.13-40.82c-2.68-1.95-2.68-5.1 0-7.06z" stroke="#5e5e5e" stroke-width="3" fill="#fff"/><use xlink:href="#j" transform="matrix(1,0,0,1,1067.3779527559054,332.5590551181102) translate(7.740740740740755 48.33333333333333)"/><path d="M1425.47 608.42c2.6-2.04 6.84-2.04 9.46 0l58.57 45.7c2.6 2.05 2.6 5.35 0 7.4l-58.57 45.7c-2.62 2.05-6.85 2.05-9.46 0l-58.57-45.7c-2.62-2.05-2.62-5.35 0-7.4z" stroke="#5e5e5e" stroke-width="3" fill="#fff"/><use xlink:href="#j" transform="matrix(1,0,0,1,1367.1653543307089,609.724409448819) translate(10.240740740740755 53.83333333333333)"/><path d="M1048.2 814.62c0-3.3 2.7-6 6-6h148c3.32 0 6 2.7 6 6v62c0 3.3-2.68 6-6 6h-148c-3.3 0-6-2.7-6-6z" stroke="#5e5e5e" stroke-width="3" fill="#fff"/><use xlink:href="#k" transform="matrix(1,0,0,1,1053.2047244094488,813.6194225721756) translate(19.481481481481495 21.333333333333332)"/><use xlink:href="#l" transform="matrix(1,0,0,1,1053.2047244094488,813.6194225721756) translate(18.814814814814824 53.33333333333333)"/><use xlink:href="#m" transform="matrix(1,0,0,1,1053.2047244094488,813.6194225721756) translate(73.48148148148148 53.33333333333333)"/><path d="M844.9 439.4c0-3.33 2.67-6 6-6h191.3c3.32 0 6 2.67 6 6V544.7c0 3.3-2.68 6-6 6H850.9c-3.33 0-6-2.7-6-6z" stroke="#5e5e5e" stroke-width="3" fill="#fff"/><use xlink:href="#n" transform="matrix(1,0,0,1,856.8877952755905,445.3858267716535) translate(8.555555555555571 21.333333333333332)"/><use xlink:href="#o" transform="matrix(1,0,0,1,856.8877952755905,445.3858267716535) translate(126.99999999999999 21.333333333333332)"/><use xlink:href="#p" transform="matrix(1,0,0,1,856.8877952755905,445.3858267716535) translate(9.802469135802482 53.33333333333333)"/><use xlink:href="#q" transform="matrix(1,0,0,1,856.8877952755905,445.3858267716535) translate(48.246913580246925 53.33333333333333)"/><use xlink:href="#r" transform="matrix(1,0,0,1,856.8877952755905,445.3858267716535) translate(118.72839506172839 53.33333333333333)"/><use xlink:href="#s" transform="matrix(1,0,0,1,856.8877952755905,445.3858267716535) translate(46.543209876543216 83.55555555555556)"/><use xlink:href="#t" transform="matrix(1,0,0,1,856.8877952755905,445.3858267716535) translate(94.07407407407408 83.55555555555556)"/><path d="M740.8 127.32c0-3.32 2.67-6 6-6h228c3.3 0 6 2.68 6 6v30c0 3.3-2.7 6-6 6h-228c-3.33 0-6-2.7-6-6z" stroke="#000" stroke-opacity="0" stroke-width="3" fill="#fff" fill-opacity="0"/><use xlink:href="#u" transform="matrix(1,0,0,1,745.7874015748031,126.3162729658793) translate(62.518518518518526 23.333333333333332)"/><path d="M856.7 263c0-3.3 2.68-6 6-6h168.4c3.3 0 6 2.7 6 6v84.15c-30.14-15.05-48.9-15.05-60.26-15.05-18.04 0-42.03 15.05-60.07 15.05-11.2 0-30.13 0-60.08-15.05z" stroke="#5e5e5e" stroke-width="3" fill="#fff"/><use xlink:href="#v" transform="matrix(1,0,0,1,861.6929133858267,262.00787401574803) translate(31.500000000000014 21.333333333333332)"/><use xlink:href="#w" transform="matrix(1,0,0,1,861.6929133858267,262.00787401574803) translate(4.907407407407419 53.33333333333333)"/><use xlink:href="#x" transform="matrix(1,0,0,1,861.6929133858267,262.00787401574803) translate(59.574074074074076 53.33333333333333)"/><use xlink:href="#y" transform="matrix(1,0,0,1,861.6929133858267,262.00787401574803) translate(112.83333333333333 53.33333333333333)"/><path d="M776.06 162.8c0-3.33 2.7-6 6-6h148c3.32 0 6 2.67 6 6v84.13c-26.72-15.05-43.36-15.05-53.44-15.05-16 0-37.28 15.05-53.28 15.05-9.92 0-26.72 0-53.28-15.05z" stroke="#5e5e5e" stroke-width="3" fill="#fff"/><use xlink:href="#z" transform="matrix(1,0,0,1,781.0629921259842,161.7865813648003) translate(42.40740740740741 21.333333333333332)"/><use xlink:href="#A" transform="matrix(1,0,0,1,781.0629921259842,161.7865813648003) translate(44.70370370370371 53.33333333333333)"/><path d="M437.8 227.2v510.1c0 3.32 2.68 6 6 6h160.6c3.3 0 6 2.7 6 6v38.9" stroke="#5e5e5e" stroke-width="2" fill="none"/><path d="M438.8 227.23h-2v-1.03h2z" fill="#5e5e5e"/><path d="M610.4 803.47l-4.64-14.27h9.27z" stroke="#5e5e5e" stroke-width="2" fill="#5e5e5e"/><path d="M661.18 566.8c0-3.32 2.68-6 6-6h191.3c3.33 0 6 2.68 6 6v105.33c0 3.3-2.67 6-6 6H667.2c-3.32 0-6-2.7-6-6z" stroke="#5e5e5e" stroke-width="3" fill="#fff"/><use xlink:href="#n" transform="matrix(1,0,0,1,673.1761811023623,572.7979002624671) translate(12.259259259259267 21.333333333333332)"/><use xlink:href="#B" transform="matrix(1,0,0,1,673.1761811023623,572.7979002624671) translate(130.7037037037037 21.333333333333332)"/><use xlink:href="#p" transform="matrix(1,0,0,1,673.1761811023623,572.7979002624671) translate(9.802469135802482 53.33333333333333)"/><use xlink:href="#q" transform="matrix(1,0,0,1,673.1761811023623,572.7979002624671) translate(48.246913580246925 53.33333333333333)"/><use xlink:href="#r" transform="matrix(1,0,0,1,673.1761811023623,572.7979002624671) translate(118.72839506172839 53.33333333333333)"/><use xlink:href="#s" transform="matrix(1,0,0,1,673.1761811023623,572.7979002624671) translate(46.543209876543216 83.55555555555556)"/><use xlink:href="#t" transform="matrix(1,0,0,1,673.1761811023623,572.7979002624671) translate(94.07407407407408 83.55555555555556)"/><path d="M1280 220.83v148.6c0 3.32-2.7 6-6 6h-62.9" stroke="#5e5e5e" stroke-width="2" fill="none"/><path d="M1281 220.86h-2v-1.03h2z" fill="#5e5e5e"/><path d="M1195.83 375.43l14.26-4.63v9.27z" stroke="#5e5e5e" stroke-width="2" fill="#5e5e5e"/><path d="M852.9 380.67h102.44c1.4 0 2.53-1.13 2.53-2.53s1.13-2.53 2.53-2.53h84.94" stroke="#5e5e5e" stroke-width="2" fill="none"/><path d="M852.92 381.67h-1.03v-2h1.02z" fill="#5e5e5e"/><path d="M1060.6 375.6l-14.26 4.65v-9.27z" stroke="#5e5e5e" stroke-width="2" fill="#5e5e5e"/><path d="M1129.2 613.6l-.92 3.4-2.53 2.54-3.4.92H884.5v-2h237.57l2.64-.7 1.8-1.8.7-2.63v-95.58h2zm0-122.5h-2v-67.42h2z" fill="#5e5e5e"/><path d="M1129.2 422.7v1h-2v-1.04zM883.5 624.1l-14.27-4.64 14.27-4.63z" fill="#5e5e5e"/><path d="M884.5 625.48l-18.5-6.02 18.5-6zm-12.03-6.02l10.03 3.26v-6.5z" fill="#5e5e5e"/><use xlink:href="#C" transform="matrix(1,0,0,1,1117.7108969242563,491.0868689672615) translate(0.005000000000000782 17.77777777777778)"/><path d="M946.9 342.04v44.25c0 .08-.1.16-.18.16-.1 0-.17.08-.17.18v26.74" stroke="#5e5e5e" stroke-width="2" fill="none"/><path d="M947.9 342.06h-2v-.7l2-.65z" fill="#5e5e5e"/><path d="M946.55 428.65l-4.64-14.27h9.28z" stroke="#5e5e5e" stroke-width="2" fill="#5e5e5e"/><path d="M762.83 418.44V540.8" stroke="#5e5e5e" stroke-width="2" fill="none"/><path d="M763.83 418.47h-2v-.72l2-.62z" fill="#5e5e5e"/><path d="M762.83 556.06l-4.63-14.26h9.27z" stroke="#5e5e5e" stroke-width="2" fill="#5e5e5e"/><path d="M437.8 227.2v68.88c0 3.3 2.68 6 6 6h392.9" stroke="#5e5e5e" stroke-width="2" fill="none"/><path d="M438.8 227.23h-2v-1.03h2z" fill="#5e5e5e"/><path d="M851.96 302.08l-14.27 4.63v-9.26z" stroke="#5e5e5e" stroke-width="2" fill="#5e5e5e"/><path d="M1280 220.83v75.25c0 3.3-2.7 6-6 6h-216.9" stroke="#5e5e5e" stroke-width="2" fill="none"/><path d="M1281 220.86h-2v-1.03h2z" fill="#5e5e5e"/><path d="M1041.83 302.08l14.26-4.64v9.27z" stroke="#5e5e5e" stroke-width="2" fill="#5e5e5e"/><path d="M996.57 553.22v98.8c0 3.3 2.7 6 6 6h119.63c3.32 0 6 2.67 6 6v124.6" stroke="#5e5e5e" stroke-width="2" fill="none"/><path d="M997.57 553.24h-2v-1.02h2z" fill="#5e5e5e"/><path d="M1128.2 803.88l-4.63-14.26h9.27z" stroke="#5e5e5e" stroke-width="2" fill="#5e5e5e"/><path d="M1281 652.14l-.92 3.4-2.53 2.54-3.42.93h-139.8l-2.64.72-1.78 1.78-.72 2.64v124.48h-2V663.87l.93-3.4 2.53-2.54 3.4-.92h139.8l2.65-.7 1.8-1.78.7-2.65V220.83h2z" fill="#5e5e5e"/><path d="M1281 220.86h-2v-1.03h2zM1128.2 803.88l-4.63-14.26h9.27z" fill="#5e5e5e"/><path d="M1128.2 807.12l-6-18.5h12.02zm-3.25-16.5l3.25 10.03 3.26-10.03z" fill="#5e5e5e"/><path d="M1128.2 885.12v31.45c0 3.3-2.68 6-6 6H866.8c-3.33 0-6 2.7-6 6v13.95" stroke="#5e5e5e" stroke-width="2" fill="none"/><path d="M1129.2 885.15h-2v-1.03h2z" fill="#5e5e5e"/><path d="M860.8 957.78l-4.65-14.26h9.27z" stroke="#5e5e5e" stroke-width="2" fill="#5e5e5e"/><path d="M530.4 814.2c0-3.3 2.68-6 6-6h148c3.3 0 6 2.7 6 6v62c0 3.32-2.7 6-6 6h-148c-3.32 0-6-2.68-6-6z" stroke="#5e5e5e" stroke-width="3" fill="#fff"/><use xlink:href="#D" transform="matrix(1,0,0,1,535.3937007874016,813.2020997375312) translate(1.0740740740740904 21.333333333333332)"/><use xlink:href="#E" transform="matrix(1,0,0,1,535.3937007874016,813.2020997375312) translate(101.66666666666666 21.333333333333332)"/><use xlink:href="#F" transform="matrix(1,0,0,1,535.3937007874016,813.2020997375312) translate(29.888888888888893 53.33333333333333)"/><path d="M718.38 680.63v56.54c0 3.3-2.7 6-6 6h-96c-3.3 0-6 2.68-6 6v39.03" stroke="#5e5e5e" stroke-width="2" fill="none"/><path d="M719.38 680.66h-2v-1.03h2z" fill="#5e5e5e"/><path d="M610.4 803.47l-4.64-14.27h9.27z" stroke="#5e5e5e" stroke-width="2" fill="#5e5e5e"/><path d="M610.4 884.7v31.66c0 3.3 2.68 6 6 6h238.4c3.3 0 6 2.7 6 6v14.16" stroke="#5e5e5e" stroke-width="2" fill="none"/><path d="M611.4 884.73h-2v-1.03h2z" fill="#5e5e5e"/><path d="M860.8 957.78l-4.65-14.26h9.27z" stroke="#5e5e5e" stroke-width="2" fill="#5e5e5e"/><path d="M1304.93 658.82h-170.6l-2.64.72-1.78 1.77-.72 2.65v124.67h-2V663.7l.93-3.43 2.53-2.52 3.4-.93h170.87zm57.56 0h-19.3v-2h19.3z" fill="#5e5e5e"/><path d="M1363.4 657.36l.27 1.46h-1.2v-2h1.12zM1128.2 803.88l-4.63-14.26h9.27z" fill="#5e5e5e"/><path d="M1128.2 807.12l-6-18.5h12.02zm-3.25-16.5l3.25 10.03 3.26-10.03z" fill="#5e5e5e"/><g><use xlink:href="#G" transform="matrix(1,0,0,1,1304.929833073702,644.4881888253807) translate(0.004999999999999005 17.77777777777778)"/></g><path d="M846.22 784.7c2.65-2 6.95-2 9.6 0l70.4 52.8c2.65 2 2.65 5.2 0 7.2l-70.4 52.8c-2.65 2-6.95 2-9.6 0l-70.4-52.8c-2.65-2-2.65-5.2 0-7.2z" stroke="#5e5e5e" stroke-width="3" fill="#fff"/><g><use xlink:href="#H" transform="matrix(1,0,0,1,776.0236220472441,786.1023622047244) translate(16.560555555555577 59.343333333333334)"/></g><path d="M845.16 729.7l3.4.93 2.54 2.53.92 3.4v44.2h-2v-43.93l-.7-2.64-1.8-1.78-2.63-.72h-18.84v-2zm-80.6-2.5l1.76 1.8 2.65.7h18.82v2h-19.1l-3.4-.92-2.54-2.53-.93-3.42v-26.7h2v26.44z" fill="#5e5e5e"/><path d="M852.02 781.8l-2-.05v-1h2zM767.47 697.13h-9.27l4.63-14.26z" fill="#5e5e5e"/><path d="M768.85 698.13h-12.03l6-18.5zm-9.27-2h6.5l-3.25-10.03z" fill="#5e5e5e"/><g><use xlink:href="#G" transform="matrix(1,0,0,1,787.7933313891319,717.36874841839) translate(0.004999999999999005 17.77777777777778)"/></g><path d="M886.2 731.7h-29.04l-2.65.72-1.76 1.78-.72 2.64v43.93h-2v-44.2l.93-3.4 2.53-2.54 3.4-.92h29.32zm61.35-6.86l-.93 3.42-2.53 2.53-3.42.9h-16.2v-2h15.93l2.66-.7 1.77-1.78.72-2.64V570.72h2z" fill="#5e5e5e"/><path d="M852.02 781.8l-2-.05v-1h2zM951.18 569.72h-9.27l4.65-14.26z" fill="#5e5e5e"/><path d="M952.56 570.72h-12.03l6.02-18.5zm-9.27-2h6.5l-3.25-10.03z" fill="#5e5e5e"/><g><use xlink:href="#G" transform="matrix(1,0,0,1,886.197530864208,717.3753280839894) translate(0.004999999999999005 17.77777777777778)"/></g><path d="M1430.2 453.2v133.75" stroke="#5e5e5e" stroke-width="2" fill="none"/><path d="M1431.2 453.23h-2v-.8l2-.46z" fill="#5e5e5e"/><path d="M1430.2 602.2l-4.64-14.25h9.27z" stroke="#5e5e5e" stroke-width="2" fill="#5e5e5e"/><defs><path fill="#333" d="M212-179c-10-28-35-45-73-45-59 0-87 40-87 99 0 60 29 101 89 101 43 0 62-24 78-52l27 14C228-24 195 4 139 4 59 4 22-46 18-125c-6-104 99-153 187-111 19 9 31 26 39 46" id="I"/><path fill="#333" d="M106-169C34-169 62-67 57 0H25v-261h32l-1 103c12-21 28-36 61-36 89 0 53 116 60 194h-32v-121c2-32-8-49-39-48" id="J"/><path fill="#333" d="M141-36C126-15 110 5 73 4 37 3 15-17 15-53c-1-64 63-63 125-63 3-35-9-54-41-54-24 1-41 7-42 31l-33-3c5-37 33-52 76-52 45 0 72 20 72 64v82c-1 20 7 32 28 27v20c-31 9-61-2-59-35zM48-53c0 20 12 33 32 33 41-3 63-29 60-74-43 2-92-5-92 41" id="K"/><path fill="#333" d="M114-163C36-179 61-72 57 0H25l-1-190h30c1 12-1 29 2 39 6-27 23-49 58-41v29" id="L"/><path fill="#333" d="M210-169c-67 3-38 105-44 169h-31v-121c0-29-5-50-35-48C34-165 62-65 56 0H25l-1-190h30c1 10-1 24 2 32 10-44 99-50 107 0 11-21 27-35 58-36 85-2 47 119 55 194h-31v-121c0-29-5-49-35-48" id="M"/><g id="a"><use transform="matrix(0.07407407407407407,0,0,0.07407407407407407,0,0)" xlink:href="#I"/><use transform="matrix(0.07407407407407407,0,0,0.07407407407407407,19.185185185185183,0)" xlink:href="#J"/><use transform="matrix(0.07407407407407407,0,0,0.07407407407407407,34,0)" xlink:href="#K"/><use transform="matrix(0.07407407407407407,0,0,0.07407407407407407,48.81481481481481,0)" xlink:href="#L"/><use transform="matrix(0.07407407407407407,0,0,0.07407407407407407,57.629629629629626,0)" xlink:href="#M"/><use transform="matrix(0.07407407407407407,0,0,0.07407407407407407,79.77777777777777,0)" xlink:href="#M"/></g><path fill="#333" d="M205 0l-28-72H64L36 0H1l101-248h38L239 0h-34zm-38-99l-47-123c-12 45-31 82-46 123h93" id="N"/><path fill="#333" d="M115-194c53 0 69 39 70 98 0 66-23 100-70 100C84 3 66-7 56-30L54 0H23l1-261h32v101c10-23 28-34 59-34zm-8 174c40 0 45-34 45-75 0-40-5-75-45-74-42 0-51 32-51 76 0 43 10 73 51 73" id="O"/><path fill="#333" d="M100-194c63 0 86 42 84 106H49c0 40 14 67 53 68 26 1 43-12 49-29l28 8c-11 28-37 45-77 45C44 4 14-33 15-96c1-61 26-98 85-98zm52 81c6-60-76-77-97-28-3 7-6 17-6 28h103" id="P"/><g id="b"><use transform="matrix(0.07407407407407407,0,0,0.07407407407407407,0,0)" xlink:href="#N"/><use transform="matrix(0.07407407407407407,0,0,0.07407407407407407,17.77777777777778,0)" xlink:href="#M"/><use transform="matrix(0.07407407407407407,0,0,0.07407407407407407,39.925925925925924,0)" xlink:href="#O"/><use transform="matrix(0.07407407407407407,0,0,0.07407407407407407,54.740740740740726,0)" xlink:href="#P"/><use transform="matrix(0.07407407407407407,0,0,0.07407407407407407,69.55555555555554,0)" xlink:href="#L"/></g><g id="c"><use transform="matrix(0.07407407407407407,0,0,0.07407407407407407,0,0)" xlink:href="#N"/><use transform="matrix(0.07407407407407407,0,0,0.07407407407407407,17.77777777777778,0)" xlink:href="#M"/><use transform="matrix(0.07407407407407407,0,0,0.07407407407407407,39.925925925925924,0)" xlink:href="#O"/><use transform="matrix(0.07407407407407407,0,0,0.07407407407407407,54.740740740740726,0)" xlink:href="#P"/><use transform="matrix(0.07407407407407407,0,0,0.07407407407407407,69.55555555555554,0)" xlink:href="#L"/></g><path fill="#333" d="M59-47c-2 24 18 29 38 22v24C64 9 27 4 27-40v-127H5v-23h24l9-43h21v43h35v23H59v120" id="Q"/><path fill="#333" d="M100-194c62-1 85 37 85 99 1 63-27 99-86 99S16-35 15-95c0-66 28-99 85-99zM99-20c44 1 53-31 53-75 0-43-8-75-51-75s-53 32-53 75 10 74 51 75" id="R"/><path fill="#333" d="M115-194c55 1 70 41 70 98S169 2 115 4C84 4 66-9 55-30l1 105H24l-1-265h31l2 30c10-21 28-34 59-34zm-8 174c40 0 45-34 45-75s-6-73-45-74c-42 0-51 32-51 76 0 43 10 73 51 73" id="S"/><path fill="#333" d="M24 0v-261h32V0H24" id="T"/><path fill="#333" d="M177-190C167-65 218 103 67 71c-23-6-38-20-44-43l32-5c15 47 100 32 89-28v-30C133-14 115 1 83 1 29 1 15-40 15-95c0-56 16-97 71-98 29-1 48 16 59 35 1-10 0-23 2-32h30zM94-22c36 0 50-32 50-73 0-42-14-75-50-75-39 0-46 34-46 75s6 73 46 73" id="U"/><path fill="#333" d="M24-231v-30h32v30H24zM24 0v-190h32V0H24" id="V"/><path fill="#333" d="M135-143c-3-34-86-38-87 0 15 53 115 12 119 90S17 21 10-45l28-5c4 36 97 45 98 0-10-56-113-15-118-90-4-57 82-63 122-42 12 7 21 19 24 35" id="W"/><g id="d"><use transform="matrix(0.07407407407407407,0,0,0.07407407407407407,0,0)" xlink:href="#Q"/><use transform="matrix(0.07407407407407407,0,0,0.07407407407407407,7.4074074074074066,0)" xlink:href="#R"/><use transform="matrix(0.07407407407407407,0,0,0.07407407407407407,22.22222222222222,0)" xlink:href="#S"/><use transform="matrix(0.07407407407407407,0,0,0.07407407407407407,37.03703703703704,0)" xlink:href="#R"/><use transform="matrix(0.07407407407407407,0,0,0.07407407407407407,51.85185185185185,0)" xlink:href="#T"/><use transform="matrix(0.07407407407407407,0,0,0.07407407407407407,57.703703703703695,0)" xlink:href="#R"/><use transform="matrix(0.07407407407407407,0,0,0.07407407407407407,72.5185185185185,0)" xlink:href="#U"/><use transform="matrix(0.07407407407407407,0,0,0.07407407407407407,87.33333333333331,0)" xlink:href="#V"/><use transform="matrix(0.07407407407407407,0,0,0.07407407407407407,93.18518518518516,0)" xlink:href="#P"/><use transform="matrix(0.07407407407407407,0,0,0.07407407407407407,107.99999999999997,0)" xlink:href="#W"/></g><path fill="#333" d="M143 4C61 4 22-44 18-125c-5-107 100-154 193-111 17 8 29 25 37 43l-32 9c-13-25-37-40-76-40-61 0-88 39-88 99 0 61 29 100 91 101 35 0 62-11 79-27v-45h-74v-28h105v86C228-13 192 4 143 4" id="X"/><path fill="#333" d="M233-177c-1 41-23 64-60 70L243 0h-38l-65-103H63V0H30v-248c88 3 205-21 203 71zM63-129c60-2 137 13 137-47 0-61-80-42-137-45v92" id="Y"/><path fill="#333" d="M140-251c81 0 123 46 123 126C263-46 219 4 140 4 59 4 17-45 17-125s42-126 123-126zm0 227c63 0 89-41 89-101s-29-99-89-99c-61 0-89 39-89 99S79-25 140-24" id="Z"/><path fill="#333" d="M240 0l2-218c-23 76-54 145-80 218h-23L58-218 59 0H30v-248h44l77 211c21-75 51-140 76-211h43V0h-30" id="aa"/><path fill="#333" d="M185-189c-5-48-123-54-124 2 14 75 158 14 163 119 3 78-121 87-175 55-17-10-28-26-33-46l33-7c5 56 141 63 141-1 0-78-155-14-162-118-5-82 145-84 179-34 5 7 8 16 11 25" id="ab"/><g id="e"><use transform="matrix(0.07407407407407407,0,0,0.07407407407407407,0,0)" xlink:href="#X"/><use transform="matrix(0.07407407407407407,0,0,0.07407407407407407,20.74074074074074,0)" xlink:href="#Y"/><use transform="matrix(0.07407407407407407,0,0,0.07407407407407407,39.925925925925924,0)" xlink:href="#Z"/><use transform="matrix(0.07407407407407407,0,0,0.07407407407407407,60.666666666666664,0)" xlink:href="#aa"/><use transform="matrix(0.07407407407407407,0,0,0.07407407407407407,82.81481481481481,0)" xlink:href="#N"/><use transform="matrix(0.07407407407407407,0,0,0.07407407407407407,100.59259259259258,0)" xlink:href="#I"/><use transform="matrix(0.07407407407407407,0,0,0.07407407407407407,119.77777777777777,0)" xlink:href="#ab"/></g><path fill="#333" d="M179-190L93 31C79 59 56 82 12 73V49c39 6 53-20 64-50L1-190h34L92-34l54-156h33" id="ac"/><g id="f"><use transform="matrix(0.07407407407407407,0,0,0.07407407407407407,0,0)" xlink:href="#Q"/><use transform="matrix(0.07407407407407407,0,0,0.07407407407407407,7.4074074074074066,0)" xlink:href="#R"/><use transform="matrix(0.07407407407407407,0,0,0.07407407407407407,22.22222222222222,0)" xlink:href="#S"/><use transform="matrix(0.07407407407407407,0,0,0.07407407407407407,37.03703703703704,0)" xlink:href="#R"/><use transform="matrix(0.07407407407407407,0,0,0.07407407407407407,51.85185185185185,0)" xlink:href="#T"/><use transform="matrix(0.07407407407407407,0,0,0.07407407407407407,57.703703703703695,0)" xlink:href="#R"/><use transform="matrix(0.07407407407407407,0,0,0.07407407407407407,72.5185185185185,0)" xlink:href="#U"/><use transform="matrix(0.07407407407407407,0,0,0.07407407407407407,87.33333333333331,0)" xlink:href="#ac"/></g><g id="g"><use transform="matrix(0.07407407407407407,0,0,0.07407407407407407,0,0)" xlink:href="#ab"/><use transform="matrix(0.07407407407407407,0,0,0.07407407407407407,17.77777777777778,0)" xlink:href="#M"/><use transform="matrix(0.07407407407407407,0,0,0.07407407407407407,39.925925925925924,0)" xlink:href="#K"/><use transform="matrix(0.07407407407407407,0,0,0.07407407407407407,54.740740740740726,0)" xlink:href="#T"/><use transform="matrix(0.07407407407407407,0,0,0.07407407407407407,60.59259259259258,0)" xlink:href="#T"/></g><path fill="#333" d="M96-169c-40 0-48 33-48 73s9 75 48 75c24 0 41-14 43-38l32 2c-6 37-31 61-74 61-59 0-76-41-82-99-10-93 101-131 147-64 4 7 5 14 7 22l-32 3c-4-21-16-35-41-35" id="ad"/><path fill="#333" d="M84 4C-5 8 30-112 23-190h32v120c0 31 7 50 39 49 72-2 45-101 50-169h31l1 190h-30c-1-10 1-25-2-33-11 22-28 36-60 37" id="ae"/><g id="h"><use transform="matrix(0.07407407407407407,0,0,0.07407407407407407,0,0)" xlink:href="#M"/><use transform="matrix(0.07407407407407407,0,0,0.07407407407407407,22.148148148148145,0)" xlink:href="#R"/><use transform="matrix(0.07407407407407407,0,0,0.07407407407407407,36.96296296296296,0)" xlink:href="#T"/><use transform="matrix(0.07407407407407407,0,0,0.07407407407407407,42.81481481481481,0)" xlink:href="#P"/><use transform="matrix(0.07407407407407407,0,0,0.07407407407407407,57.62962962962962,0)" xlink:href="#ad"/><use transform="matrix(0.07407407407407407,0,0,0.07407407407407407,70.96296296296295,0)" xlink:href="#ae"/><use transform="matrix(0.07407407407407407,0,0,0.07407407407407407,85.77777777777776,0)" xlink:href="#T"/><use transform="matrix(0.07407407407407407,0,0,0.07407407407407407,91.6296296296296,0)" xlink:href="#P"/></g><path fill="#333" d="M80-196l47-18 7 23-49 13 32 44-20 13-27-46-27 45-21-12 33-44-49-13 8-23 47 19-2-53h23" id="af"/><path fill="#333" d="M33 0v-38h34V0H33" id="ag"/><path fill="#333" d="M101-251c82-7 93 87 43 132L82-64C71-53 59-42 53-27h129V0H18c2-99 128-94 128-182 0-28-16-43-45-43s-46 15-49 41l-32-3c6-41 34-60 81-64" id="ah"/><g id="i"><use transform="matrix(0.07407407407407407,0,0,0.07407407407407407,0,0)" xlink:href="#af"/><use transform="matrix(0.07407407407407407,0,0,0.07407407407407407,10.37037037037037,0)" xlink:href="#ag"/><use transform="matrix(0.07407407407407407,0,0,0.07407407407407407,17.77777777777778,0)" xlink:href="#M"/><use transform="matrix(0.07407407407407407,0,0,0.07407407407407407,39.925925925925924,0)" xlink:href="#R"/><use transform="matrix(0.07407407407407407,0,0,0.07407407407407407,54.740740740740726,0)" xlink:href="#T"/><use transform="matrix(0.07407407407407407,0,0,0.07407407407407407,60.59259259259258,0)" xlink:href="#ah"/></g><path fill="#333" d="M30-248c118-7 216 8 213 122C240-48 200 0 122 0H30v-248zM63-27c89 8 146-16 146-99s-60-101-146-95v194" id="ai"/><path fill="#333" d="M101-234c-31-9-42 10-38 44h38v23H63V0H32v-167H5v-23h27c-7-52 17-82 69-68v24" id="aj"/><path fill="#333" d="M117-194c89-4 53 116 60 194h-32v-121c0-31-8-49-39-48C34-167 62-67 57 0H25l-1-190h30c1 10-1 24 2 32 11-22 29-35 61-36" id="ak"/><path fill="#333" d="M85-194c31 0 48 13 60 33l-1-100h32l1 261h-30c-2-10 0-23-3-31C134-8 116 4 85 4 32 4 16-35 15-94c0-66 23-100 70-100zm9 24c-40 0-46 34-46 75 0 40 6 74 45 74 42 0 51-32 51-76 0-42-9-74-50-73" id="al"/><path fill="#333" d="M103-251c84 0 111 97 45 133-19 10-37 24-39 52H78c0-63 77-55 77-114 0-30-21-42-52-43-32 0-53 17-56 46l-32-2c7-45 34-72 88-72zM77 0v-35h34V0H77" id="am"/><g id="j"><use transform="matrix(0.07407407407407407,0,0,0.07407407407407407,0,0)" xlink:href="#ai"/><use transform="matrix(0.07407407407407407,0,0,0.07407407407407407,19.185185185185183,0)" xlink:href="#P"/><use transform="matrix(0.07407407407407407,0,0,0.07407407407407407,34,0)" xlink:href="#aj"/><use transform="matrix(0.07407407407407407,0,0,0.07407407407407407,41.407407407407405,0)" xlink:href="#V"/><use transform="matrix(0.07407407407407407,0,0,0.07407407407407407,47.259259259259245,0)" xlink:href="#ak"/><use transform="matrix(0.07407407407407407,0,0,0.07407407407407407,62.07407407407406,0)" xlink:href="#P"/><use transform="matrix(0.07407407407407407,0,0,0.07407407407407407,76.88888888888887,0)" xlink:href="#al"/><use transform="matrix(0.07407407407407407,0,0,0.07407407407407407,91.70370370370368,0)" xlink:href="#am"/></g><g id="k"><use transform="matrix(0.07407407407407407,0,0,0.07407407407407407,0,0)" xlink:href="#X"/><use transform="matrix(0.07407407407407407,0,0,0.07407407407407407,20.74074074074074,0)" xlink:href="#P"/><use transform="matrix(0.07407407407407407,0,0,0.07407407407407407,35.55555555555556,0)" xlink:href="#ak"/><use transform="matrix(0.07407407407407407,0,0,0.07407407407407407,50.37037037037037,0)" xlink:href="#P"/><use transform="matrix(0.07407407407407407,0,0,0.07407407407407407,65.18518518518518,0)" xlink:href="#L"/><use transform="matrix(0.07407407407407407,0,0,0.07407407407407407,73.99999999999999,0)" xlink:href="#K"/><use transform="matrix(0.07407407407407407,0,0,0.07407407407407407,88.8148148148148,0)" xlink:href="#Q"/><use transform="matrix(0.07407407407407407,0,0,0.07407407407407407,96.2222222222222,0)" xlink:href="#P"/></g><path fill="#333" d="M206 0h-36l-40-164L89 0H53L-1-190h32L70-26l43-164h34l41 164 42-164h31" id="an"/><g id="l"><use transform="matrix(0.07407407407407407,0,0,0.07407407407407407,0,0)" xlink:href="#an"/><use transform="matrix(0.07407407407407407,0,0,0.07407407407407407,19.185185185185183,0)" xlink:href="#V"/><use transform="matrix(0.07407407407407407,0,0,0.07407407407407407,25.037037037037035,0)" xlink:href="#Q"/><use transform="matrix(0.07407407407407407,0,0,0.07407407407407407,32.44444444444444,0)" xlink:href="#J"/></g><g id="m"><use transform="matrix(0.07407407407407407,0,0,0.07407407407407407,0,0)" xlink:href="#Q"/><use transform="matrix(0.07407407407407407,0,0,0.07407407407407407,7.4074074074074066,0)" xlink:href="#T"/><use transform="matrix(0.07407407407407407,0,0,0.07407407407407407,13.259259259259258,0)" xlink:href="#P"/><use transform="matrix(0.07407407407407407,0,0,0.07407407407407407,28.07407407407407,0)" xlink:href="#K"/><use transform="matrix(0.07407407407407407,0,0,0.07407407407407407,42.888888888888886,0)" xlink:href="#S"/></g><g id="n"><use transform="matrix(0.07407407407407407,0,0,0.07407407407407407,0,0)" xlink:href="#X"/><use transform="matrix(0.07407407407407407,0,0,0.07407407407407407,20.74074074074074,0)" xlink:href="#P"/><use transform="matrix(0.07407407407407407,0,0,0.07407407407407407,35.55555555555556,0)" xlink:href="#ak"/><use transform="matrix(0.07407407407407407,0,0,0.07407407407407407,50.37037037037037,0)" xlink:href="#P"/><use transform="matrix(0.07407407407407407,0,0,0.07407407407407407,65.18518518518518,0)" xlink:href="#L"/><use transform="matrix(0.07407407407407407,0,0,0.07407407407407407,73.99999999999999,0)" xlink:href="#K"/><use transform="matrix(0.07407407407407407,0,0,0.07407407407407407,88.8148148148148,0)" xlink:href="#Q"/><use transform="matrix(0.07407407407407407,0,0,0.07407407407407407,96.2222222222222,0)" xlink:href="#P"/></g><g id="o"><use transform="matrix(0.07407407407407407,0,0,0.07407407407407407,0,0)" xlink:href="#S"/><use transform="matrix(0.07407407407407407,0,0,0.07407407407407407,14.814814814814813,0)" xlink:href="#al"/><use transform="matrix(0.07407407407407407,0,0,0.07407407407407407,29.629629629629626,0)" xlink:href="#O"/></g><g id="p"><use transform="matrix(0.07407407407407407,0,0,0.07407407407407407,0,0)" xlink:href="#aj"/><use transform="matrix(0.07407407407407407,0,0,0.07407407407407407,7.4074074074074066,0)" xlink:href="#R"/><use transform="matrix(0.07407407407407407,0,0,0.07407407407407407,22.22222222222222,0)" xlink:href="#L"/></g><path fill="#333" d="M68-38c1 34 0 65-14 84H32c9-13 17-26 17-46H33v-38h35" id="ao"/><g id="q"><use transform="matrix(0.06790123456790122,0,0,0.06790123456790122,0,0)" xlink:href="#I"/><use transform="matrix(0.06790123456790122,0,0,0.06790123456790122,17.586419753086414,0)" xlink:href="#Z"/><use transform="matrix(0.06790123456790122,0,0,0.06790123456790122,36.59876543209876,0)" xlink:href="#aa"/><use transform="matrix(0.06790123456790122,0,0,0.06790123456790122,56.90123456790123,0)" xlink:href="#ao"/></g><path fill="#333" d="M30 0v-248h187v28H63v79h144v27H63v87h162V0H30" id="ap"/><g id="r"><use transform="matrix(0.06790123456790122,0,0,0.06790123456790122,0,0)" xlink:href="#Y"/><use transform="matrix(0.06790123456790122,0,0,0.06790123456790122,17.586419753086414,0)" xlink:href="#ap"/><use transform="matrix(0.06790123456790122,0,0,0.06790123456790122,33.88271604938271,0)" xlink:href="#I"/></g><g id="s"><use transform="matrix(0.06790123456790122,0,0,0.06790123456790122,0,0)" xlink:href="#K"/><use transform="matrix(0.06790123456790122,0,0,0.06790123456790122,13.580246913580243,0)" xlink:href="#ak"/><use transform="matrix(0.06790123456790122,0,0,0.06790123456790122,27.160493827160487,0)" xlink:href="#al"/></g><path fill="#333" d="M30 0v-248h33v221h125V0H30" id="aq"/><path fill="#333" d="M33 0v-248h34V0H33" id="ar"/><g id="t"><use transform="matrix(0.06790123456790122,0,0,0.06790123456790122,0,0)" xlink:href="#aq"/><use transform="matrix(0.06790123456790122,0,0,0.06790123456790122,13.580246913580243,0)" xlink:href="#ar"/><use transform="matrix(0.06790123456790122,0,0,0.06790123456790122,20.370370370370367,0)" xlink:href="#X"/></g><path fill="#333" d="M141 0L90-78 38 0H4l68-98-65-92h35l48 74 47-74h35l-64 92 68 98h-35" id="as"/><g id="u"><use transform="matrix(0.07407407407407407,0,0,0.07407407407407407,0,0)" xlink:href="#I"/><use transform="matrix(0.07407407407407407,0,0,0.07407407407407407,19.185185185185183,0)" xlink:href="#R"/><use transform="matrix(0.07407407407407407,0,0,0.07407407407407407,34,0)" xlink:href="#M"/><use transform="matrix(0.07407407407407407,0,0,0.07407407407407407,56.148148148148145,0)" xlink:href="#S"/><use transform="matrix(0.07407407407407407,0,0,0.07407407407407407,70.96296296296296,0)" xlink:href="#T"/><use transform="matrix(0.07407407407407407,0,0,0.07407407407407407,76.81481481481481,0)" xlink:href="#P"/><use transform="matrix(0.07407407407407407,0,0,0.07407407407407407,91.62962962962962,0)" xlink:href="#as"/></g><g id="v"><use transform="matrix(0.07407407407407407,0,0,0.07407407407407407,0,0)" xlink:href="#ab"/><use transform="matrix(0.07407407407407407,0,0,0.07407407407407407,17.77777777777778,0)" xlink:href="#Q"/><use transform="matrix(0.07407407407407407,0,0,0.07407407407407407,25.185185185185183,0)" xlink:href="#L"/><use transform="matrix(0.07407407407407407,0,0,0.07407407407407407,34,0)" xlink:href="#ae"/><use transform="matrix(0.07407407407407407,0,0,0.07407407407407407,48.81481481481481,0)" xlink:href="#ad"/><use transform="matrix(0.07407407407407407,0,0,0.07407407407407407,62.14814814814814,0)" xlink:href="#Q"/><use transform="matrix(0.07407407407407407,0,0,0.07407407407407407,69.55555555555554,0)" xlink:href="#ae"/><use transform="matrix(0.07407407407407407,0,0,0.07407407407407407,84.37037037037035,0)" xlink:href="#L"/><use transform="matrix(0.07407407407407407,0,0,0.07407407407407407,93.18518518518516,0)" xlink:href="#P"/></g><path fill="#333" d="M87 75C49 33 22-17 22-94c0-76 28-126 65-167h31c-38 41-64 92-64 168S80 34 118 75H87" id="at"/><path fill="#19967d" d="M59-47c-2 24 18 29 38 22v24C64 9 27 4 27-40v-127H5v-23h24l9-43h21v43h35v23H59v120" id="au"/><path fill="#19967d" d="M115-194c55 1 70 41 70 98S169 2 115 4C84 4 66-9 55-30l1 105H24l-1-265h31l2 30c10-21 28-34 59-34zm-8 174c40 0 45-34 45-75s-6-73-45-74c-42 0-51 32-51 76 0 43 10 73 51 73" id="av"/><path fill="#19967d" d="M114-163C36-179 61-72 57 0H25l-1-190h30c1 12-1 29 2 39 6-27 23-49 58-41v29" id="aw"/><g id="w"><use transform="matrix(0.07407407407407407,0,0,0.07407407407407407,0,0)" xlink:href="#at"/><use transform="matrix(0.07407407407407407,0,0,0.07407407407407407,8.814814814814815,0)" xlink:href="#au"/><use transform="matrix(0.07407407407407407,0,0,0.07407407407407407,16.22222222222222,0)" xlink:href="#av"/><use transform="matrix(0.07407407407407407,0,0,0.07407407407407407,31.037037037037035,0)" xlink:href="#aw"/><use transform="matrix(0.07407407407407407,0,0,0.07407407407407407,39.85185185185185,0)" xlink:href="#ao"/></g><g id="x"><use transform="matrix(0.07407407407407407,0,0,0.07407407407407407,0,0)" xlink:href="#U"/><use transform="matrix(0.07407407407407407,0,0,0.07407407407407407,14.814814814814813,0)" xlink:href="#L"/><use transform="matrix(0.07407407407407407,0,0,0.07407407407407407,23.629629629629623,0)" xlink:href="#R"/><use transform="matrix(0.07407407407407407,0,0,0.07407407407407407,38.44444444444444,0)" xlink:href="#ao"/></g><path fill="#333" d="M33-261c38 41 65 92 65 168S71 34 33 75H2C39 34 66-17 66-93S39-220 2-261h31" id="ax"/><g id="y"><use transform="matrix(0.07407407407407407,0,0,0.07407407407407407,0,0)" xlink:href="#S"/><use transform="matrix(0.07407407407407407,0,0,0.07407407407407407,14.814814814814813,0)" xlink:href="#al"/><use transform="matrix(0.07407407407407407,0,0,0.07407407407407407,29.629629629629626,0)" xlink:href="#O"/><use transform="matrix(0.07407407407407407,0,0,0.07407407407407407,44.44444444444444,0)" xlink:href="#ax"/></g><g id="z"><use transform="matrix(0.07407407407407407,0,0,0.07407407407407407,0,0)" xlink:href="#ar"/><use transform="matrix(0.07407407407407407,0,0,0.07407407407407407,7.4074074074074066,0)" xlink:href="#ak"/><use transform="matrix(0.07407407407407407,0,0,0.07407407407407407,22.22222222222222,0)" xlink:href="#al"/><use transform="matrix(0.07407407407407407,0,0,0.07407407407407407,37.03703703703704,0)" xlink:href="#P"/><use transform="matrix(0.07407407407407407,0,0,0.07407407407407407,51.85185185185185,0)" xlink:href="#as"/></g><g id="A"><use transform="matrix(0.07407407407407407,0,0,0.07407407407407407,0,0)" xlink:href="#at"/><use transform="matrix(0.07407407407407407,0,0,0.07407407407407407,8.814814814814815,0)" xlink:href="#ak"/><use transform="matrix(0.07407407407407407,0,0,0.07407407407407407,23.629629629629623,0)" xlink:href="#al"/><use transform="matrix(0.07407407407407407,0,0,0.07407407407407407,38.44444444444444,0)" xlink:href="#as"/><use transform="matrix(0.07407407407407407,0,0,0.07407407407407407,51.77777777777777,0)" xlink:href="#ax"/></g><g id="B"><use transform="matrix(0.07407407407407407,0,0,0.07407407407407407,0,0)" xlink:href="#Q"/><use transform="matrix(0.07407407407407407,0,0,0.07407407407407407,7.4074074074074066,0)" xlink:href="#R"/><use transform="matrix(0.07407407407407407,0,0,0.07407407407407407,22.22222222222222,0)" xlink:href="#S"/></g><path fill="#333" d="M169-182c-1-43-94-46-97-3 18 66 151 10 154 114 3 95-165 93-204 36-6-8-10-19-12-30l50-8c3 46 112 56 116 5-17-69-150-10-154-114-4-87 153-88 188-35 5 8 8 18 10 28" id="ay"/><path fill="#333" d="M25 0v-190h50V0H25zm-5-208v-5l45-51h45v8l-60 48H20" id="az"/><g id="C"><use transform="matrix(0.06172839506172839,0,0,0.06172839506172839,0,0)" xlink:href="#ay"/><use transform="matrix(0.06172839506172839,0,0,0.06172839506172839,14.814814814814813,0)" xlink:href="#az"/></g><path fill="#333" d="M108 0H70L1-190h34L89-25l56-165h34" id="aA"/><g id="D"><use transform="matrix(0.07407407407407407,0,0,0.07407407407407407,0,0)" xlink:href="#I"/><use transform="matrix(0.07407407407407407,0,0,0.07407407407407407,19.185185185185183,0)" xlink:href="#R"/><use transform="matrix(0.07407407407407407,0,0,0.07407407407407407,34,0)" xlink:href="#ak"/><use transform="matrix(0.07407407407407407,0,0,0.07407407407407407,48.81481481481481,0)" xlink:href="#aA"/><use transform="matrix(0.07407407407407407,0,0,0.07407407407407407,62.14814814814814,0)" xlink:href="#P"/><use transform="matrix(0.07407407407407407,0,0,0.07407407407407407,76.96296296296295,0)" xlink:href="#L"/><use transform="matrix(0.07407407407407407,0,0,0.07407407407407407,85.77777777777776,0)" xlink:href="#Q"/></g><g id="E"><use transform="matrix(0.07407407407407407,0,0,0.07407407407407407,0,0)" xlink:href="#an"/><use transform="matrix(0.07407407407407407,0,0,0.07407407407407407,19.185185185185183,0)" xlink:href="#V"/><use transform="matrix(0.07407407407407407,0,0,0.07407407407407407,25.037037037037035,0)" xlink:href="#Q"/><use transform="matrix(0.07407407407407407,0,0,0.07407407407407407,32.44444444444444,0)" xlink:href="#J"/></g><g id="F"><use transform="matrix(0.07407407407407407,0,0,0.07407407407407407,0,0)" xlink:href="#S"/><use transform="matrix(0.07407407407407407,0,0,0.07407407407407407,14.814814814814813,0)" xlink:href="#K"/><use transform="matrix(0.07407407407407407,0,0,0.07407407407407407,29.629629629629626,0)" xlink:href="#L"/><use transform="matrix(0.07407407407407407,0,0,0.07407407407407407,38.44444444444444,0)" xlink:href="#M"/><use transform="matrix(0.07407407407407407,0,0,0.07407407407407407,60.59259259259259,0)" xlink:href="#P"/><use transform="matrix(0.07407407407407407,0,0,0.07407407407407407,75.4074074074074,0)" xlink:href="#al"/></g><path fill="#333" d="M146-102V0H94v-102L6-248h54l60 105 60-105h54" id="aB"/><path fill="#333" d="M185-48c-13 30-37 53-82 52C43 2 14-33 14-96s30-98 90-98c62 0 83 45 84 108H66c0 31 8 55 39 56 18 0 30-7 34-22zm-45-69c5-46-57-63-70-21-2 6-4 13-4 21h74" id="aC"/><path fill="#333" d="M137-138c1-29-70-34-71-4 15 46 118 7 119 86 1 83-164 76-172 9l43-7c4 19 20 25 44 25 33 8 57-30 24-41C81-84 22-81 20-136c-2-80 154-74 161-7" id="aD"/><g id="G"><use transform="matrix(0.06172839506172839,0,0,0.06172839506172839,0,0)" xlink:href="#aB"/><use transform="matrix(0.06172839506172839,0,0,0.06172839506172839,13.580246913580245,0)" xlink:href="#aC"/><use transform="matrix(0.06172839506172839,0,0,0.06172839506172839,25.925925925925924,0)" xlink:href="#aD"/></g><g id="H"><use transform="matrix(0.07407407407407407,0,0,0.07407407407407407,0,0)" xlink:href="#aa"/><use transform="matrix(0.07407407407407407,0,0,0.07407407407407407,22.148148148148145,0)" xlink:href="#ae"/><use transform="matrix(0.07407407407407407,0,0,0.07407407407407407,36.96296296296296,0)" xlink:href="#Q"/><use transform="matrix(0.07407407407407407,0,0,0.07407407407407407,44.37037037037037,0)" xlink:href="#K"/><use transform="matrix(0.07407407407407407,0,0,0.07407407407407407,59.185185185185176,0)" xlink:href="#Q"/><use transform="matrix(0.07407407407407407,0,0,0.07407407407407407,66.59259259259258,0)" xlink:href="#V"/><use transform="matrix(0.07407407407407407,0,0,0.07407407407407407,72.44444444444443,0)" xlink:href="#R"/><use transform="matrix(0.07407407407407407,0,0,0.07407407407407407,87.25925925925924,0)" xlink:href="#ak"/><use transform="matrix(0.07407407407407407,0,0,0.07407407407407407,102.07407407407405,0)" xlink:href="#am"/></g></defs></g></svg>